<svg width="411" height="823" viewBox="0 0 411 823" fill="none" xmlns="http://www.w3.org/2000/svg">
<g clip-path="url(#clip0)">
<rect width="411" height="823" fill="#FF8B7B"/>
<g opacity="0.3">
<path d="M-16.3356 520.726C-12.3234 523.113 -7.96501 525.104 -3.30972 526.617C10.0386 531.344 26.1338 533.584 43.2834 532.46C77.4175 530.224 105.672 515.323 115.717 496.347C126.787 478.755 128.066 456.505 117.084 438.481C101.243 412.484 65.8914 405.125 38.1237 422.044C36.2783 423.168 34.5128 424.372 32.8295 425.646C31.5011 425.159 30.1468 424.711 28.7677 424.304C-2.48646 415.087 -34.6128 430.641 -42.9886 459.043C-47.6599 474.884 -43.957 491.376 -34.346 504.464C-30.363 510.75 -24.1667 516.27 -16.3356 520.726Z" fill="#FFB168"/>
<path d="M47.9738 421.404C49.0181 418.061 49.6951 413.889 49.8154 409.352C50.1106 398.224 46.9457 389.113 42.7465 389.001C38.5472 388.89 34.9038 397.82 34.6087 408.948C34.4792 413.83 35.0155 418.323 36.0128 421.838C34.7006 418.961 32.8099 415.832 30.4331 412.753C23.63 403.942 15.4195 398.881 12.0946 401.448C8.76965 404.015 11.5893 413.239 18.3924 422.05C19.9173 424.025 21.513 425.812 23.1085 427.366C20.3756 426.971 17.4151 426.733 14.3214 426.687C0.409009 426.48 -10.9276 430.234 -10.9997 435.073C-11.0717 439.912 0.148113 444.002 14.0605 444.209C18.3978 444.274 22.4847 443.953 26.058 443.335C25.8799 444.181 25.7152 445.042 25.5649 445.916C23.0848 460.34 25.4867 472.792 30.9297 473.728C36.3726 474.663 42.7956 463.729 45.2757 449.305C45.8407 446.019 46.1523 442.836 46.2323 439.867C48.562 442.594 51.416 445.376 54.6785 448.015C66.058 457.218 78.0983 461.198 81.5714 456.904C85.0445 452.61 78.6351 441.668 67.2557 432.464C67.0557 432.302 66.8554 432.142 66.655 431.984C80.3889 430.762 91.2112 426.679 90.8798 422.825C90.5463 418.945 79.0379 416.765 65.1751 417.957C58.4349 418.536 52.379 419.806 47.9738 421.404Z" fill="#C54635"/>
<path d="M396.291 595.885C397.643 586.059 407.192 579.554 416.831 581.893C417.072 581.951 417.21 582.205 417.128 582.439L397.538 637.923L390.735 636.273L396.291 595.885Z" fill="#FFC6C6"/>
<path d="M410.613 612.989C415.684 604.572 426.998 602.53 434.69 608.644C434.883 608.796 434.897 609.084 434.721 609.255L401.651 641.321L396.17 636.966L410.613 612.989Z" fill="#FFC6C6"/>
<path d="M364.784 607.583C364.633 607.391 364.689 607.11 364.901 606.99C373.391 602.194 384.159 606.086 387.62 615.202L395.164 635.069L389.069 638.512L364.784 607.583Z" fill="#FFC6C6"/>
<path d="M375.667 721.112C350.174 714.926 334.522 689.244 340.708 663.75C346.894 638.257 372.576 622.605 398.07 628.791C423.563 634.977 439.215 660.659 433.029 686.153C426.843 711.646 401.161 727.298 375.667 721.112Z" fill="#297BA9"/>
<path d="M432.911 686.639L425.372 717.708C420.575 737.477 408.849 754.871 392.324 766.733L361.837 788.617C361.063 789.172 360.086 789.362 359.16 789.138C358.235 788.913 357.454 788.296 357.021 787.448L339.954 754.025C330.703 735.908 328.254 715.075 333.051 695.306L340.59 664.236L432.911 686.639Z" fill="#FFC6C6"/>
<path fill-rule="evenodd" clip-rule="evenodd" d="M10.8781 152C3.87808 145.667 -7.52192 126.2 2.87808 99C10.5448 105 22.8781 124 10.8781 152ZM25.378 184.5C21.378 175.167 22.378 135.5 36.378 134C42.878 134 49.778 159.7 25.378 184.5ZM59.6634 237.012C56.351 228.063 60.6633 201.973 82.8281 182.973C86.8972 191.948 83.6441 218.075 59.6634 237.012ZM57.0335 238.189C52.7175 246.699 11.8781 271.5 -4.62173 255C-0.800579 245.917 26.846 233.457 57.0335 238.189ZM24.378 187.5C15.1264 191.685 -27.2205 191.613 -28.9996 177.646C-29.1293 171.147 -0.121965 167.5 24.378 187.5ZM38.837 205.529C37.6289 195.447 51.0226 153.495 64.878 156C71.1146 157.832 62.378 189 38.837 205.529ZM97.878 277.5C96.6699 267.418 112.016 216.676 125.871 219.181C132.108 221.013 121.419 260.971 97.878 277.5ZM37.3365 209.474C31.1289 217.51 -4.01194 235.937 -12.1345 224.436C-15.2973 218.757 3.79782 200.224 37.3365 209.474ZM76.3368 259.474C73.378 269 40.0007 290.501 31.8781 279C28.7154 273.321 50.378 257 76.3368 259.474ZM126.338 297.011C120.967 288.606 133.85 241.288 147.878 242.5C157.878 243.364 144.973 278.771 126.338 297.011ZM100.878 280C97.9193 289.526 59.7743 313.504 51.6518 302.003C48.489 296.324 74.9193 277.526 100.878 280Z" fill="#297BA9"/>
<path fill-rule="evenodd" clip-rule="evenodd" d="M9.09271 141.02C10.186 140.863 11.2 141.621 11.3576 142.715C15.2806 169.93 34.012 204.212 60.477 235.97C86.9076 267.686 120.82 296.607 154.757 313.203C155.749 313.689 156.16 314.886 155.675 315.879C155.189 316.871 153.992 317.282 152.999 316.797C118.436 299.893 84.0985 270.564 57.4041 238.53C30.7441 206.538 11.4755 171.57 7.39851 143.285C7.24092 142.192 7.99944 141.178 9.09271 141.02Z" fill="#19468A"/>
<path d="M357.776 406.051L356.883 406.303C334.303 412.672 311.037 398.646 306.126 375.705C302.695 359.673 309.136 342.997 322.78 333.906C345.864 318.526 366.694 307.187 378.274 314.221C389.893 321.279 390.101 346.584 386.61 373.71C384.6 389.325 372.929 401.777 357.776 406.051Z" fill="#FFEAEA"/>
<circle cx="342.43" cy="372.596" r="21" transform="rotate(31.2779 342.43 372.596)" fill="#FFB168"/>
<path d="M323.645 88.5754C323.484 90.3757 323.398 92.1334 323.382 93.825C321.11 87.8999 317.976 84.1962 314.895 84.5138C309.874 85.0314 306.895 96.0296 308.24 109.079C308.935 115.817 310.646 121.784 312.831 125.909C313.764 128.421 314.952 130.117 316.284 130.646C319.853 133.362 327.74 135.223 336.886 135.176C337.337 135.174 337.786 135.167 338.23 135.156C339.346 135.208 340.489 135.232 341.651 135.226C354.26 135.162 364.463 131.571 364.441 127.205C364.42 123.281 356.143 120.066 345.309 119.504C347.94 118.579 350.726 117.389 353.55 115.955C355.254 115.089 356.877 114.182 358.402 113.252C359.65 112.8 360.92 112.251 362.19 111.606C370.249 107.511 375.209 101.094 373.268 97.272C371.762 94.3085 366.549 93.7757 360.526 95.5947C365.991 85.44 366.708 75.3821 361.95 72.523C356.876 69.4746 347.499 75.7648 341.005 86.5726C340.674 87.1235 340.357 87.6754 340.054 88.2273C339.779 88.3133 339.501 88.4113 339.22 88.5209C340.032 76.6093 337.517 66.8955 333.411 66.5281C329.141 66.1459 324.769 76.0169 323.645 88.5754Z" fill="#A9E6C1"/>
<path fill-rule="evenodd" clip-rule="evenodd" d="M346.727 96.6725C345.931 95.9068 344.665 95.9314 343.9 96.7275C329.885 111.299 297.313 148.565 279.272 181.019C278.735 181.984 279.083 183.202 280.048 183.739C281.013 184.275 282.231 183.928 282.768 182.962C300.557 150.962 332.846 113.991 346.783 99.5003C347.548 98.7042 347.524 97.4381 346.727 96.6725Z" fill="#98CD63"/>
<circle cx="213.864" cy="180.656" r="25" transform="rotate(-42.0961 213.864 180.656)" fill="#FFE7E3"/>
<path d="M212.804 154.272C212.731 153.072 212.531 151.755 212.196 150.394C211.009 145.578 208.574 142.036 206.756 142.484C204.939 142.931 204.427 147.199 205.614 152.016C205.884 153.115 206.22 154.147 206.599 155.081C205.281 154.996 203.848 155.004 202.354 155.118C196.172 155.592 191.294 157.719 191.458 159.869C191.623 162.019 196.768 163.378 202.951 162.905C203.806 162.839 204.637 162.742 205.432 162.618C205.144 163.9 204.931 165.3 204.815 166.77C204.3 173.272 205.872 178.7 208.326 178.894C210.779 179.088 213.185 173.974 213.699 167.473C213.817 165.992 213.826 164.566 213.74 163.246C214.885 164.361 216.265 165.479 217.82 166.518C223.244 170.14 228.749 171.416 230.115 169.37C231.482 167.323 228.193 162.727 222.769 159.106C221.449 158.224 220.125 157.482 218.856 156.892C218.952 156.794 219.048 156.694 219.144 156.593C223.417 152.1 225.861 147.488 224.604 146.292C223.347 145.096 218.863 147.769 214.59 152.262C213.952 152.933 213.354 153.607 212.804 154.272Z" fill="#C54635"/>
<circle cx="8.71037" cy="610.883" r="25" transform="rotate(-18.7541 8.71037 610.883)" fill="#FFE7E3"/>
<path d="M18.1908 586.237C18.599 585.107 18.9375 583.819 19.1689 582.436C19.9879 577.544 19.1552 573.327 17.3089 573.018C15.4627 572.709 13.302 576.425 12.483 581.317C12.2962 582.433 12.1953 583.515 12.1728 584.522C10.9971 583.922 9.67812 583.361 8.26115 582.874C2.39717 580.86 -2.92458 580.88 -3.62531 582.919C-4.32604 584.959 -0.140403 588.245 5.72358 590.26C6.53505 590.539 7.33615 590.779 8.11605 590.98C7.34293 592.043 6.59297 593.243 5.90367 594.547C2.85535 600.313 2.14801 605.92 4.32378 607.07C6.49955 608.22 10.7345 604.479 13.7828 598.713C14.4773 597.399 15.0502 596.094 15.4953 594.848C16.1043 596.326 16.9279 597.899 17.9442 599.469C21.4893 604.943 26.0377 608.297 28.1036 606.959C30.1694 605.621 28.9703 600.099 25.4253 594.624C24.5626 593.292 23.6406 592.086 22.7093 591.042C22.8366 590.989 22.9643 590.935 23.0922 590.881C28.7957 588.449 32.8676 585.183 32.1869 583.587C31.5063 581.99 26.3308 582.668 20.6272 585.1C19.7752 585.463 18.9596 585.845 18.1908 586.237Z" fill="#C54635"/>
<path fill-rule="evenodd" clip-rule="evenodd" d="M177.861 3.58479C183.766 6.11696 186.499 12.9563 183.967 18.8609C181.435 24.7655 174.596 27.4994 168.691 24.9672C167.925 24.6388 167.213 24.2379 166.558 23.776L157.783 44.2379C155.926 48.5679 150.911 50.5728 146.581 48.7159C142.251 46.859 140.246 41.8434 142.103 37.5134L151.399 15.8372C145.697 13.2075 143.095 6.49748 145.585 0.691284C148.117 -5.2133 154.956 -7.94719 160.861 -5.41502C164.848 -3.70534 167.389 -0.0321483 167.84 3.99112C170.839 2.40811 174.501 2.14401 177.861 3.58479Z" fill="#FFEAEA"/>
<path d="M161.845 28.2596C168.508 31.1166 172.927 37.5566 173.197 44.8005L174.869 89.6596C176.143 123.863 141.358 147.736 109.902 134.245C78.4451 120.755 71.7617 79.099 97.4192 56.4455L131.07 26.7345C136.504 21.9367 144.216 20.6994 150.878 23.5564L161.845 28.2596Z" fill="#FFB168"/>
<rect x="142.662" y="118.851" width="7.75523" height="6.20418" rx="3.10209" transform="rotate(141.163 142.662 118.851)" fill="white"/>
<rect x="127.837" y="102.91" width="7.75523" height="6.20418" rx="3.10209" transform="rotate(141.163 127.837 102.91)" fill="white"/>
<rect x="121.591" y="119.885" width="7.75523" height="6.20418" rx="3.10209" transform="rotate(141.163 121.591 119.885)" fill="white"/>
<path fill-rule="evenodd" clip-rule="evenodd" d="M139.924 590.107C130.495 598.607 128.056 611.968 132.979 622.961C126.275 622.438 119.377 624.561 113.988 629.419C103.568 638.813 102.737 654.876 112.131 665.296C112.32 665.505 112.511 665.71 112.704 665.912C105.794 664.368 98.2665 666.083 92.6076 671.185C83.3871 679.497 82.5985 693.674 90.7989 702.956C90.1521 703.437 89.5222 703.952 88.9116 704.503C78.4915 713.897 77.6599 729.96 87.0542 740.38C96.4485 750.8 112.511 751.631 122.931 742.237C133.351 732.843 134.183 716.78 124.789 706.36C124.238 705.749 123.665 705.172 123.071 704.627C123.254 704.459 123.433 704.289 123.609 704.116C132.165 708 142.578 706.721 150.002 700.027C157.433 693.328 159.779 683.092 156.788 674.175C163.645 674.928 170.78 672.862 176.306 667.879C186.583 658.614 187.403 642.771 178.138 632.494C189.843 621.941 190.777 603.898 180.224 592.193C169.672 580.489 151.629 579.554 139.924 590.107Z" fill="#98CD63"/>
<path fill-rule="evenodd" clip-rule="evenodd" d="M164.542 608.631C163.627 607.929 162.317 608.102 161.615 609.017C129.989 650.254 120.23 677.475 113.673 700.827C112.798 703.942 111.983 706.979 111.181 709.963C106 729.248 101.409 746.336 85.3444 768.217C84.662 769.147 84.8623 770.453 85.7919 771.136C86.7214 771.818 88.0281 771.618 88.7105 770.688C105.26 748.146 110.04 730.335 115.228 711C116.026 708.029 116.833 705.022 117.693 701.956C124.126 679.044 133.668 652.318 164.929 611.559C165.63 610.644 165.457 609.333 164.542 608.631Z" fill="#A9E5C1"/>
<path fill-rule="evenodd" clip-rule="evenodd" d="M244.486 713.59C232.282 717.086 224.222 728.017 223.817 740.055C218.024 736.64 210.894 735.518 203.92 737.516C190.432 741.379 182.63 755.444 186.493 768.931C186.57 769.202 186.652 769.47 186.737 769.736C181.208 765.314 173.692 763.548 166.367 765.646C154.432 769.064 147.497 781.454 150.787 793.395C149.995 793.542 149.203 793.729 148.413 793.955C134.925 797.818 127.123 811.883 130.986 825.37C134.849 838.858 148.914 846.66 162.401 842.797C175.889 838.934 183.691 824.869 179.828 811.382C179.602 810.591 179.34 809.821 179.046 809.071C179.284 809 179.52 808.926 179.753 808.848C185.734 816.095 195.65 819.519 205.261 816.767C214.879 814.012 221.482 805.847 222.712 796.523C228.541 800.21 235.859 801.488 243.011 799.439C256.314 795.629 264.009 781.757 260.199 768.454C275.35 764.115 284.114 748.316 279.775 733.166C275.436 718.015 259.636 709.251 244.486 713.59Z" fill="#98CD63"/>
<path fill-rule="evenodd" clip-rule="evenodd" d="M258.467 741.045C257.953 740.013 256.7 739.593 255.667 740.106C209.143 763.261 188.419 783.429 172.272 801.529C170.118 803.943 168.051 806.313 166.021 808.641C152.895 823.691 141.265 837.026 117.223 849.628C116.202 850.163 115.808 851.425 116.343 852.446C116.878 853.468 118.14 853.862 119.162 853.326C143.93 840.344 156.047 826.442 169.201 811.351C171.222 809.032 173.268 806.685 175.388 804.309C191.231 786.551 211.541 766.732 257.528 743.845C258.56 743.331 258.981 742.078 258.467 741.045Z" fill="#A9E5C1"/>
<path d="M199.856 368.317C185.318 360.962 167.671 366.586 160.442 380.877L213.089 407.51C220.318 393.219 214.394 375.671 199.856 368.317Z" fill="#FFBBB1"/>
<path d="M191.694 392.204C181.348 412.656 189.54 437.623 209.992 447.969L205.478 456.892C180.098 444.053 169.932 413.07 182.771 387.69L191.694 392.204Z" fill="#FFE7E3"/>
<path d="M193.536 380.809C185.898 376.945 176.674 379.805 172.934 387.197L200.596 401.191C204.336 393.798 201.175 384.673 193.536 380.809Z" fill="#FFE7E3"/>
<path d="M333.777 539.507C361.821 543.224 387.568 523.503 391.284 495.46L289.73 482C286.013 510.044 305.734 535.791 333.777 539.507Z" fill="#FFEAEA"/>
<path d="M335.123 529.352C357.558 532.325 378.156 516.548 381.129 494.114L299.885 483.346C296.912 505.781 312.688 526.378 335.123 529.352Z" fill="#FFB168"/>
<path d="M339.434 493.681C339.652 493.375 340.123 493.438 340.253 493.79L342.985 501.154C344.197 504.422 341.495 507.806 338.04 507.348C334.584 506.89 332.857 502.919 334.879 500.08L339.434 493.681Z" fill="white"/>
<path d="M327.624 491.043C327.994 490.98 328.283 491.358 328.127 491.699L324.851 498.837C323.397 502.006 319.094 502.488 316.974 499.721C314.854 496.953 316.441 492.925 319.879 492.346L327.624 491.043Z" fill="white"/>
<path d="M352.32 494.905C352.258 494.535 352.635 494.246 352.977 494.403L360.115 497.679C363.283 499.133 363.766 503.436 360.998 505.556C358.231 507.675 354.202 506.088 353.624 502.651L352.32 494.905Z" fill="white"/>
</g>
</g>
<defs>
<clipPath id="clip0">
<rect width="411" height="823" fill="white"/>
</clipPath>
</defs>
</svg>
