<svg width="241" height="240" viewBox="0 0 241 240" fill="none" xmlns="http://www.w3.org/2000/svg">
<path fill-rule="evenodd" clip-rule="evenodd" d="M167.703 180.291C193.736 162.919 207.083 130.301 198.533 98.3911L53.4824 137.257C62.0325 169.167 89.9003 190.741 121.132 192.77C120.516 196.409 120.655 200.236 121.673 204.034L172.867 190.317C171.849 186.518 170.056 183.135 167.703 180.291Z" fill="#FF8B7B"/>
<path d="M80.9335 147.091C81.3118 143.784 85.5454 142.649 87.5268 145.324C88.1317 146.141 89.0484 146.671 90.0582 146.786C93.3658 147.164 94.5002 151.398 91.8249 153.379C91.0081 153.984 90.4788 154.901 90.3634 155.911C89.9851 159.218 85.7515 160.353 83.7701 157.677C83.1652 156.861 82.2485 156.331 81.2387 156.216C77.9311 155.838 76.7967 151.604 79.472 149.623C80.2888 149.018 80.818 148.101 80.9335 147.091Z" fill="white"/>
<path d="M111.121 139.002C111.542 135.635 115.871 134.475 117.92 137.18C118.533 137.991 119.46 138.516 120.471 138.621C123.821 138.969 124.973 143.268 122.245 145.244C121.422 145.841 120.883 146.759 120.756 147.768C120.335 151.135 116.006 152.295 113.957 149.589C113.344 148.779 112.417 148.254 111.406 148.149C108.056 147.801 106.904 143.502 109.631 141.526C110.455 140.929 110.994 140.011 111.121 139.002Z" fill="white"/>
<path d="M141.513 130.859C141.892 127.551 146.125 126.417 148.107 129.092C148.712 129.909 149.628 130.438 150.638 130.554C153.946 130.932 155.08 135.165 152.405 137.147C151.588 137.752 151.059 138.668 150.943 139.678C150.565 142.986 146.331 144.12 144.35 141.445C143.745 140.628 142.828 140.099 141.819 139.983C138.511 139.605 137.377 135.371 140.052 133.39C140.869 132.785 141.398 131.869 141.513 130.859Z" fill="white"/>
<path d="M172.23 122.628C172.608 119.321 176.842 118.187 178.823 120.862C179.428 121.679 180.345 122.208 181.355 122.323C184.662 122.702 185.797 126.935 183.121 128.917C182.305 129.522 181.775 130.438 181.66 131.448C181.282 134.756 177.048 135.89 175.067 133.215C174.462 132.398 173.545 131.869 172.535 131.753C169.228 131.375 168.093 127.141 170.769 125.16C171.585 124.555 172.115 123.638 172.23 122.628Z" fill="white"/>
<path d="M148.624 25.069C149.269 23.3278 151.731 23.3278 152.376 25.069L154.502 30.8161C154.705 31.3635 155.136 31.7951 155.684 31.9977L161.431 34.1243C163.172 34.7686 163.172 37.2314 161.431 37.8757L155.684 40.0023C155.136 40.2049 154.705 40.6365 154.502 41.1839L152.376 46.931C151.731 48.6722 149.269 48.6722 148.624 46.931L146.498 41.1839C146.295 40.6365 145.864 40.2049 145.316 40.0023L139.569 37.8757C137.828 37.2314 137.828 34.7686 139.569 34.1243L145.316 31.9977C145.864 31.7951 146.295 31.3635 146.498 30.8161L148.624 25.069Z" fill="#FF8B7B"/>
<path d="M77.1243 85.069C77.7686 83.3278 80.2314 83.3278 80.8757 85.069L82.057 88.2614C82.2596 88.8088 82.6912 89.2404 83.2386 89.443L86.431 90.6243C88.1722 91.2686 88.1722 93.7314 86.431 94.3757L83.2386 95.557C82.6912 95.7596 82.2596 96.1912 82.057 96.7386L80.8757 99.931C80.2314 101.672 77.7686 101.672 77.1243 99.931L75.943 96.7386C75.7404 96.1912 75.3088 95.7596 74.7614 95.557L71.569 94.3757C69.8278 93.7314 69.8278 91.2686 71.569 90.6243L74.7614 89.443C75.3088 89.2404 75.7404 88.8088 75.943 88.2614L77.1243 85.069Z" fill="#FF8B7B"/>
<path d="M41.1243 60.069C41.7686 58.3278 44.2314 58.3278 44.8757 60.069L46.057 63.2614C46.2596 63.8088 46.6912 64.2404 47.2386 64.443L50.431 65.6243C52.1722 66.2686 52.1722 68.7314 50.431 69.3757L47.2386 70.557C46.6912 70.7596 46.2596 71.1912 46.057 71.7386L44.8757 74.931C44.2314 76.6722 41.7686 76.6722 41.1243 74.931L39.943 71.7386C39.7404 71.1912 39.3088 70.7596 38.7614 70.557L35.569 69.3757C33.8278 68.7314 33.8278 66.2686 35.569 65.6243L38.7614 64.443C39.3088 64.2404 39.7404 63.8088 39.943 63.2614L41.1243 60.069Z" fill="#FF8B7B"/>
</svg>
