<svg width="201" height="200" viewBox="0 0 201 200" fill="none" xmlns="http://www.w3.org/2000/svg">
<path fill-rule="evenodd" clip-rule="evenodd" d="M119.492 156.057C142.501 148.262 159.061 126.487 159.061 100.845H42.5C42.5 126.487 59.0598 148.262 82.0683 156.057C80.8756 158.662 80.2108 161.559 80.2108 164.611L121.35 164.611C121.35 161.559 120.685 158.662 119.492 156.057Z" fill="#FF8B7B"/>
<path d="M61.106 113.733C62.054 111.329 65.4561 111.329 66.4042 113.733C66.6937 114.467 67.2746 115.048 68.0085 115.338C70.4124 116.286 70.4124 119.688 68.0085 120.636C67.2746 120.925 66.6937 121.506 66.4042 122.24C65.4561 124.644 62.054 124.644 61.106 122.24C60.8165 121.506 60.2356 120.925 59.5016 120.636C57.0977 119.688 57.0977 116.286 59.5016 115.338C60.2356 115.048 60.8165 114.467 61.106 113.733Z" fill="white"/>
<path d="M85.364 113.733C86.3563 111.293 89.8352 111.293 90.8275 113.733C91.1248 114.464 91.7139 115.044 92.4509 115.326C94.8927 116.26 94.8927 119.714 92.4509 120.648C91.7139 120.93 91.1248 121.51 90.8275 122.241C89.8352 124.68 86.3563 124.68 85.364 122.241C85.0667 121.51 84.4775 120.93 83.7405 120.648C81.2987 119.714 81.2987 116.26 83.7405 115.326C84.4775 115.044 85.0667 114.464 85.364 113.733Z" fill="white"/>
<path d="M109.787 113.733C110.735 111.329 114.138 111.329 115.086 113.733C115.375 114.467 115.956 115.048 116.69 115.338C119.094 116.286 119.094 119.688 116.69 120.636C115.956 120.925 115.375 121.506 115.086 122.24C114.138 124.644 110.735 124.644 109.787 122.24C109.498 121.506 108.917 120.925 108.183 120.636C105.779 119.688 105.779 116.286 108.183 115.338C108.917 115.048 109.498 114.467 109.787 113.733Z" fill="white"/>
<path d="M134.471 113.733C135.419 111.329 138.821 111.329 139.769 113.733C140.059 114.467 140.639 115.048 141.373 115.338C143.777 116.286 143.777 119.688 141.373 120.636C140.639 120.925 140.059 121.506 139.769 122.24C138.821 124.644 135.419 124.644 134.471 122.24C134.181 121.506 133.6 120.925 132.866 120.636C130.463 119.688 130.463 116.286 132.866 115.338C133.6 115.048 134.181 114.467 134.471 113.733Z" fill="white"/>
<path d="M138.951 31.069C139.595 29.3278 142.058 29.3278 142.702 31.069L143.861 34.2025C144.064 34.7499 144.496 35.1815 145.043 35.3841L148.177 36.5436C149.918 37.1879 149.918 39.6507 148.177 40.295L145.043 41.4545C144.496 41.657 144.064 42.0887 143.861 42.6361L142.702 45.7695C142.058 47.5108 139.595 47.5108 138.951 45.7696L137.791 42.6361C137.589 42.0887 137.157 41.657 136.609 41.4545L133.476 40.295C131.735 39.6507 131.735 37.1879 133.476 36.5436L136.609 35.3841C137.157 35.1815 137.589 34.7499 137.791 34.2025L138.951 31.069Z" fill="#FF8B7B"/>
<path d="M83.4519 77.6413C84.0962 75.9 86.559 75.9 87.2033 77.6413L87.629 78.7918C87.8316 79.3392 88.2632 79.7708 88.8106 79.9734L89.9611 80.3991C91.7024 81.0434 91.7024 83.5062 89.9611 84.1505L88.8106 84.5763C88.2632 84.7788 87.8316 85.2104 87.629 85.7579L87.2033 86.9084C86.559 88.6496 84.0962 88.6496 83.4519 86.9084L83.0261 85.7579C82.8236 85.2104 82.3919 84.7788 81.8445 84.5763L80.694 84.1505C78.9528 83.5062 78.9528 81.0434 80.694 80.3991L81.8445 79.9734C82.3919 79.7708 82.8236 79.3392 83.0261 78.7918L83.4519 77.6413Z" fill="#FF8B7B"/>
<path d="M55.5085 58.2363C56.1528 56.495 58.6156 56.495 59.2599 58.2362L59.6856 59.3867C59.8882 59.9342 60.3198 60.3658 60.8673 60.5684L62.0178 60.9941C63.759 61.6384 63.759 64.1012 62.0178 64.7455L60.8673 65.1712C60.3198 65.3738 59.8882 65.8054 59.6856 66.3529L59.2599 67.5034C58.6156 69.2446 56.1528 69.2446 55.5085 67.5034L55.0828 66.3529C54.8802 65.8054 54.4486 65.3738 53.9011 65.1712L52.7507 64.7455C51.0094 64.1012 51.0094 61.6384 52.7507 60.9941L53.9011 60.5684C54.4486 60.3658 54.8802 59.9342 55.0828 59.3867L55.5085 58.2363Z" fill="#FF8B7B"/>
</svg>
