<svg width="144" height="148" viewBox="0 0 144 148" fill="none" xmlns="http://www.w3.org/2000/svg">
<path fill-rule="evenodd" clip-rule="evenodd" d="M119.492 75.0575C118.318 72.829 116.992 70.6929 115.529 68.663L115.54 68.6675C115.345 68.3942 115.138 68.1209 114.926 67.8434C114.737 67.5921 114.547 67.3426 114.354 67.0947C113.281 65.6723 112.198 64.0573 111.813 61.745H111.809C111.524 39.9336 93.7541 22.34 71.875 22.34C49.9959 22.34 32.226 39.9336 31.941 61.745H31.9375C31.5521 64.0573 30.4695 65.6724 29.396 67.0948C29.2033 67.3426 29.0127 67.5921 28.8242 67.8433C28.6119 68.1209 28.4053 68.3942 28.21 68.6675L28.2213 68.663C26.7576 70.6929 25.432 72.829 24.2583 75.0575H119.492Z" fill="#297BA9"/>
<path fill-rule="evenodd" clip-rule="evenodd" d="M87.7435 123.106C107.909 116.45 122.463 97.4534 122.463 75.0576H21.2875C21.2875 97.4534 35.841 116.45 56.0065 123.106C54.975 125.277 54.3993 127.695 54.3993 130.244L89.3507 130.244C89.3507 127.695 88.7751 125.277 87.7435 123.106Z" fill="#FFE7E3"/>
<path d="M36.0129 85.7187C36.8413 83.6184 39.8138 83.6184 40.6421 85.7187C40.895 86.36 41.4026 86.8676 42.0438 87.1205C44.1441 87.9488 44.1441 90.9213 42.0438 91.7496C41.4026 92.0025 40.895 92.5101 40.6421 93.1513C39.8138 95.2516 36.8413 95.2517 36.0129 93.1513C35.76 92.5101 35.2525 92.0025 34.6112 91.7496C32.5109 90.9213 32.5109 87.9488 34.6112 87.1205C35.2525 86.8676 35.76 86.36 36.0129 85.7187Z" fill="#F3D5D0"/>
<path d="M57.3129 85.7187C58.1413 83.6184 61.1137 83.6184 61.9421 85.7187C62.195 86.36 62.7026 86.8676 63.3438 87.1205C65.4441 87.9488 65.4441 90.9213 63.3438 91.7496C62.7026 92.0025 62.195 92.5101 61.9421 93.1513C61.1137 95.2516 58.1413 95.2517 57.3129 93.1513C57.06 92.5101 56.5524 92.0025 55.9112 91.7496C53.8109 90.9213 53.8109 87.9488 55.9112 87.1205C56.5524 86.8676 57.06 86.36 57.3129 85.7187Z" fill="#F3D5D0"/>
<path d="M78.6129 85.7187C79.4413 83.6184 82.4138 83.6184 83.2421 85.7187C83.495 86.36 84.0026 86.8676 84.6438 87.1205C86.7441 87.9488 86.7441 90.9213 84.6438 91.7496C84.0026 92.0025 83.495 92.5101 83.2421 93.1513C82.4138 95.2516 79.4413 95.2517 78.6129 93.1513C78.36 92.5101 77.8525 92.0025 77.2112 91.7496C75.1109 90.9213 75.1109 87.9488 77.2112 87.1205C77.8525 86.8676 78.36 86.36 78.6129 85.7187Z" fill="#F3D5D0"/>
<path d="M99.9129 85.7187C100.741 83.6184 103.714 83.6184 104.542 85.7187C104.795 86.36 105.303 86.8676 105.944 87.1205C108.044 87.9488 108.044 90.9213 105.944 91.7496C105.303 92.0025 104.795 92.5101 104.542 93.1513C103.714 95.2516 100.741 95.2517 99.9129 93.1513C99.66 92.5101 99.1525 92.0025 98.5112 91.7496C96.4109 90.9213 96.4109 87.9488 98.5112 87.1205C99.1525 86.8676 99.66 86.36 99.9129 85.7187Z" fill="#F3D5D0"/>
<circle r="2.39625" transform="matrix(-1 0 0 1 55.9 44.1725)" fill="white" stroke="white" stroke-width="0.5325"/>
<circle r="2.39625" transform="matrix(-1 0 0 1 72.94 44.1725)" fill="white" stroke="white" stroke-width="0.5325"/>
<path d="M53.2375 55.355H76.135" stroke="white" stroke-width="6.39" stroke-linecap="round"/>
<path d="M88.915 83.0451C92.323 81.9801 93.7075 75.0576 89.98 75.0576H107.02C107.819 79.0513 105.423 89.9676 99.0325 94.4938C92.6425 99.0201 88.915 97.6888 88.3825 95.0263C87.9011 92.6193 89.98 90.5001 92.3763 89.1688C94.7725 87.8376 94.5062 84.9088 92.3763 85.9738C90.2463 87.0388 88.915 88.6363 87.0512 88.1038C85.1875 87.5713 84.655 84.3763 88.915 83.0451Z" fill="#297BA9"/>
<path d="M20.0012 27.6992C20.3443 26.772 21.6557 26.772 21.9988 27.6992L22.7207 29.6501C22.8286 29.9416 23.0584 30.1714 23.3499 30.2793L25.3008 31.0012C26.228 31.3443 26.228 32.6557 25.3008 32.9988L23.3499 33.7207C23.0584 33.8286 22.8286 34.0584 22.7207 34.3499L21.9988 36.3008C21.6557 37.228 20.3443 37.228 20.0012 36.3008L19.2793 34.3499C19.1714 34.0584 18.9416 33.8286 18.6501 33.7207L16.6992 32.9988C15.772 32.6557 15.772 31.3443 16.6992 31.0012L18.6501 30.2793C18.9416 30.1714 19.1714 29.9416 19.2793 29.6501L20.0012 27.6992Z" fill="white"/>
</svg>
