<svg width="144" height="148" viewBox="0 0 144 148" fill="none" xmlns="http://www.w3.org/2000/svg">
<path fill-rule="evenodd" clip-rule="evenodd" d="M76.3046 112.296C93.9094 106.485 106.615 89.9007 106.615 70.3489H18.2874C18.2874 89.9008 30.9929 106.485 48.5978 112.296C47.6972 114.191 47.1947 116.302 47.1947 118.527L77.7078 118.527C77.7078 116.302 77.2052 114.191 76.3046 112.296Z" fill="#FFE7E3"/>
<path d="M31.14 79.5466C31.8763 77.6796 34.5185 77.6796 35.2548 79.5466C35.4796 80.1166 35.9308 80.5678 36.5008 80.7926C38.3678 81.5289 38.3678 84.1711 36.5008 84.9074C35.9308 85.1322 35.4796 85.5833 35.2548 86.1533C34.5185 88.0203 31.8763 88.0203 31.14 86.1533C30.9152 85.5833 30.464 85.1322 29.894 84.9074C28.0271 84.1711 28.0271 81.5289 29.894 80.7926C30.464 80.5678 30.9152 80.1166 31.14 79.5466Z" fill="#F3D5D0"/>
<path d="M49.7775 79.5466C50.5138 77.6796 53.156 77.6796 53.8923 79.5466C54.1171 80.1166 54.5683 80.5678 55.1383 80.7926C57.0052 81.5289 57.0052 84.1711 55.1383 84.9074C54.5683 85.1322 54.1171 85.5833 53.8923 86.1533C53.156 88.0203 50.5138 88.0203 49.7775 86.1533C49.5527 85.5833 49.1015 85.1322 48.5315 84.9074C46.6646 84.1711 46.6646 81.5289 48.5315 80.7926C49.1015 80.5678 49.5527 80.1166 49.7775 79.5466Z" fill="#F3D5D0"/>
<path d="M68.2038 79.5708C68.906 77.7328 71.5063 77.7328 72.2085 79.5708C72.4204 80.1253 72.8567 80.5688 73.4066 80.7927C75.243 81.5403 75.243 84.1596 73.4066 84.9072C72.8567 85.1311 72.4204 85.5746 72.2085 86.1291C71.5063 87.9671 68.906 87.9671 68.2038 86.1291C67.9919 85.5746 67.5555 85.1311 67.0057 84.9072C65.1692 84.1596 65.1692 81.5403 67.0057 80.7927C67.5555 80.5688 67.9919 80.1253 68.2038 79.5708Z" fill="#F3D5D0"/>
<path d="M86.8413 79.5708C87.5435 77.7328 90.1438 77.7328 90.846 79.5708C91.0579 80.1253 91.4943 80.5688 92.0441 80.7927C93.8805 81.5403 93.8805 84.1596 92.0441 84.9072C91.4943 85.1311 91.0579 85.5746 90.846 86.1291C90.1438 87.9671 87.5435 87.9671 86.8413 86.1291C86.6294 85.5746 86.1931 85.1311 85.6432 84.9072C83.8068 84.1596 83.8068 81.5403 85.6432 80.7927C86.1931 80.5688 86.6294 80.1253 86.8413 79.5708Z" fill="#F3D5D0"/>
<path fill-rule="evenodd" clip-rule="evenodd" d="M103.865 69.1258C103.865 61.3144 101.365 54.0871 97.1203 48.2007L97.1278 48.2037C96.9975 48.0213 96.8596 47.8389 96.7179 47.6536C96.5929 47.487 96.4665 47.3215 96.3386 47.1571C95.6236 46.2097 94.9023 45.1341 94.6456 43.5938H94.6432C94.4534 29.0687 82.6197 17.3525 68.0496 17.3525C53.4795 17.3525 41.6458 29.0687 41.456 43.5938H41.4537C41.1972 45.1329 40.4768 46.2082 39.7622 47.1551C39.633 47.3212 39.5053 47.4884 39.379 47.6568C39.2382 47.841 39.101 48.0223 38.9715 48.2037L38.979 48.2007C34.7345 54.0871 32.2338 61.3144 32.2338 69.1258C32.2338 69.5351 32.2407 69.9429 32.2543 70.3489H103.845C103.859 69.9429 103.865 69.5351 103.865 69.1258Z" fill="#8E8C8B"/>
<circle r="1.6582" transform="matrix(-1 0 0 1 64.5918 28.8881)" fill="white"/>
<circle r="1.6582" transform="matrix(-1 0 0 1 75.2043 28.8881)" fill="white"/>
<path fill-rule="evenodd" clip-rule="evenodd" d="M130.406 120.719C130.406 114.532 128.425 108.807 125.063 104.145L125.069 104.147C124.965 104.002 124.856 103.858 124.744 103.711C124.645 103.579 124.545 103.448 124.444 103.319C123.878 102.568 123.306 101.716 123.103 100.496H123.101C122.95 88.9906 113.577 79.7103 102.036 79.7103C90.4957 79.7103 81.1225 88.9906 80.9721 100.496H80.9704C80.7671 101.715 80.1961 102.567 79.63 103.317C79.5281 103.448 79.4274 103.58 79.3278 103.713C79.216 103.859 79.1071 104.003 79.0042 104.147L79.0102 104.145C75.6482 108.807 73.6674 114.532 73.6674 120.719C73.6674 123.665 74.1164 126.506 74.9498 129.178H129.123C129.957 126.506 130.406 123.665 130.406 120.719Z" fill="#8E8C8B"/>
<circle r="1.84988" transform="matrix(-1 0 0 1 95.5318 93.6902)" fill="white"/>
<circle r="1.84988" transform="matrix(-1 0 0 1 107.371 93.6902)" fill="white"/>
<path fill-rule="evenodd" clip-rule="evenodd" d="M87.7959 70.3489C86.9679 68.7768 86.0327 67.2698 85.0001 65.8378L85.0081 65.841C84.8699 65.6475 84.7236 65.454 84.5733 65.2575C84.4412 65.0814 84.3076 64.9065 84.1725 64.7328C83.4148 63.729 82.6505 62.5894 82.3785 60.9574H82.376C82.1749 45.5701 69.6388 33.1584 54.2038 33.1584C38.7688 33.1584 26.2327 45.5701 26.0317 60.9574H26.0293C25.7575 62.588 24.9943 63.727 24.2373 64.7302C24.1005 64.9061 23.9652 65.0832 23.8314 65.2616C23.6822 65.4567 23.5369 65.6488 23.3997 65.841L23.4076 65.8378C22.375 67.2698 21.4399 68.7768 20.6118 70.3489H87.7959Z" fill="#297BA9"/>
<circle r="1.62945" transform="matrix(-1 0 0 1 41.7494 48.5525)" fill="white"/>
<circle r="1.62945" transform="matrix(-1 0 0 1 52.1779 48.5525)" fill="white"/>
<path fill-rule="evenodd" clip-rule="evenodd" d="M49.52 70.3489H100.726C99.1454 57.6148 88.2852 47.7591 75.1232 47.7591C61.9611 47.7591 51.1009 57.6148 49.52 70.3489Z" fill="#FF8B7B"/>
<circle r="1.62945" transform="matrix(-1 0 0 1 72.1018 58.9194)" fill="white"/>
<circle r="1.62945" transform="matrix(-1 0 0 1 82.5303 58.9194)" fill="white"/>
<path d="M60.5708 76.0393C61.8029 74.4992 60.5708 70.6025 64.0825 70.3363C67.5941 70.07 61.42 66.875 61.42 66.875L56.7766 64.8822C56.7766 64.8822 54.9171 67.9039 54.6847 71.8554C54.3004 78.3897 59.6411 77.2015 60.5708 76.0393Z" fill="#FF8B7B"/>
<path fill-rule="evenodd" clip-rule="evenodd" d="M101.631 111.698C101.667 111.721 101.704 111.745 101.742 111.767L105.261 113.798C106.594 114.568 108.261 113.606 108.261 112.066V108.003C108.261 106.463 106.594 105.501 105.261 106.271L101.742 108.303C101.704 108.325 101.667 108.348 101.63 108.372C101.594 108.348 101.557 108.325 101.519 108.303L98 106.271C96.6667 105.501 95 106.463 95 108.003V112.066C95 113.606 96.6667 114.568 98 113.798L101.519 111.767C101.557 111.745 101.594 111.722 101.631 111.698Z" fill="#FF8B7B"/>
</svg>
