<svg width="268" height="290" viewBox="0 0 268 290" fill="none" xmlns="http://www.w3.org/2000/svg">
<g clip-path="url(#clip0)">
<path d="M33.4832 173.776C34.2444 174.62 34.9516 175.47 35.5988 176.314C34.5015 172.479 34.6765 169.434 36.3445 168.429C39.0623 166.792 44.7148 171.192 48.9698 178.256C51.1668 181.903 52.5616 185.548 53.0227 188.446C53.5027 190.06 53.5472 191.361 53.078 192.13C52.3112 194.843 49.0522 198.758 44.4396 202.191C44.212 202.36 43.9841 202.526 43.7563 202.688C43.2154 203.136 42.6507 203.58 42.0645 204.016C35.7058 208.748 29.223 210.799 27.5847 208.598C26.1119 206.619 29.056 201.876 34.2859 197.5C32.6148 198.029 30.7655 198.484 28.8047 198.831C27.6218 199.04 26.4633 199.197 25.3458 199.306C24.5483 199.551 23.7026 199.755 22.8212 199.911C17.225 200.899 12.3084 199.549 11.8397 196.895C11.4763 194.838 13.8938 192.6 17.6069 191.238C11.0246 188.202 6.86393 183.42 8.17413 180.185C9.57113 176.737 16.6589 176.353 24.0051 179.329C24.3796 179.481 24.7474 179.639 25.1082 179.801C25.2787 179.741 25.4553 179.685 25.6377 179.634C20.7289 173.957 18.3224 168.126 20.2461 166.39C22.2468 164.585 28.1733 167.891 33.4832 173.776Z" fill="#A9E6C1"/>
<path fill-rule="evenodd" clip-rule="evenodd" d="M24.9465 186.566C25.0571 185.88 25.7025 185.414 26.3879 185.525C38.9345 187.55 69.3793 193.964 90.7058 203.451C91.3402 203.733 91.6257 204.477 91.3435 205.111C91.0613 205.745 90.3182 206.031 89.6838 205.749C68.6555 196.394 38.4644 190.021 25.9873 188.007C25.3018 187.897 24.8358 187.251 24.9465 186.566Z" fill="#98CD63"/>
<path fill-rule="evenodd" clip-rule="evenodd" d="M53.0119 99.7986C58.2033 105.562 58.8396 113.836 55.1515 120.204C59.2587 120.311 63.316 122.039 66.283 125.332C72.0204 131.701 71.5083 141.516 65.1391 147.253C65.0114 147.368 64.8823 147.481 64.7518 147.591C69.0488 147.09 73.5151 148.609 76.6309 152.068C81.7079 157.704 81.289 166.37 75.7175 171.491C76.0802 171.824 76.4304 172.177 76.7666 172.55C82.504 178.92 81.9918 188.734 75.6227 194.471C69.2535 200.209 59.4392 199.697 53.7018 193.327C47.9644 186.958 48.4765 177.144 54.8457 171.406C55.2189 171.07 55.6039 170.756 55.9993 170.462C55.8989 170.349 55.8008 170.234 55.7049 170.118C50.259 171.936 44.0123 170.499 39.9241 165.961C35.8327 161.419 35.0556 155.05 37.4379 149.82C33.2234 149.843 29.0181 148.136 25.9754 144.758C20.3166 138.476 20.8217 128.796 27.1035 123.137C20.6588 115.983 21.2341 104.958 28.3885 98.5137C35.5429 92.069 46.5672 92.6442 53.0119 99.7986Z" fill="#A9E5C1"/>
<path fill-rule="evenodd" clip-rule="evenodd" d="M36.8774 109.497C37.4779 109.128 38.2634 109.316 38.6319 109.917C55.2394 136.98 59.4461 154.141 61.9515 168.748C62.2857 170.697 62.5891 172.594 62.8873 174.458C64.8145 186.506 66.522 197.182 74.8984 211.497C75.2543 212.105 75.0498 212.886 74.4416 213.242C73.8335 213.598 73.0521 213.394 72.6963 212.785C64.0667 198.038 62.2903 186.911 60.3619 174.832C60.0656 172.976 59.7657 171.097 59.4368 169.18C56.9786 154.848 52.8729 138.002 36.4573 111.251C36.0888 110.651 36.2768 109.865 36.8774 109.497Z" fill="#98CD63"/>
<path fill-rule="evenodd" clip-rule="evenodd" d="M252.883 131.092C252.845 131.148 252.807 131.204 252.768 131.26C252.88 131.33 252.991 131.403 253.102 131.477C260.189 136.229 262.081 145.826 257.33 152.913C254.456 157.199 249.811 159.585 245.02 159.751C244.933 163.122 243.92 166.509 241.903 169.518C236.238 177.967 224.795 180.224 216.345 174.559C213.479 172.637 211.325 170.051 209.952 167.142C206.024 168.444 201.558 167.983 197.856 165.5C191.496 161.236 189.797 152.623 194.061 146.262C196.62 142.446 200.745 140.308 205.009 140.13C203.198 134.911 203.772 128.935 207.085 123.993C212.69 115.634 224.01 113.402 232.369 119.006C232.502 119.095 232.633 119.186 232.763 119.278C232.972 118.868 233.208 118.467 233.47 118.075C237.065 112.715 244.324 111.283 249.685 114.877C255.045 118.472 256.477 125.731 252.883 131.092Z" fill="#98CD63"/>
<path d="M238.594 133.196C220.594 141.877 198.792 157.182 180.683 174.855C179.07 176.429 179.34 179.079 181.212 180.334C182.92 181.48 185.239 180.974 186.434 179.301C193.246 169.772 210.273 151.162 238.594 133.196Z" fill="#A9E6C1"/>
<path fill-rule="evenodd" clip-rule="evenodd" d="M232.164 93.6565C234.674 89.5724 243.329 82.0684 257.875 84.7259C255.594 89.1118 247.259 97.0382 232.164 93.6565ZM217.292 103.922C221.578 101.056 241.472 97.8598 243.525 104.708C244.13 107.953 231.945 113.791 217.292 103.922ZM194.274 125.928C198.432 123.441 211.857 123.163 223.406 132.457C219.305 135.324 205.961 136.134 194.274 125.928ZM193.441 124.725C188.792 123.363 172.607 105.288 179.306 95.5146C184.196 96.5759 192.991 109.215 193.441 124.725ZM215.702 103.702C212.75 99.474 208.842 78.3292 215.648 76.14C218.88 75.4699 223.403 89.6096 215.702 103.702ZM208.049 112.599C212.969 111.057 235.158 113.835 235.198 120.984C234.865 124.268 218.493 122.81 208.049 112.599ZM177.624 148.775C182.544 147.233 209.302 150.166 209.342 157.316C209.009 160.599 188.067 158.986 177.624 148.775ZM205.94 112.218C201.351 109.868 188.879 94.0432 193.863 88.9173C196.403 86.8095 207.433 94.6147 205.94 112.218ZM184.615 136.343C179.584 135.754 165.742 121.096 170.726 115.97C173.266 113.862 183.432 123.155 184.615 136.343ZM170.535 164.799C174.231 161.335 199.05 163.358 199.752 170.473C200.252 175.545 181.376 172.402 170.535 164.799ZM176.655 150.505C171.624 149.916 156.102 133.109 161.086 127.983C163.626 125.875 175.472 137.317 176.655 150.505Z" fill="#A9E6C1"/>
<path fill-rule="evenodd" clip-rule="evenodd" d="M237.479 91.7425C237.659 92.2735 237.375 92.8504 236.844 93.0309C223.624 97.5244 208.257 110.068 194.87 126.237C181.5 142.385 170.223 162.007 165.1 180.493C164.95 181.034 164.391 181.35 163.85 181.2C163.31 181.051 162.993 180.491 163.143 179.951C168.361 161.123 179.802 141.251 193.305 124.942C206.791 108.654 222.451 95.7778 236.19 91.1078C236.721 90.9273 237.298 91.2114 237.479 91.7425Z" fill="#98CD63"/>
<path fill-rule="evenodd" clip-rule="evenodd" d="M229.801 168.687C229.801 148.018 223.184 128.894 211.953 113.318L211.973 113.326C211.629 112.845 211.265 112.363 210.891 111.874C210.559 111.431 210.223 110.991 209.883 110.554C207.991 108.048 206.084 105.202 205.405 101.128H205.398C204.896 62.6942 173.584 31.6926 135.031 31.6926C96.4777 31.6926 65.1654 62.6942 64.6631 101.128H64.657C63.9779 105.203 62.07 108.049 60.1785 110.555C59.839 110.991 59.5032 111.431 59.1712 111.874C58.7971 112.363 58.4328 112.844 58.0888 113.326L58.1087 113.318C46.8777 128.894 40.2607 148.018 40.2607 168.687C40.2607 207.888 64.0625 241.531 98.0027 255.95H172.059C205.999 241.531 229.801 207.888 229.801 168.687Z" fill="#FF8B7B"/>
<circle r="4.69159" transform="matrix(-1 0 0 1 119.691 70.1636)" fill="#FFE7E3"/>
<circle r="4.69159" transform="matrix(-1 0 0 1 149.718 70.1636)" fill="#FFE7E3"/>
<path d="M115 89.8682H155.348" stroke="#FFE7E3" stroke-width="12" stroke-linecap="round"/>
<path d="M85.3784 162.784C86.0821 163.067 86.7555 163.37 87.391 163.686C85.6088 161.708 84.8212 159.831 85.527 158.739C86.677 156.961 91.3562 157.942 95.9784 160.931C98.365 162.475 100.27 164.252 101.396 165.854C102.157 166.682 102.565 167.449 102.509 168.048C102.844 169.899 102.037 173.202 100.277 176.612C100.19 176.781 100.102 176.947 100.013 177.111C99.8203 177.538 99.6118 177.97 99.3881 178.403C96.9619 183.105 93.6755 186.235 92.0477 185.395C90.5844 184.64 90.9598 180.933 92.8135 176.776C91.9663 177.583 90.9909 178.398 89.9165 179.18C89.2684 179.652 88.6199 180.086 87.9817 180.479C87.575 180.86 87.1278 181.23 86.6448 181.582C83.5786 183.815 80.2346 184.446 79.1757 182.992C78.3546 181.865 79.1485 179.815 80.976 177.909C76.1387 178.018 72.242 176.37 72.0797 174.046C71.9066 171.568 76.0447 169.261 81.3223 168.893C81.5913 168.874 81.8581 168.86 82.1221 168.852C82.2066 168.766 82.2962 168.681 82.3906 168.597C77.7828 166.631 74.6307 163.84 75.2755 162.235C75.9461 160.566 80.4693 160.812 85.3784 162.784Z" fill="#A9E6C1"/>
<path fill-rule="evenodd" clip-rule="evenodd" d="M84.0079 172.956C83.8733 172.513 84.1237 172.044 84.5672 171.909C92.6846 169.446 112.822 164.369 128.392 163.807C128.855 163.791 129.244 164.153 129.261 164.616C129.277 165.079 128.915 165.468 128.452 165.485C113.1 166.039 93.127 171.066 85.0546 173.516C84.6111 173.65 84.1424 173.4 84.0079 172.956Z" fill="#98CD63"/>
<path fill-rule="evenodd" clip-rule="evenodd" d="M88.8172 133.828C84.2285 132.442 74.7671 125.984 73.6307 111.241C78.453 112.329 88.2414 118.37 88.8172 133.828ZM102.533 145.594C98.6695 142.179 90.5104 123.756 96.61 120.026C99.5932 118.614 108.344 128.91 102.533 145.594ZM129.677 162.245C126.213 158.858 122.524 145.947 128.569 132.411C132.386 135.646 136.569 148.344 129.677 162.245ZM128.726 163.357C128.594 168.2 115.239 188.456 104.081 184.468C103.862 179.469 113.843 167.744 128.726 163.357ZM102.726 147.188C99.3891 151.119 79.938 160.286 76.0869 154.262C74.6155 151.308 87.1362 143.331 102.726 147.188ZM113.279 152.321C110.534 147.956 107.567 125.792 114.47 123.932C117.73 123.417 120.492 139.62 113.279 152.321ZM156.013 172.525C153.268 168.16 149.287 141.538 156.19 139.678C159.45 139.163 163.226 159.825 156.013 172.525ZM113.447 154.458C112.344 159.494 100.22 175.586 93.993 172.073C91.3076 170.154 96.045 157.499 113.447 154.458ZM142.21 168.932C142.922 173.947 132.274 191.067 126.048 187.553C123.362 185.634 129.758 173.437 142.21 168.932ZM173.314 175.297C169.023 172.606 164.655 148.09 171.357 145.599C176.134 143.823 177.904 162.877 173.314 175.297ZM157.933 173.021C158.645 178.036 146.347 197.328 140.12 193.814C137.435 191.895 145.481 177.525 157.933 173.021Z" fill="#297BA9"/>
<path fill-rule="evenodd" clip-rule="evenodd" d="M85.6124 129.177C86.0799 128.867 86.7101 128.995 87.0199 129.462C94.7333 141.101 110.778 152.765 129.824 161.59C148.846 170.405 170.693 176.31 189.875 176.554C190.436 176.561 190.884 177.022 190.877 177.583C190.87 178.143 190.41 178.592 189.849 178.585C170.313 178.337 148.182 172.336 128.97 163.433C109.784 154.543 93.3432 142.68 85.3269 130.584C85.017 130.117 85.1449 129.486 85.6124 129.177Z" fill="#19468A"/>
<path fill-rule="evenodd" clip-rule="evenodd" d="M125.275 161.115C129.896 159.554 134.832 161.249 137.59 164.965C138.676 162.621 140.684 160.709 143.325 159.816C148.433 158.091 153.972 160.833 155.697 165.94C155.732 166.043 155.765 166.145 155.796 166.248C156.578 163.642 158.568 161.442 161.342 160.505C165.861 158.978 170.76 161.38 172.329 165.873C172.611 165.747 172.902 165.633 173.202 165.531C178.309 163.806 183.848 166.548 185.573 171.655C187.299 176.763 184.557 182.302 179.45 184.027C174.342 185.753 168.803 183.011 167.078 177.903C166.977 177.604 166.891 177.303 166.82 177.002C166.729 177.031 166.639 177.06 166.548 177.086C166.24 180.684 163.854 183.932 160.214 185.162C156.572 186.392 152.701 185.253 150.276 182.574C149.238 185.013 147.204 187.016 144.496 187.931C139.458 189.633 133.995 186.929 132.293 181.891C126.556 183.829 120.334 180.749 118.396 175.012C116.458 169.275 119.538 163.053 125.275 161.115Z" fill="#A9E5C1"/>
<path fill-rule="evenodd" clip-rule="evenodd" d="M126.853 172.848C126.787 172.411 127.078 172.008 127.503 171.95C146.637 169.319 157.279 171.274 166.085 173.553C167.259 173.857 168.397 174.166 169.516 174.469C176.746 176.429 183.152 178.166 193.177 177.008C193.603 176.959 193.994 177.275 194.051 177.714C194.107 178.153 193.808 178.548 193.382 178.597C183.055 179.79 176.378 177.978 169.131 176.011C168.017 175.709 166.89 175.403 165.734 175.104C157.095 172.867 146.654 170.935 127.741 173.535C127.316 173.594 126.919 173.286 126.853 172.848Z" fill="#98CD63"/>
<path fill-rule="evenodd" clip-rule="evenodd" d="M142.312 116.461C148.05 118.776 151.401 124.484 150.986 130.34C153.968 128.979 157.48 128.798 160.76 130.121C167.101 132.679 170.169 139.893 167.611 146.235C167.559 146.362 167.506 146.488 167.451 146.612C170.356 144.75 174.089 144.276 177.533 145.665C183.145 147.929 185.877 154.287 183.675 159.908C184.052 160.02 184.426 160.15 184.798 160.3C191.139 162.858 194.207 170.072 191.649 176.414C189.091 182.756 181.876 185.823 175.535 183.265C169.193 180.707 166.126 173.492 168.684 167.151C168.834 166.779 169 166.419 169.18 166.07C169.069 166.024 168.958 165.976 168.849 165.926C165.581 169.135 160.6 170.291 156.082 168.469C151.56 166.644 148.774 162.351 148.652 157.768C145.638 159.26 142.026 159.507 138.663 158.15C132.409 155.628 129.383 148.512 131.906 142.257L131.906 142.257C124.783 139.384 121.338 131.28 124.211 124.156C127.084 117.033 135.188 113.588 142.312 116.461Z" fill="#A9E5C1"/>
<path fill-rule="evenodd" clip-rule="evenodd" d="M134.14 129.059C134.441 128.585 135.07 128.445 135.544 128.746C156.919 142.335 165.94 153.164 172.848 162.759C173.769 164.039 174.65 165.292 175.516 166.524C181.114 174.487 186.073 181.542 197.087 188.872C197.555 189.183 197.682 189.815 197.371 190.283C197.059 190.751 196.428 190.878 195.96 190.566C184.613 183.014 179.446 175.66 173.837 167.676C172.975 166.449 172.103 165.207 171.196 163.948C164.419 154.535 155.581 143.895 134.452 130.464C133.978 130.162 133.838 129.533 134.14 129.059Z" fill="#98CD63"/>
<path d="M166.583 163.687C172.859 164.122 186.368 154.286 175.794 140.086L197.5 120L220 150C218.752 157.067 189.245 185.626 175.856 188.962C162.467 192.298 157.201 187.724 158.032 183.013C158.784 178.753 163.555 176.606 168.341 175.956C173.127 175.306 174.567 170.328 170.388 170.712C166.209 171.095 163 172.865 160.282 170.797C157.564 168.728 158.737 163.143 166.583 163.687Z" fill="url(#paint0_linear)"/>
<path d="M42.1374 37.069C42.7817 35.3278 45.2445 35.3278 45.8888 37.069L47.7488 42.0957C47.9514 42.6431 48.383 43.0748 48.9305 43.2773L53.9571 45.1374C55.6984 45.7817 55.6984 48.2445 53.9571 48.8888L48.9305 50.7488C48.383 50.9514 47.9514 51.383 47.7488 51.9305L45.8888 56.9571C45.2445 58.6984 42.7817 58.6984 42.1374 56.9571L40.2773 51.9305C40.0748 51.383 39.6431 50.9514 39.0957 50.7488L34.069 48.8888C32.3278 48.2445 32.3278 45.7817 34.069 45.1374L39.0957 43.2773C39.6431 43.0748 40.0748 42.6431 40.2773 42.0957L42.1374 37.069Z" fill="white"/>
<path d="M213.853 14.069C214.498 12.3278 216.96 12.3278 217.605 14.069L218.578 16.6986C218.78 17.246 219.212 17.6777 219.759 17.8802L222.389 18.8533C224.13 19.4976 224.13 21.9604 222.389 22.6047L219.759 23.5777C219.212 23.7803 218.78 24.2119 218.578 24.7593L217.605 27.3889C216.96 29.1302 214.498 29.1302 213.853 27.3889L212.88 24.7593C212.678 24.2119 212.246 23.7803 211.699 23.5777L209.069 22.6047C207.328 21.9604 207.328 19.4976 209.069 18.8533L211.699 17.8802C212.246 17.6777 212.678 17.246 212.88 16.6986L213.853 14.069Z" fill="white"/>
<path d="M51.0998 197.512L33.4956 204.999C32.5767 205.39 32.0083 206.322 32.082 207.318L33.493 226.396C35.2289 249.867 59.1707 264.968 81.0993 256.425L100.276 248.954C101.255 248.572 101.859 247.582 101.749 246.536L99.6032 226.068C97.1495 202.662 72.7566 188.301 51.0998 197.512Z" fill="#FFB168"/>
<circle cx="44.5379" cy="216.395" r="2.62477" transform="rotate(31.3647 44.5379 216.395)" fill="#C54635"/>
<circle cx="54.7174" cy="219.867" r="2.62477" transform="rotate(31.3647 54.7174 219.867)" fill="#C54635"/>
<circle cx="46.1552" cy="228.31" r="2.62477" transform="rotate(31.3647 46.1552 228.31)" fill="#C54635"/>
<path fill-rule="evenodd" clip-rule="evenodd" d="M150.883 221.092C150.845 221.148 150.807 221.204 150.768 221.26C150.88 221.33 150.991 221.403 151.102 221.477C158.189 226.229 160.081 235.826 155.33 242.913C152.456 247.199 147.811 249.585 143.02 249.751C142.933 253.122 141.92 256.509 139.903 259.518C134.238 267.967 122.795 270.224 114.345 264.559C111.479 262.637 109.325 260.051 107.952 257.142C104.024 258.444 99.5583 257.983 95.8557 255.5C89.4956 251.236 87.7968 242.623 92.0613 236.262C94.6202 232.446 98.7448 230.308 103.009 230.13C101.198 224.911 101.772 218.935 105.085 213.993C110.69 205.634 122.01 203.402 130.369 209.006C130.502 209.095 130.633 209.186 130.763 209.278C130.972 208.868 131.208 208.467 131.47 208.075C135.065 202.715 142.324 201.283 147.685 204.877C153.045 208.472 154.477 215.731 150.883 221.092Z" fill="#98CD63"/>
<path d="M136.594 223.196C118.594 231.877 96.7922 247.182 78.6831 264.855C77.0695 266.429 77.3397 269.079 79.2123 270.334C80.9202 271.48 83.2385 270.974 84.4343 269.301C91.2457 259.772 108.273 241.162 136.594 223.196Z" fill="#A9E6C1"/>
<path d="M133.193 269.679C132.479 269.424 131.794 269.147 131.147 268.856C133.005 270.763 133.865 272.608 133.202 273.726C132.122 275.548 127.409 274.75 122.673 271.943C120.228 270.494 118.256 268.793 117.068 267.235C116.276 266.438 115.838 265.688 115.871 265.087C115.463 263.25 116.141 259.918 117.767 256.442C117.847 256.27 117.928 256.1 118.011 255.933C118.187 255.499 118.379 255.059 118.585 254.617C120.826 249.825 123.988 246.569 125.648 247.345C127.139 248.043 126.909 251.761 125.218 255.987C126.033 255.148 126.976 254.296 128.019 253.472C128.649 252.975 129.28 252.516 129.902 252.098C130.294 251.703 130.726 251.315 131.195 250.945C134.172 248.594 137.489 247.833 138.603 249.244C139.468 250.339 138.754 252.418 137.003 254.393C141.832 254.097 145.79 255.592 146.043 257.907C146.312 260.376 142.267 262.843 137.008 263.417C136.74 263.446 136.474 263.47 136.21 263.488C136.129 263.578 136.043 263.667 135.952 263.754C140.633 265.539 143.892 268.205 143.31 269.834C142.705 271.528 138.175 271.458 133.193 269.679Z" fill="#A9E6C1"/>
<path fill-rule="evenodd" clip-rule="evenodd" d="M134.166 259.461C134.318 259.899 134.086 260.377 133.648 260.529C125.633 263.306 105.709 269.165 90.1726 270.333C89.7105 270.368 89.3076 270.021 89.2729 269.559C89.2381 269.097 89.5846 268.694 90.0468 268.659C105.366 267.507 125.128 261.705 133.098 258.943C133.536 258.791 134.014 259.023 134.166 259.461Z" fill="#98CD63"/>
<path d="M188.876 251.909L188.72 252.319C184.778 262.685 172.9 267.567 162.808 262.97C155.755 259.758 151.63 252.876 151.63 244.875C151.63 234.882 153.855 220.678 159.787 218.263C165.739 215.84 175.456 222.108 184.719 231.854C189.841 237.692 191.521 244.953 188.876 251.909Z" fill="#FFEAEA"/>
<circle cx="171.852" cy="248.312" r="9.92687" transform="rotate(-22.1506 171.852 248.312)" fill="#FFB168"/>
<ellipse cx="37.6304" cy="255.71" rx="10.9574" ry="12.8282" transform="rotate(-23.0395 37.6304 255.71)" fill="#FFC6C6"/>
<ellipse cx="37.8864" cy="247.86" rx="2.52538" ry="2.9014" transform="rotate(-37.3666 37.8864 247.86)" fill="#FFA296"/>
<ellipse cx="65.3555" cy="251.796" rx="10.9574" ry="12.8282" transform="rotate(-133.982 65.3555 251.796)" fill="#FFC6C6"/>
<ellipse cx="59.0556" cy="253.426" rx="2.52538" ry="2.9014" transform="rotate(-148.309 59.0556 253.426)" fill="#FFA296"/>
<path d="M227.178 174.504C228.619 169.461 234.102 166.769 238.973 168.712C239.095 168.761 239.148 168.904 239.087 169.02L224.694 196.6L221.257 195.229L227.178 174.504Z" fill="#FFC6C6"/>
<path d="M233.398 184.525C236.68 180.498 242.755 180.273 246.325 184.046C246.414 184.141 246.4 184.292 246.295 184.368L226.594 198.686L224.05 195.997L233.398 184.525Z" fill="#FFC6C6"/>
<path d="M209.814 178.276C209.749 178.164 209.799 178.021 209.919 177.975C214.721 176.097 220.067 178.938 221.198 183.967L223.665 194.929L220.218 196.277L209.814 178.276Z" fill="#FFC6C6"/>
<path d="M207.041 238.511C194.158 233.371 187.882 218.761 193.022 205.879C198.162 192.997 212.772 186.72 225.654 191.86C238.536 197 244.813 211.61 239.673 224.492C234.533 237.375 219.923 243.651 207.041 238.511Z" fill="#297BA9"/>
<path d="M239.575 224.738L233.311 240.438C229.325 250.427 221.89 258.657 212.355 263.633L194.765 272.813C194.319 273.046 193.793 273.072 193.326 272.886C192.858 272.699 192.495 272.318 192.332 271.842L185.892 253.074C182.402 242.901 182.674 231.814 186.66 221.825L192.924 206.124L239.575 224.738Z" fill="#FFC6C6"/>
<path d="M236.323 266.323C251.019 261.511 259.032 245.696 254.22 231L201 248.425C205.812 263.122 221.626 271.135 236.323 266.323Z" fill="#FFEAEA"/>
<path d="M234.58 261.001C246.337 257.151 252.747 244.5 248.898 232.743L206.322 246.683C210.172 258.44 222.823 264.85 234.58 261.001Z" fill="#FFB168"/>
<path d="M228.254 242.406C228.289 242.204 228.536 242.123 228.684 242.266L231.773 245.247C233.145 246.57 232.616 248.877 230.805 249.47C228.994 250.063 227.202 248.515 227.526 246.637L228.254 242.406Z" fill="white"/>
<path d="M221.811 243.904C221.979 243.785 222.21 243.903 222.214 244.108L222.291 248.401C222.325 250.306 220.32 251.563 218.62 250.702C216.92 249.841 216.747 247.48 218.304 246.381L221.811 243.904Z" fill="white"/>
<path d="M234.893 239.957C234.774 239.789 234.892 239.557 235.097 239.554L239.39 239.477C241.295 239.443 242.552 241.448 241.691 243.148C240.83 244.848 238.469 245.02 237.37 243.464L234.893 239.957Z" fill="white"/>
</g>
<defs>
<linearGradient id="paint0_linear" x1="197" y1="154.5" x2="169.654" y2="192.16" gradientUnits="userSpaceOnUse">
<stop stop-color="#FF8B7B"/>
<stop offset="1" stop-color="#FFB1A7"/>
</linearGradient>
<clipPath id="clip0">
<rect width="268" height="290" fill="white"/>
</clipPath>
</defs>
</svg>
