<svg width="268" height="290" viewBox="0 0 268 290" fill="none" xmlns="http://www.w3.org/2000/svg">
<g clip-path="url(#clip0)">
<path d="M45.5217 121.924C45.6119 123.057 45.655 124.162 45.6546 125.225C47.1193 121.515 49.112 119.206 51.0469 119.425C54.1996 119.781 56.0049 126.712 55.0793 134.907C54.6013 139.138 53.4887 142.878 52.0903 145.458C51.488 147.031 50.7313 148.09 49.8906 148.415C47.6305 150.1 42.6616 151.221 36.9127 151.136C36.6289 151.131 36.3472 151.124 36.0676 151.114C35.3658 151.14 34.6476 151.149 33.917 151.138C25.9918 151.02 19.6002 148.7 19.641 145.956C19.6777 143.489 24.9007 141.52 31.7138 141.233C30.0661 140.635 28.3219 139.87 26.5556 138.951C25.4899 138.396 24.4749 137.816 23.5221 137.222C22.7407 136.93 21.9454 136.578 21.1514 136.164C16.1103 133.541 13.0321 129.477 14.276 127.086C15.2405 125.233 18.5204 124.93 22.2953 126.11C18.9226 119.693 18.5335 113.367 21.5421 111.599C24.75 109.714 30.6059 113.725 34.6217 120.559C34.8263 120.907 35.0223 121.256 35.2094 121.605C35.3815 121.66 35.5556 121.724 35.7313 121.794C35.2939 114.302 36.9349 108.211 39.5179 108.005C42.2042 107.791 44.8922 114.023 45.5217 121.924Z" fill="#A9E6C1"/>
<path fill-rule="evenodd" clip-rule="evenodd" d="M30.9625 126.872C31.4676 126.396 32.2633 126.419 32.7397 126.924C41.4598 136.17 61.7057 159.794 72.8473 180.305C73.1787 180.915 72.9528 181.679 72.3426 182.01C71.7325 182.341 70.9692 182.115 70.6377 181.505C59.6519 161.281 39.5823 137.844 30.9105 128.649C30.4341 128.144 30.4574 127.349 30.9625 126.872Z" fill="#98CD63"/>
<path d="M33.4832 173.776C34.2444 174.62 34.9516 175.47 35.5988 176.314C34.5015 172.479 34.6765 169.434 36.3445 168.429C39.0623 166.792 44.7148 171.192 48.9698 178.256C51.1668 181.903 52.5616 185.548 53.0227 188.446C53.5027 190.06 53.5472 191.361 53.078 192.13C52.3112 194.843 49.0522 198.758 44.4396 202.191C44.212 202.36 43.9841 202.526 43.7563 202.688C43.2154 203.136 42.6507 203.58 42.0645 204.016C35.7058 208.748 29.223 210.799 27.5847 208.598C26.1119 206.619 29.056 201.876 34.2859 197.5C32.6148 198.029 30.7655 198.484 28.8047 198.831C27.6218 199.04 26.4633 199.197 25.3458 199.306C24.5483 199.551 23.7026 199.755 22.8212 199.911C17.225 200.899 12.3084 199.549 11.8397 196.895C11.4763 194.838 13.8938 192.6 17.6069 191.238C11.0246 188.202 6.86393 183.42 8.17413 180.185C9.57113 176.737 16.6589 176.353 24.0051 179.329C24.3796 179.481 24.7474 179.639 25.1082 179.801C25.2787 179.741 25.4553 179.685 25.6377 179.634C20.7289 173.957 18.3224 168.126 20.2461 166.39C22.2468 164.585 28.1733 167.891 33.4832 173.776Z" fill="#A9E6C1"/>
<path fill-rule="evenodd" clip-rule="evenodd" d="M24.9465 186.566C25.0571 185.88 25.7025 185.414 26.3879 185.525C38.9345 187.55 69.3793 193.964 90.7058 203.451C91.3402 203.733 91.6257 204.477 91.3435 205.111C91.0613 205.745 90.3182 206.031 89.6838 205.749C68.6555 196.394 38.4644 190.021 25.9873 188.007C25.3018 187.897 24.8358 187.251 24.9465 186.566Z" fill="#98CD63"/>
<path fill-rule="evenodd" clip-rule="evenodd" d="M255.703 81.3498C253.771 88.8618 247.228 93.9665 239.882 94.4144C242.064 97.8959 242.868 102.232 241.763 106.525C239.628 114.827 231.167 119.826 222.865 117.691C222.699 117.648 222.533 117.603 222.37 117.555C225.162 120.859 226.366 125.42 225.206 129.929C223.317 137.275 215.865 141.717 208.517 139.906C208.44 140.393 208.339 140.88 208.214 141.366C206.079 149.668 197.618 154.668 189.316 152.532C181.014 150.397 176.014 141.936 178.15 133.634C180.285 125.332 188.746 120.333 197.048 122.468C197.534 122.593 198.01 122.74 198.473 122.907C198.512 122.761 198.553 122.615 198.597 122.471C194.071 118.939 191.815 112.939 193.336 107.023C194.859 101.103 199.736 96.9341 205.411 96.0281C203.062 92.5289 202.16 88.0807 203.292 83.6778C205.398 75.4894 213.743 70.5586 221.931 72.6644C224.33 63.3388 233.834 57.7231 243.16 60.1215C252.485 62.5199 258.101 72.0242 255.703 81.3498Z" fill="#A9E5C1"/>
<path fill-rule="evenodd" clip-rule="evenodd" d="M238.701 73.2672C239.34 73.5638 239.618 74.3224 239.321 74.9615C225.952 103.763 213.978 116.756 203.191 126.919C201.753 128.275 200.34 129.577 198.951 130.856C189.977 139.123 182.026 146.448 174.729 161.342C174.419 161.975 173.654 162.236 173.022 161.926C172.389 161.616 172.127 160.852 172.437 160.219C179.955 144.875 188.245 137.243 197.244 128.958C198.626 127.685 200.026 126.396 201.442 125.062C212.025 115.09 223.792 102.356 237.007 73.8872C237.304 73.2481 238.062 72.9705 238.701 73.2672Z" fill="#98CD63"/>
<path fill-rule="evenodd" clip-rule="evenodd" d="M260.462 155.839C255.215 161.551 247.039 162.966 240.35 159.896C240.632 163.995 239.295 168.198 236.296 171.462C230.498 177.776 220.679 178.193 214.366 172.394C214.239 172.278 214.115 172.16 213.993 172.041C214.897 176.271 213.807 180.861 210.658 184.29C205.526 189.876 196.86 190.278 191.235 185.215C190.938 185.608 190.62 185.99 190.28 186.359C184.481 192.673 174.662 193.09 168.349 187.291C162.035 181.493 161.618 171.674 167.417 165.361C173.216 159.047 183.034 158.63 189.348 164.429C189.718 164.768 190.067 165.122 190.397 165.488C190.501 165.377 190.606 165.269 190.712 165.162C188.387 159.912 189.228 153.558 193.36 149.059C197.495 144.557 203.762 143.182 209.193 145.06C208.772 140.866 210.075 136.518 213.15 133.17C218.87 126.943 228.554 126.532 234.781 132.251C241.294 125.159 252.324 124.69 259.415 131.204C266.507 137.718 266.976 148.747 260.462 155.839Z" fill="#A9E5C1"/>
<path fill-rule="evenodd" clip-rule="evenodd" d="M249.284 140.692C249.707 141.255 249.594 142.055 249.031 142.479C223.657 161.569 206.971 167.377 192.665 171.252C190.757 171.768 188.897 172.25 187.07 172.722C175.257 175.779 164.791 178.487 151.331 188.179C150.759 188.59 149.962 188.461 149.55 187.889C149.139 187.317 149.268 186.52 149.84 186.108C163.707 176.124 174.616 173.304 186.459 170.244C188.279 169.773 190.121 169.297 191.998 168.789C206.034 164.988 222.417 159.309 247.497 140.44C248.06 140.016 248.86 140.129 249.284 140.692Z" fill="#98CD63"/>
<path fill-rule="evenodd" clip-rule="evenodd" d="M229.801 168.687C229.801 148.018 223.184 128.894 211.953 113.318L211.973 113.326C211.629 112.845 211.265 112.363 210.891 111.874C210.559 111.431 210.223 110.991 209.883 110.554C207.991 108.048 206.084 105.202 205.405 101.128H205.399C204.896 62.6942 173.584 31.6926 135.031 31.6926C96.4777 31.6926 65.1654 62.6942 64.6632 101.128H64.6571C63.978 105.203 62.0701 108.049 60.1785 110.555C59.839 110.991 59.5032 111.431 59.1713 111.874C58.7972 112.363 58.4329 112.844 58.0888 113.326L58.1088 113.318C46.8777 128.894 40.2608 148.018 40.2608 168.687C40.2608 207.888 64.0625 241.531 98.0028 255.95H172.059C205.999 241.531 229.801 207.888 229.801 168.687Z" fill="#297BA9"/>
<circle r="4.69159" transform="matrix(-1 0 0 1 106.881 70.1636)" fill="#FFE7E3"/>
<circle r="4.69159" transform="matrix(-1 0 0 1 136.908 70.1636)" fill="#FFE7E3"/>
<path d="M102.19 89.8682H142.537" stroke="#FFE7E3" stroke-width="12" stroke-linecap="round"/>
<path fill-rule="evenodd" clip-rule="evenodd" d="M238.337 181.529C237.472 186.979 232.353 190.696 226.904 189.832C221.454 188.967 217.737 183.848 218.601 178.399C218.636 178.178 218.678 177.959 218.727 177.744L198.313 174.506C194.316 173.872 191.59 170.118 192.224 166.121C192.859 162.125 196.612 159.399 200.609 160.033L221.024 163.271C222.178 158.182 227.103 154.794 232.331 155.624C237.781 156.488 241.498 161.607 240.634 167.057C240.18 169.916 238.555 172.299 236.326 173.792C237.983 175.903 238.79 178.671 238.337 181.529Z" fill="#FFEAEA"/>
<path d="M212.473 174.522C211.497 180.671 207.066 185.708 201.091 187.458L164.092 198.3C135.881 206.567 108.676 182.632 113.282 153.598C117.888 124.564 151.165 110.224 175.432 126.815L207.26 148.576C212.399 152.09 215.054 158.251 214.079 164.4L212.473 174.522Z" fill="#FFB168"/>
<rect x="133.001" y="177.633" width="6.66082" height="5.32866" rx="2.66433" transform="rotate(-143.035 133.001 177.633)" fill="white"/>
<rect x="143.152" y="161.93" width="6.66082" height="5.32866" rx="2.66433" transform="rotate(-143.035 143.152 161.93)" fill="white"/>
<rect x="127.701" y="160.306" width="6.66082" height="5.32866" rx="2.66433" transform="rotate(-143.035 127.701 160.306)" fill="white"/>
<path d="M166.737 144.335C172.743 142.458 181.75 128.383 166.737 119L198.64 130.26C200.048 137.297 195.825 156.533 184.565 164.508C173.306 172.484 166.737 170.138 165.799 165.447C164.951 161.205 168.614 157.471 172.836 155.125C177.059 152.779 176.59 147.619 172.836 149.495C169.083 151.372 166.737 154.187 163.453 153.249C160.169 152.31 159.231 146.68 166.737 144.335Z" fill="#297BA9"/>
<path d="M210.097 16.1186C210.741 14.3773 213.204 14.3773 213.849 16.1186L215.709 21.1453C215.911 21.6927 216.343 22.1243 216.89 22.3269L221.917 24.1869C223.658 24.8313 223.658 27.294 221.917 27.9383L216.89 29.7984C216.343 30.001 215.911 30.4326 215.709 30.98L213.849 36.0067C213.204 37.7479 210.741 37.7479 210.097 36.0067L208.237 30.98C208.035 30.4326 207.603 30.001 207.055 29.7984L202.029 27.9383C200.288 27.294 200.288 24.8313 202.029 24.1869L207.055 22.3269C207.603 22.1243 208.035 21.6927 208.237 21.1453L210.097 16.1186Z" fill="white"/>
<path d="M38.8542 59.2812C39.4986 57.5399 41.9613 57.5399 42.6056 59.2812L43.5787 61.9108C43.7813 62.4582 44.2129 62.8898 44.7603 63.0924L47.3899 64.0654C49.1311 64.7097 49.1311 67.1725 47.3899 67.8168L44.7603 68.7899C44.2129 68.9924 43.7813 69.4241 43.5787 69.9715L42.6056 72.6011C41.9613 74.3423 39.4986 74.3423 38.8542 72.6011L37.8812 69.9715C37.6786 69.4241 37.247 68.9924 36.6996 68.7899L34.07 67.8168C32.3288 67.1725 32.3288 64.7097 34.07 64.0654L36.6996 63.0924C37.247 62.8898 37.6786 62.4582 37.8812 61.9108L38.8542 59.2812Z" fill="white"/>
<path d="M56.4132 252.475C58.1611 253.875 60.0996 255.109 62.2108 256.137C68.2388 259.266 75.7365 261.396 83.9578 261.999C100.321 263.197 114.731 257.991 120.759 249.641C127.184 242.018 129.265 231.533 125.242 222.243C119.439 208.844 103.133 203.006 88.8211 209.204C87.87 209.616 86.9516 210.071 86.0675 210.565C85.4687 210.245 84.855 209.942 84.2268 209.658C69.9901 203.209 53.6982 208.469 47.8379 221.407C44.5694 228.623 45.236 236.702 48.9347 243.557C50.4104 246.807 52.9882 249.84 56.4132 252.475Z" fill="#FFB168"/>
<path d="M93.5428 209.552C94.2603 208.033 94.8583 206.096 95.216 203.949C96.0934 198.682 95.1935 194.144 93.206 193.813C91.2185 193.482 88.8961 197.483 88.0188 202.75C87.6339 205.06 87.591 207.23 87.8319 208.966C87.3992 207.512 86.7083 205.901 85.7831 204.281C83.135 199.645 79.5699 196.696 77.8204 197.695C76.0708 198.695 76.7992 203.263 79.4473 207.9C80.0409 208.939 80.6806 209.894 81.3355 210.738C80.0635 210.369 78.6729 210.059 77.2063 209.833C70.6109 208.813 64.9768 209.845 64.622 212.139C64.2672 214.433 69.3262 217.119 75.9216 218.139C77.9777 218.457 79.9404 218.576 81.6789 218.519C81.5382 218.909 81.4029 219.307 81.2736 219.712C79.14 226.4 79.4561 232.474 81.9798 233.28C84.5035 234.085 88.279 229.316 90.4127 222.628C90.8988 221.105 91.2577 219.613 91.4924 218.208C92.4184 219.658 93.59 221.168 94.965 222.638C99.7611 227.764 105.217 230.452 107.152 228.642C109.086 226.833 106.766 221.21 101.97 216.084C101.886 215.994 101.801 215.904 101.716 215.816C108.322 216.145 113.733 214.923 113.831 213.07C113.93 211.204 108.607 209.407 101.943 209.054C98.7022 208.883 95.7413 209.085 93.5428 209.552Z" fill="#C54635"/>
<path d="M65.8756 256.909L65.7196 257.319C61.7778 267.685 49.9001 272.567 39.8076 267.97C32.7551 264.758 28.63 257.876 28.63 249.875C28.63 239.882 30.8548 225.678 36.7867 223.263C42.7387 220.84 52.4565 227.108 61.7188 236.854C66.8414 242.692 68.5208 249.953 65.8756 256.909Z" fill="#FFEAEA"/>
<circle cx="48.8525" cy="253.312" r="9.92687" transform="rotate(-22.1506 48.8525 253.312)" fill="#FFB168"/>
<path d="M147.21 220.019C155.458 217.657 165.791 219.585 170.639 221.018C180.968 224.861 191.876 228.086 202 225.943C204.63 225.386 206.564 225.754 207.986 226.604C213.719 230.029 212.117 238.705 212.149 245.383C212.161 247.831 212.125 249.994 211.984 250.848C210.183 254.78 194.526 265.003 165.985 264.513C147.103 264.189 136.443 258.262 135.672 254.902C135.121 252.501 134.692 239.938 134.518 234.838L134.518 234.837C134.272 227.627 142.458 221.38 147.21 220.019Z" fill="#C54635"/>
<path d="M152.69 228.455C159.154 226.603 167.252 228.115 171.052 229.239C179.147 232.254 187.129 235.424 195.064 233.743C202.999 232.062 205.053 237.164 202.332 240.077C199.61 242.991 184.451 249.938 168.939 249.997C153.426 250.056 143.53 246.758 142.743 240.077C142.081 234.458 148.965 229.522 152.69 228.455Z" fill="#FF8B7B"/>
<path d="M231.683 205.305C222.389 201.97 210.375 203.404 204.699 204.684C192.546 208.319 179.775 211.2 168.308 207.974C164.523 206.909 161.916 207.645 160.12 209.109C154.945 213.329 155.806 221.368 155.296 228.027C155.036 231.423 154.848 234.658 154.963 235.825C156.735 240.477 173.946 253.399 206.763 254.991C228.474 256.043 241.164 250.041 242.304 246.239C243.117 243.524 244.558 229.127 245.142 223.283L245.142 223.281C245.969 215.02 237.039 207.226 231.683 205.305Z" fill="#C54635"/>
<path d="M224.753 214.58C217.469 211.965 208.054 213.091 203.605 214.096C194.081 216.947 184.673 219.986 175.687 217.457C166.7 214.927 163.956 220.631 166.861 224.183C169.767 227.735 186.654 236.858 204.466 238.096C222.278 239.334 233.892 236.294 235.3 228.679C236.484 222.276 228.951 216.087 224.753 214.58Z" fill="#FF8B7B"/>
<ellipse rx="7.5713" ry="4.86726" transform="matrix(-0.995035 -0.0995241 -0.0995241 0.995035 215.713 223.459)" fill="#FFEAEA"/>
<ellipse cx="131.104" cy="247.093" rx="10.9574" ry="12.8282" transform="rotate(-23.0395 131.104 247.093)" fill="#4B99C6"/>
<ellipse cx="131.36" cy="239.243" rx="2.52538" ry="2.9014" transform="rotate(-37.3666 131.36 239.243)" fill="#297BA9"/>
<ellipse cx="151.356" cy="262.796" rx="10.9574" ry="12.8282" transform="rotate(-133.982 151.356 262.796)" fill="#4B99C6"/>
<ellipse cx="145.056" cy="264.426" rx="2.52538" ry="2.9014" transform="rotate(-148.309 145.056 264.426)" fill="#297BA9"/>
<path d="M235.323 271.323C250.019 266.511 258.032 250.696 253.22 236L200 253.425C204.812 268.122 220.626 276.135 235.323 271.323Z" fill="#FFEAEA"/>
<path d="M233.58 266.001C245.337 262.151 251.747 249.5 247.898 237.743L205.322 251.683C209.171 263.44 221.823 269.85 233.58 266.001Z" fill="#FFB168"/>
<path d="M227.254 247.406C227.289 247.204 227.536 247.123 227.684 247.266L230.773 250.247C232.145 251.57 231.616 253.877 229.805 254.47C227.994 255.063 226.202 253.515 226.526 251.637L227.254 247.406Z" fill="white"/>
<path d="M220.811 248.904C220.979 248.785 221.21 248.903 221.214 249.108L221.291 253.401C221.325 255.306 219.32 256.563 217.62 255.702C215.92 254.841 215.747 252.48 217.304 251.381L220.811 248.904Z" fill="white"/>
<path d="M233.893 244.957C233.774 244.789 233.892 244.557 234.097 244.554L238.39 244.477C240.295 244.443 241.552 246.448 240.691 248.148C239.83 249.848 237.469 250.02 236.37 248.464L233.893 244.957Z" fill="white"/>
</g>
<defs>
<clipPath id="clip0">
<rect width="268" height="290" fill="white"/>
</clipPath>
</defs>
</svg>
