<svg width="144" height="148" viewBox="0 0 144 148" fill="none" xmlns="http://www.w3.org/2000/svg">
<path fill-rule="evenodd" clip-rule="evenodd" d="M88.3035 126.106C108.469 119.45 123.023 100.453 123.023 78.0575H21.8475C21.8475 100.453 36.401 119.45 56.5666 126.106C55.535 128.277 54.9594 130.695 54.9594 133.244L89.9107 133.244C89.9107 130.695 89.3351 128.277 88.3035 126.106Z" fill="#767574"/>
<path fill-rule="evenodd" clip-rule="evenodd" d="M115.839 104C106.996 118.73 90.8665 128.588 72.435 128.588C54.0036 128.588 37.8743 118.73 29.0315 104H115.839ZM119.333 97H25.5367C25.0067 95.693 24.5297 94.3587 24.1084 93H120.762C120.34 94.3587 119.863 95.693 119.333 97ZM122.394 86H22.4765C22.0626 83.3943 21.8475 80.7222 21.8475 78H123.023C123.023 80.7222 122.808 83.3943 122.394 86Z" fill="#5B5B5A"/>
<path fill-rule="evenodd" clip-rule="evenodd" d="M119.313 76.6565C119.313 67.7089 116.449 59.4303 111.587 52.6877L111.596 52.6912C111.447 52.4833 111.29 52.2754 111.128 52.0644C110.984 51.8716 110.838 51.6802 110.69 51.4902C109.871 50.4055 109.046 49.1738 108.752 47.4107H108.75C108.532 30.7729 94.9772 17.3525 78.2878 17.3525C61.5984 17.3525 48.0435 30.7729 47.826 47.4107H47.8234C47.5294 49.175 46.7031 50.4071 45.8841 51.4923C45.7377 51.6806 45.5928 51.8702 45.4496 52.0611C45.2873 52.2733 45.1293 52.4822 44.9801 52.6912L44.9887 52.6877C40.1269 59.4303 37.2625 67.7089 37.2625 76.6565C37.2625 77.1254 37.2703 77.5924 37.2859 78.0575H119.29C119.305 77.5924 119.313 77.1254 119.313 76.6565Z" fill="#FF8B7B"/>
<circle r="1.8994" transform="matrix(-1 0 0 1 74.327 30.566)" fill="white"/>
<circle r="1.8994" transform="matrix(-1 0 0 1 86.4831 30.566)" fill="white"/>
<path fill-rule="evenodd" clip-rule="evenodd" d="M100.906 78.0575C99.9578 76.2566 98.8866 74.5305 97.7038 72.8902L97.7129 72.8938C97.5551 72.6728 97.3879 72.4517 97.2162 72.2273C97.0642 72.0246 96.9104 71.8232 96.7549 71.6233C95.8873 70.4738 95.0123 69.1686 94.7008 67.2999H94.698C94.4676 49.6745 80.1081 35.4575 62.4281 35.4575C44.748 35.4575 30.3885 49.6745 30.1581 67.2999H30.1554C29.8439 69.1688 28.9687 70.474 28.1011 71.6236C27.9458 71.8233 27.7922 72.0243 27.6404 72.2267C27.4686 72.4514 27.3013 72.6726 27.1432 72.8938L27.1524 72.8901C25.9696 74.5305 24.8984 76.2566 23.95 78.0575H100.906Z" fill="#297BA9"/>
<circle r="1.86646" transform="matrix(-1 0 0 1 44.2181 53.0906)" fill="white"/>
<circle r="1.86646" transform="matrix(-1 0 0 1 56.1634 53.0906)" fill="white"/>
<path fill-rule="evenodd" clip-rule="evenodd" d="M57.0628 78.0575H115.717C113.907 63.4712 101.467 52.1819 86.3901 52.1819C71.3135 52.1819 58.8737 63.4712 57.0628 78.0575Z" fill="#8E8C8B"/>
<circle r="1.86646" transform="matrix(-1 0 0 1 76.4038 63.4164)" fill="white"/>
<circle r="1.86646" transform="matrix(-1 0 0 1 88.3491 63.4164)" fill="white"/>
<path d="M76.3707 71.6675H89.1507" stroke="white" stroke-width="3.7275" stroke-linecap="round"/>
<path d="M63.7072 82.85C65.1185 81.0858 63.2901 78.0575 65.8372 78.0575C68.3843 78.0575 65.571 75.395 65.571 75.395L59.3612 70.07C59.3612 70.07 57.2312 73.5313 56.9649 78.0575C56.5247 85.5422 62.6423 84.1813 63.7072 82.85Z" fill="#8E8C8B"/>
<path d="M108.97 82.85C110.381 81.0858 108.553 78.0575 111.1 78.0575C113.647 78.0575 110.833 75.395 110.833 75.395L102.846 72.4662C102.846 72.4662 101.373 71.7662 102.047 78.0575C102.846 85.5125 107.905 84.1812 108.97 82.85Z" fill="#8E8C8B"/>
</svg>
