<svg width="143" height="148" viewBox="0 0 143 148" fill="none" xmlns="http://www.w3.org/2000/svg">
<path fill-rule="evenodd" clip-rule="evenodd" d="M87.3035 126.106C107.469 119.45 122.023 100.453 122.023 78.0575H20.8475C20.8475 100.453 35.401 119.45 55.5666 126.106C54.535 128.277 53.9594 130.695 53.9594 133.244L88.9107 133.244C88.9107 130.695 88.3351 128.277 87.3035 126.106Z" fill="#767574"/>
<path fill-rule="evenodd" clip-rule="evenodd" d="M114.839 104C105.996 118.73 89.8665 128.588 71.435 128.588C53.0036 128.588 36.8743 118.73 28.0315 104H114.839ZM118.333 97H24.5367C24.0067 95.693 23.5297 94.3587 23.1084 93H119.762C119.34 94.3587 118.863 95.693 118.333 97ZM121.394 86H21.4765C21.0626 83.3943 20.8475 80.7222 20.8475 78H122.023C122.023 80.7222 121.808 83.3943 121.394 86Z" fill="#5B5B5A"/>
<path fill-rule="evenodd" clip-rule="evenodd" d="M118.873 76.6565C118.873 67.7089 116.009 59.4303 111.147 52.6877L111.156 52.6912C111.007 52.4833 110.85 52.2754 110.689 52.0644C110.544 51.8716 110.398 51.6802 110.25 51.4902C109.431 50.4055 108.606 49.1738 108.312 47.4107H108.31C108.092 30.7729 94.5373 17.3525 77.8479 17.3525C61.1585 17.3525 47.6036 30.7729 47.3861 47.4107H47.3835C47.0894 49.175 46.2632 50.4071 45.4442 51.4923C45.2977 51.6806 45.1529 51.8702 45.0097 52.0611C44.8474 52.2733 44.6894 52.4822 44.5402 52.6912L44.5488 52.6877C39.687 59.4303 36.8225 67.7089 36.8225 76.6565C36.8225 77.1254 36.8304 77.5924 36.846 78.0575H118.85C118.865 77.5924 118.873 77.1254 118.873 76.6565Z" fill="#FF8B7B"/>
<circle r="2.03096" transform="matrix(-1 0 0 1 73.466 30.5659)" fill="white"/>
<circle r="2.03096" transform="matrix(-1 0 0 1 86.4642 30.5659)" fill="white"/>
<path fill-rule="evenodd" clip-rule="evenodd" d="M100.466 78.0575C99.5179 76.2566 98.4467 74.5305 97.2639 72.8902L97.273 72.8938C97.1152 72.6728 96.948 72.4517 96.7763 72.2273C96.6243 72.0246 96.4705 71.8232 96.315 71.6233C95.4474 70.4738 94.5724 69.1686 94.2609 67.2999H94.2581C94.0277 49.6745 79.6682 35.4575 61.9881 35.4575C44.3081 35.4575 29.9485 49.6745 29.7182 67.2999H29.7155C29.404 69.1688 28.5288 70.474 27.6612 71.6236C27.5059 71.8233 27.3523 72.0243 27.2005 72.2267C27.0286 72.4514 26.8613 72.6726 26.7033 72.8938L26.7125 72.8901C25.5297 74.5305 24.4585 76.2566 23.51 78.0575H100.466Z" fill="#297BA9"/>
<circle r="1.92444" transform="matrix(-1 0 0 1 54.4558 53.0906)" fill="white" stroke="white" stroke-width="0.5325"/>
<circle r="1.92444" transform="matrix(-1 0 0 1 68.4761 53.0906)" fill="white" stroke="white" stroke-width="0.5325"/>
<path d="M52.2651 62.2915H71.105" stroke="white" stroke-width="5.325" stroke-linecap="round"/>
<path d="M46.7791 84.5115C44.0254 83.651 42.9066 78.0574 45.9186 78.0574H32.1498C31.5044 81.2845 33.4406 90.1051 38.6039 93.7624C43.7672 97.4197 46.7791 96.344 47.2094 94.1927C47.5984 92.2477 45.9186 90.5353 43.9823 89.4597C42.0461 88.384 42.2612 86.0175 43.9823 86.878C45.7034 87.7386 46.7791 89.0294 48.2851 88.5991C49.791 88.1688 50.2213 85.5872 46.7791 84.5115Z" fill="#297BA9"/>
<path fill-rule="evenodd" clip-rule="evenodd" d="M40.3011 45.3611C40.3444 45.3629 40.3881 45.3635 40.4324 45.3626L44.4949 45.2841C46.0342 45.2544 46.9641 43.5694 46.1686 42.2512L44.0694 38.7722C43.274 37.454 41.3498 37.4912 40.6059 38.8392L38.6427 42.3966C38.6213 42.4354 38.6013 42.4744 38.5828 42.5136C38.5395 42.5117 38.4957 42.5112 38.4515 42.5121L34.389 42.5906C32.8497 42.6203 31.9198 44.3053 32.7152 45.6235L34.8145 49.1025C35.6099 50.4207 37.534 50.3835 38.2779 49.0355L40.2412 45.478C40.2626 45.4393 40.2826 45.4003 40.3011 45.3611Z" fill="#FF8B7B"/>
</svg>
