<svg width="411" height="390" viewBox="0 0 411 390" fill="none" xmlns="http://www.w3.org/2000/svg">
<path d="M113.881 134.874C113.973 136.007 114.018 137.112 114.017 138.176C115.526 134.465 117.578 132.156 119.571 132.375C122.817 132.731 124.677 139.663 123.723 147.857C123.231 152.088 122.085 155.829 120.645 158.408C120.025 159.981 119.246 161.04 118.38 161.365C116.052 163.05 110.935 164.172 105.015 164.086C104.722 164.082 104.432 164.075 104.144 164.065C103.421 164.091 102.682 164.099 101.929 164.088C93.7676 163.97 87.1853 161.651 87.2273 158.907C87.2651 156.44 92.644 154.47 99.6605 154.183C97.9636 153.585 96.1673 152.82 94.3483 151.901C93.2508 151.347 92.2055 150.767 91.2243 150.173C90.4196 149.881 89.6005 149.528 88.7828 149.115C83.5912 146.492 80.4211 142.427 81.7021 140.037C82.6954 138.183 86.0733 137.88 89.9608 139.061C86.4875 132.644 86.0868 126.317 89.1852 124.549C92.4888 122.664 98.5195 126.676 102.655 133.509C102.866 133.857 103.068 134.206 103.26 134.555C103.438 134.611 103.617 134.674 103.798 134.745C103.347 127.252 105.037 121.162 107.698 120.956C110.464 120.742 113.232 126.973 113.881 134.874Z" fill="#A9E6C1"/>
<path fill-rule="evenodd" clip-rule="evenodd" d="M98.8867 139.823C99.4069 139.346 100.226 139.369 100.717 139.875C109.697 149.12 130.548 172.745 142.022 193.256C142.363 193.866 142.13 194.629 141.502 194.96C140.874 195.292 140.088 195.066 139.746 194.456C128.433 174.232 107.764 150.794 98.8332 141.6C98.3426 141.095 98.3665 140.299 98.8867 139.823Z" fill="#98CD63"/>
<path d="M101.483 186.726C102.267 187.57 102.995 188.421 103.661 189.265C102.531 185.429 102.712 182.384 104.429 181.38C107.228 179.743 113.05 184.142 117.432 191.206C119.694 194.854 121.131 198.498 121.606 201.396C122.1 203.011 122.146 204.312 121.662 205.081C120.873 207.794 117.516 211.709 112.766 215.141C112.532 215.311 112.297 215.477 112.062 215.639C111.505 216.087 110.924 216.531 110.32 216.967C103.772 221.699 97.0953 223.75 95.4082 221.548C93.8914 219.569 96.9233 214.827 102.309 210.451C100.588 210.98 98.6839 211.435 96.6646 211.781C95.4463 211.99 94.2533 212.148 93.1024 212.257C92.2811 212.501 91.4101 212.705 90.5024 212.861C84.7392 213.85 79.6759 212.5 79.1932 209.846C78.8189 207.788 81.3085 205.551 85.1325 204.189C78.3537 201.152 74.0688 196.37 75.4181 193.136C76.8568 189.687 84.1562 189.304 91.7217 192.28C92.1073 192.432 92.4862 192.589 92.8577 192.752C93.0333 192.691 93.2152 192.635 93.403 192.584C88.3477 186.907 85.8693 181.076 87.8505 179.341C89.9109 177.535 96.0143 180.842 101.483 186.726Z" fill="#A9E6C1"/>
<path fill-rule="evenodd" clip-rule="evenodd" d="M92.6912 199.516C92.8051 198.831 93.4697 198.365 94.1757 198.475C107.097 200.5 138.45 206.915 160.413 216.402C161.067 216.684 161.361 217.427 161.07 218.061C160.78 218.696 160.014 218.981 159.361 218.699C137.705 209.345 106.613 202.971 93.7631 200.958C93.0571 200.847 92.5772 200.202 92.6912 199.516Z" fill="#98CD63"/>
<path fill-rule="evenodd" clip-rule="evenodd" d="M330.336 94.3002C328.346 101.812 321.608 106.917 314.043 107.365C316.29 110.846 317.117 115.182 315.98 119.475C313.781 127.777 305.068 132.777 296.518 130.642C296.346 130.599 296.176 130.553 296.008 130.506C298.884 133.809 300.123 138.371 298.929 142.879C296.983 150.226 289.308 154.668 281.741 152.857C281.662 153.343 281.558 153.83 281.43 154.316C279.231 162.619 270.517 167.618 261.967 165.483C253.417 163.348 248.269 154.886 250.468 146.584C252.666 138.282 261.38 133.283 269.93 135.418C270.431 135.543 270.92 135.69 271.397 135.857C271.438 135.711 271.48 135.566 271.525 135.422C266.864 131.889 264.54 125.889 266.107 119.974C267.675 114.053 272.698 109.884 278.542 108.978C276.123 105.479 275.194 101.031 276.36 96.6281C278.529 88.4398 287.123 83.509 295.556 85.6148L295.556 85.6148C298.026 76.2891 307.814 70.6735 317.418 73.0719C327.022 75.4703 332.806 84.9745 330.336 94.3002Z" fill="#A9E5C1"/>
<path fill-rule="evenodd" clip-rule="evenodd" d="M312.827 86.2175C313.485 86.5142 313.771 87.2727 313.465 87.9118C299.697 116.713 287.365 129.706 276.257 139.87C274.775 141.225 273.32 142.527 271.89 143.806C262.648 152.073 254.459 159.398 246.944 174.292C246.625 174.925 245.838 175.186 245.187 174.876C244.535 174.566 244.266 173.802 244.585 173.17C252.327 157.825 260.864 150.193 270.132 141.908C271.555 140.635 272.997 139.347 274.455 138.013C285.354 128.041 297.472 115.306 311.082 86.8375C311.387 86.1984 312.168 85.9209 312.827 86.2175Z" fill="#98CD63"/>
<path fill-rule="evenodd" clip-rule="evenodd" d="M335.237 168.789C329.834 174.502 321.413 175.917 314.525 172.847C314.815 176.946 313.438 181.148 310.35 184.413C304.378 190.726 294.266 191.144 287.765 185.345C287.634 185.229 287.506 185.111 287.381 184.991C288.312 189.222 287.189 193.812 283.946 197.24C278.662 202.827 269.737 203.228 263.944 198.166C263.638 198.558 263.31 198.94 262.96 199.31C256.988 205.623 246.876 206.041 240.374 200.242C233.872 194.443 233.443 184.624 239.415 178.311C245.386 171.998 255.498 171.58 262 177.379C262.381 177.719 262.741 178.073 263.08 178.438C263.187 178.328 263.295 178.219 263.405 178.113C261.011 172.863 261.877 166.508 266.132 162.01C270.39 157.508 276.845 156.132 282.438 158.01C282.004 153.817 283.346 149.469 286.513 146.121C292.403 139.894 302.376 139.482 308.789 145.201C315.497 138.11 326.856 137.641 334.159 144.155C341.463 150.668 341.945 161.698 335.237 168.789Z" fill="#A9E5C1"/>
<path fill-rule="evenodd" clip-rule="evenodd" d="M323.725 153.643C324.161 154.206 324.045 155.006 323.465 155.429C297.334 174.519 280.149 180.328 265.417 184.202C263.451 184.719 261.536 185.2 259.654 185.673C247.489 188.73 236.71 191.438 222.848 201.129C222.26 201.541 221.439 201.411 221.015 200.839C220.591 200.268 220.724 199.47 221.313 199.059C235.594 189.075 246.828 186.255 259.025 183.194C260.899 182.724 262.796 182.248 264.73 181.739C279.184 177.938 296.056 172.26 321.885 153.391C322.465 152.967 323.289 153.08 323.725 153.643Z" fill="#98CD63"/>
<path fill-rule="evenodd" clip-rule="evenodd" d="M303.661 181.637C303.661 160.968 296.846 141.844 285.28 126.269L285.3 126.277C284.946 125.795 284.571 125.313 284.185 124.824C283.844 124.381 283.498 123.942 283.149 123.506C281.2 120.999 279.236 118.153 278.536 114.079H278.53C278.013 75.6447 245.766 44.6431 206.062 44.6431C166.358 44.6431 134.111 75.6447 133.593 114.079H133.587C132.888 118.153 130.923 120.999 128.975 123.505C128.625 123.942 128.279 124.382 127.937 124.825C127.552 125.314 127.177 125.795 126.823 126.277L126.843 126.269C115.277 141.844 108.463 160.968 108.463 181.637C108.463 220.839 132.975 254.481 167.928 268.901H244.195C279.148 254.481 303.661 220.839 303.661 181.637Z" fill="#297BA9"/>
<ellipse rx="4.83163" ry="4.69159" transform="matrix(-1 0 0 1 177.072 83.1139)" fill="white"/>
<ellipse rx="4.83163" ry="4.69159" transform="matrix(-1 0 0 1 207.994 83.1139)" fill="white"/>
<path d="M172.24 102.819H213.792" stroke="white" stroke-width="12" stroke-linecap="round"/>
<path d="M283.432 28.9042C284.086 27.1872 286.515 27.1872 287.169 28.9042L289.149 34.0991C289.357 34.6444 289.792 35.0717 290.342 35.2691L295.523 37.1309C297.288 37.765 297.288 40.2611 295.523 40.8953L290.342 42.7571C289.792 42.9544 289.357 43.3818 289.149 43.9271L287.169 49.1219C286.515 50.839 284.086 50.839 283.432 49.1219L281.452 43.9271C281.244 43.3818 280.808 42.9544 280.259 42.7571L275.078 40.8953C273.313 40.2611 273.313 37.765 275.078 37.1309L280.259 35.2691C280.808 35.0717 281.244 34.6444 281.452 34.0991L283.432 28.9042Z" fill="white"/>
<path d="M107.077 72.0668C107.731 70.3498 110.16 70.3498 110.815 72.0668L111.881 74.8646C112.089 75.4099 112.524 75.8372 113.073 76.0346L115.786 77.0094C117.551 77.6435 117.551 80.1396 115.786 80.7738L113.073 81.7486C112.524 81.9459 112.089 82.3733 111.881 82.9186L110.815 85.7163C110.16 87.4334 107.731 87.4334 107.077 85.7163L106.011 82.9186C105.803 82.3733 105.367 81.9459 104.818 81.7486L102.105 80.7738C100.34 80.1396 100.34 77.6435 102.105 77.0094L104.818 76.0346C105.367 75.8372 105.803 75.4099 106.011 74.8646L107.077 72.0668Z" fill="white"/>
<path fill-rule="evenodd" clip-rule="evenodd" d="M251.455 330.098C309.854 310.822 352 255.808 352 190.95H59C59 255.808 101.147 310.822 159.546 330.098C156.558 336.384 154.891 343.387 154.891 350.769L256.11 350.769C256.11 343.387 254.443 336.384 251.455 330.098Z" fill="white"/>
<path d="M101.239 222.054C103.68 215.976 112.32 215.976 114.761 222.054C115.498 223.89 116.967 225.345 118.811 226.059C124.893 228.415 124.893 237.02 118.811 239.375C116.967 240.09 115.498 241.545 114.761 243.38C112.32 249.459 103.68 249.459 101.239 243.38C100.502 241.545 99.0334 240.09 97.189 239.375C91.1074 237.02 91.1074 228.415 97.189 226.059C99.0334 225.345 100.502 223.89 101.239 222.054Z" fill="#F3D5D0"/>
<path d="M163.239 222.054C165.68 215.976 174.32 215.976 176.761 222.054C177.498 223.89 178.967 225.345 180.811 226.059C186.893 228.415 186.893 237.02 180.811 239.375C178.967 240.09 177.498 241.545 176.761 243.38C174.32 249.459 165.68 249.459 163.239 243.38C162.502 241.545 161.033 240.09 159.189 239.375C153.107 237.02 153.107 228.415 159.189 226.059C161.033 225.345 162.502 223.89 163.239 222.054Z" fill="#F3D5D0"/>
<path d="M224.859 222.055C227.236 216.029 235.764 216.029 238.141 222.055C238.866 223.895 240.323 225.351 242.162 226.077C248.188 228.453 248.188 236.981 242.162 239.358C240.323 240.084 238.866 241.54 238.141 243.38C235.764 249.406 227.236 249.406 224.859 243.38C224.134 241.54 222.677 240.084 220.838 239.358C214.812 236.981 214.812 228.453 220.838 226.077C222.677 225.351 224.134 223.895 224.859 222.055Z" fill="#F3D5D0"/>
<path d="M286.239 222.054C288.68 215.976 297.32 215.976 299.761 222.054C300.498 223.89 301.967 225.345 303.811 226.059C309.893 228.415 309.893 237.02 303.811 239.375C301.967 240.09 300.498 241.545 299.761 243.38C297.32 249.459 288.68 249.459 286.239 243.38C285.502 241.545 284.033 240.09 282.189 239.375C276.107 237.02 276.107 228.415 282.189 226.059C284.033 225.345 285.502 223.89 286.239 222.054Z" fill="#F3D5D0"/>
<path d="M88.3242 327.889C89.701 329.707 91.3102 331.416 93.1447 332.971C98.3321 337.599 105.24 341.654 113.263 344.425C129.231 349.942 144.913 348.75 153.069 342.29C161.432 336.637 166.215 327.063 164.615 317.018C162.307 302.529 147.595 292.547 131.755 294.722C130.702 294.867 129.671 295.061 128.664 295.303C128.151 294.835 127.618 294.379 127.067 293.937C114.572 283.916 97.0041 284.658 87.8281 295.594C82.7105 301.694 81.284 309.676 83.1908 317.283C83.8184 320.815 85.5985 324.431 88.3242 327.889Z" fill="#FFAB9F"/>
<path d="M136.362 296.316C137.468 295.04 138.564 293.328 139.476 291.349C141.71 286.495 141.989 281.872 140.097 281.023C138.206 280.174 134.861 283.42 132.626 288.274C131.645 290.403 131.042 292.488 130.832 294.229C130.778 292.709 130.507 290.969 130.006 289.157C128.57 283.973 125.786 280.176 123.787 280.675C121.788 281.174 121.332 285.782 122.767 290.966C123.089 292.128 123.478 293.22 123.911 294.21C122.741 293.515 121.438 292.846 120.038 292.236C113.74 289.494 107.868 288.991 106.922 291.112C105.976 293.233 110.314 297.176 116.611 299.918C118.574 300.773 120.496 301.41 122.24 301.818C122 302.157 121.762 302.506 121.529 302.863C117.677 308.755 116.42 314.706 118.722 316.156C121.025 317.606 126.014 314.005 129.866 308.113C130.744 306.771 131.487 305.426 132.084 304.131C132.63 305.778 133.405 307.549 134.392 309.335C137.838 315.564 142.571 319.614 144.963 318.381C147.355 317.148 146.502 311.099 143.056 304.87C142.996 304.76 142.935 304.652 142.873 304.543C149.359 306.621 155.059 306.881 155.635 305.117C156.216 303.342 151.386 300.188 144.847 298.072C141.668 297.044 138.67 296.45 136.362 296.316Z" fill="#C54635"/>
<path d="M110.842 349.859L110.681 350.27C106.622 360.636 94.3896 365.518 83.9959 360.921C76.7328 357.708 72.4846 350.827 72.4846 342.826C72.4846 332.833 74.7758 318.628 80.8847 316.214C87.0145 313.791 97.0223 320.059 106.561 329.804C111.837 335.643 113.566 342.903 110.842 349.859Z" fill="white"/>
<ellipse rx="10.1816" ry="9.96953" transform="matrix(0.92998 -0.367609 0.386635 0.922233 93.3108 346.262)" fill="#FFB168"/>
<ellipse rx="11.235" ry="12.8876" transform="matrix(0.924288 -0.381695 0.40119 0.915995 306.017 316.044)" fill="#4B99C6"/>
<ellipse rx="2.57325" ry="2.9336" transform="matrix(0.803265 -0.595622 0.61817 0.786045 306.281 308.194)" fill="#297BA9"/>
<ellipse rx="11.1163" ry="13.0278" transform="matrix(-0.704934 -0.709273 0.729683 -0.683786 326.874 331.746)" fill="#4B99C6"/>
<ellipse rx="2.58017" ry="2.92556" transform="matrix(-0.857681 -0.514182 0.536554 -0.843866 320.386 333.376)" fill="#297BA9"/>
<path d="M283.565 348.336C298.598 353.457 314.631 345.639 319.376 330.873L264.937 312.328C260.192 327.093 268.532 343.215 283.565 348.336Z" fill="#F4B437"/>
<path d="M285.283 342.989C297.31 347.086 310.136 340.831 313.932 329.019L270.381 314.182C266.585 325.995 273.257 338.892 285.283 342.989Z" fill="#FFC93E"/>
<path d="M291.09 324.161C291.239 324.02 291.492 324.106 291.529 324.311L292.318 328.599C292.668 330.503 290.859 332.035 289.006 331.404C287.154 330.772 286.589 328.432 287.973 327.119L291.09 324.161Z" fill="white"/>
<path d="M284.863 321.424C285.072 321.431 285.194 321.667 285.075 321.835L282.589 325.335C281.485 326.888 279.077 326.672 278.18 324.94C277.284 323.207 278.543 321.202 280.486 321.27L284.863 321.424Z" fill="white"/>
<path d="M298.045 326.253C298.046 326.046 298.281 325.931 298.453 326.054L302.055 328.618C303.654 329.756 303.504 332.139 301.78 332.979C300.057 333.82 297.999 332.514 298.013 330.589L298.045 326.253Z" fill="white"/>
<path fill-rule="evenodd" clip-rule="evenodd" d="M311.136 198.647C309.888 204.026 304.507 207.415 299.117 206.217L298.563 206.094C293.172 204.895 289.814 199.563 291.061 194.183C291.112 193.965 291.169 193.75 291.233 193.539L270.266 188.877C266.313 187.998 263.85 184.088 264.765 180.143C265.68 176.198 269.626 173.713 273.579 174.592L294.547 179.253C296.059 174.251 301.223 171.178 306.394 172.328L306.948 172.451C312.339 173.649 315.697 178.982 314.45 184.361C313.795 187.184 312.003 189.458 309.668 190.81C311.177 193.016 311.79 195.825 311.136 198.647Z" fill="#FFDFC1"/>
<path d="M285.019 189.9C283.612 195.969 278.726 200.694 272.471 202.036L233.736 210.343C204.201 216.678 177.822 190.949 184.468 162.291C191.114 133.632 226.255 121.581 250.099 139.783L281.372 163.656C286.422 167.511 288.744 173.839 287.336 179.908L285.019 189.9Z" fill="#FFB168"/>
<rect width="6.78842" height="5.38671" rx="2.69336" transform="matrix(-0.76676 -0.641934 0.663343 -0.748316 203.148 187.611)" fill="white"/>
<rect width="6.78843" height="5.38672" rx="2.69336" transform="matrix(-0.76676 -0.641934 0.663343 -0.748316 214.614 172.631)" fill="white"/>
<rect width="6.78843" height="5.38672" rx="2.69336" transform="matrix(-0.766761 -0.641933 0.663344 -0.748315 198.844 169.962)" fill="white"/>
<path d="M238.715 157.285C244.899 155.408 254.176 141.334 238.715 131.95L271.57 143.21C273.019 150.248 268.671 169.483 257.075 177.459C245.479 185.435 238.715 183.089 237.748 178.397C236.875 174.156 240.647 170.421 244.996 168.076C249.344 165.73 248.861 160.569 244.996 162.446C241.13 164.322 238.715 167.137 235.332 166.199C231.95 165.261 230.984 159.631 238.715 157.285Z" fill="#297BA9"/>
</svg>
