<svg width="134" height="127" viewBox="0 0 134 127" fill="none" xmlns="http://www.w3.org/2000/svg">
<mask id="mask0_1435_16248" style="mask-type:alpha" maskUnits="userSpaceOnUse" x="0" y="0" width="127" height="127">
<circle cx="63.5" cy="63.5" r="63.5" fill="#D1D0D0"/>
</mask>
<g mask="url(#mask0_1435_16248)">
<circle cx="63.5" cy="63.5" r="63.5" fill="#D1D0D0"/>
<path fill-rule="evenodd" clip-rule="evenodd" d="M121.068 103.874C119.686 101.249 118.126 98.7326 116.404 96.3416L116.417 96.3469C116.187 96.025 115.944 95.7031 115.694 95.3762C115.473 95.0802 115.248 94.7862 115.021 94.4942C113.758 92.8188 112.484 90.9164 112.03 88.1927H112.026C111.691 62.5006 90.7779 41.7767 65.029 41.7767C39.2801 41.7767 18.3671 62.5006 18.0317 88.1927H18.0276C17.5741 90.9165 16.2999 92.8188 15.0366 94.4943C14.8097 94.7862 14.5854 95.0801 14.3636 95.376C14.1138 95.703 13.8706 96.0249 13.6408 96.3469L13.6541 96.3416C11.9316 98.7326 10.3715 101.249 8.99014 103.874H121.068Z" fill="#297BA9"/>
<circle cx="65.5" cy="127.5" r="60.5" fill="#297BA9"/>
<path d="M43.0678 65.5244C43.0678 67.1973 44.424 68.5535 46.0969 68.5535C47.7699 68.5535 49.126 67.1973 49.126 65.5244C49.126 63.8514 47.7699 62.4952 46.0969 62.4952C44.424 62.4952 43.0678 63.8514 43.0678 65.5244Z" fill="white"/>
<path d="M63.5144 65.5244C63.5144 67.1973 64.8706 68.5535 66.5435 68.5535C68.2164 68.5535 69.5726 67.1973 69.5726 65.5244C69.5726 63.8514 68.2164 62.4952 66.5435 62.4952C64.8706 62.4952 63.5144 63.8514 63.5144 65.5244Z" fill="white"/>
<path fill-rule="evenodd" clip-rule="evenodd" d="M39.2814 78.3981C39.2814 76.3069 40.9828 74.6117 43.0815 74.6117H70.3162C72.4149 74.6117 74.1163 76.3069 74.1163 78.3981C74.1163 80.4893 72.4149 82.1845 70.3162 82.1845H43.0815C40.9828 82.1845 39.2814 80.4893 39.2814 78.3981Z" fill="white"/>
</g>
<circle cx="106" cy="30" r="4" fill="#8E8C8B"/>
<circle cx="118" cy="30" r="4" fill="#8E8C8B"/>
<circle cx="130" cy="30" r="4" fill="#8E8C8B"/>
</svg>
