<svg width="289" height="51" viewBox="0 0 289 51" fill="none" xmlns="http://www.w3.org/2000/svg">
<path fill-rule="evenodd" clip-rule="evenodd" d="M281.459 38.1154V9.10035C281.459 7.42502 280.102 6.06689 278.429 6.06689H276.535C274.862 6.06689 273.505 7.42502 273.505 9.10035V19.5809C272.263 18.0642 270.52 17.3059 268.278 17.3059C265.581 17.3059 263.096 18.5041 260.824 20.9005C258.581 23.2969 257.46 26.0877 257.46 29.2728C257.46 32.4276 258.581 35.2033 260.824 37.5997C263.066 39.9658 265.551 41.1488 268.278 41.1488C270.55 41.1488 272.323 40.4208 273.596 38.9647C273.596 40.171 274.573 41.1488 275.777 41.1488H278.429C280.102 41.1488 281.459 39.7907 281.459 38.1154ZM265.333 29.4549C265.333 30.4559 265.727 31.3659 266.515 32.185C267.303 32.9737 268.257 33.368 269.379 33.368C270.5 33.368 271.424 32.9585 272.151 32.1395C272.909 31.3204 273.287 30.4256 273.287 29.4549C273.287 28.4538 272.924 27.5286 272.197 26.6792C271.5 25.8299 270.545 25.4052 269.333 25.4052C268.151 25.4052 267.182 25.8299 266.424 26.6792C265.697 27.5286 265.333 28.4538 265.333 29.4549ZM226.722 20.4303C226.722 18.755 225.365 17.3969 223.691 17.3969H221.313C219.932 17.3969 218.813 18.5173 218.813 19.8995C218.601 19.5961 218.328 19.2928 217.995 18.9894C217.661 18.6557 217.071 18.3069 216.222 17.9429C215.374 17.5789 214.434 17.3969 213.404 17.3969C210.707 17.3969 208.223 18.5951 205.95 20.9915C203.708 23.3576 202.586 26.1332 202.586 29.3183C202.586 32.4731 203.708 35.2488 205.95 37.6452C208.192 40.0416 210.616 41.2398 213.222 41.2398C215.859 41.2398 217.737 40.436 218.858 38.8282C218.858 40.1601 219.937 41.2398 221.267 41.2398H223.691C225.365 41.2398 226.722 39.8817 226.722 38.2064V20.4303ZM210.601 29.4549C210.601 30.4559 210.995 31.3659 211.783 32.185C212.571 32.9737 213.525 33.368 214.647 33.368C215.768 33.368 216.692 32.9585 217.419 32.1395C218.177 31.3204 218.555 30.4256 218.555 29.4549C218.555 28.4538 218.192 27.5286 217.465 26.6792C216.768 25.8299 215.813 25.4052 214.601 25.4052C213.419 25.4052 212.45 25.8299 211.692 26.6792C210.965 27.5286 210.601 28.4538 210.601 29.4549ZM140.958 26.4972C140.958 28.3476 140.488 29.7279 139.549 30.6379C138.64 31.5176 137.624 31.9575 136.503 31.9575H125.731C125.731 32.8068 126.231 33.5197 127.231 34.096C128.231 34.6724 129.231 34.9606 130.231 34.9606C131.578 34.9606 132.095 34.8648 132.585 34.7739C132.734 34.7463 132.882 34.719 133.049 34.6951C133.764 34.5928 134.867 34.2325 134.867 34.2325C135.594 33.8989 136.2 33.732 136.685 33.732C137.655 33.732 138.488 34.4146 139.185 35.7796C139.579 36.5986 139.776 37.2963 139.776 37.8727C139.776 40.5725 136.503 42.2788 130.231 42.2788C127.989 42.2788 125.526 41.71 123.769 40.9517C122.042 40.163 120.667 39.1467 119.697 37.8727C117.788 35.4156 117.186 32.4883 117.186 29.4549C117.186 25.6327 118.413 22.5841 120.868 20.309C123.352 18.0036 126.443 16.8508 130.14 16.8508C134.352 16.8508 137.443 18.3372 139.412 21.31C140.442 22.8874 140.958 24.6165 140.958 26.4972ZM131.367 27.8168C132.519 27.8168 133.094 27.3314 133.094 26.3607C133.094 25.663 132.822 25.1018 132.276 24.6772C131.761 24.2525 131.004 24.0401 130.004 24.0401C129.034 24.0401 127.958 24.3018 126.988 25.1208C126.019 25.9095 125.64 26.9067 125.64 27.8168H131.367ZM114.21 37.3722C114.21 38.0699 114.18 38.6007 114.12 38.9647C114.089 39.2984 113.953 39.6928 113.71 40.1478C113.317 40.9365 112.15 41.3308 110.211 41.3308C108.362 41.3308 107.211 40.9365 106.756 40.1478C106.514 39.6928 106.362 39.2833 106.302 38.9192C106.271 38.5552 106.256 38.0092 106.256 37.2812V28.8178C106.256 26.9331 104.73 25.4052 102.847 25.4052H101.711C99.8284 25.4052 98.3022 26.9331 98.3022 28.8178V38.2974C98.3022 39.9727 96.9455 41.3308 95.272 41.3308H93.3782C91.7047 41.3308 90.3481 39.9727 90.3481 38.2974V9.19135C90.3481 7.51602 91.7047 6.15789 93.3782 6.15789H95.272C96.9455 6.15789 98.3022 7.51602 98.3022 9.19135V20.0018C98.7106 19.1487 100.512 17.4803 104.452 17.632C109.841 17.632 114.21 22.0059 114.21 27.4015V37.3722ZM179.732 38.2974V31.1877C179.732 29.303 181.258 27.7751 183.141 27.7751H188.265C190.144 27.7751 191.668 29.296 191.674 31.1763L191.698 38.3076C191.704 39.9789 193.059 41.3308 194.728 41.3308H196.587C198.26 41.3308 199.617 39.9727 199.617 38.2974V11.0873C199.617 9.41193 198.26 8.05381 196.587 8.05381H194.703C193.026 8.05381 191.668 9.41828 191.673 11.0977L191.697 17.9046C191.703 19.7939 190.175 21.329 188.288 21.329H183.141C181.258 21.329 179.732 19.8011 179.732 17.9163V11.0873C179.732 9.41193 178.375 8.05381 176.702 8.05381H174.808C173.134 8.05381 171.778 9.41193 171.778 11.0873V38.2974C171.778 39.9727 173.134 41.3308 174.808 41.3308H176.702C178.375 41.3308 179.732 39.9727 179.732 38.2974ZM167.8 37.2812C167.8 37.9789 167.77 38.5097 167.71 38.8737C167.679 39.2074 167.543 39.6018 167.301 40.0568C166.907 40.8455 165.74 41.2398 163.801 41.2398C161.952 41.2398 160.801 40.8455 160.346 40.0568C160.104 39.6018 159.952 39.1923 159.892 38.8282C159.862 38.4642 159.846 37.9182 159.846 37.1902V28.7268C159.846 26.8421 158.32 25.3142 156.437 25.3142H155.301C153.418 25.3142 151.892 26.8421 151.892 28.7268V38.2064C151.892 39.8817 150.536 41.2398 148.862 41.2398H146.968C145.295 41.2398 143.938 39.8817 143.938 38.2064V20.5744C143.938 18.8991 145.295 17.541 146.968 17.541H149.525C150.832 17.541 151.892 18.602 151.892 19.9108C152.301 19.0577 154.102 17.3893 158.042 17.541C163.431 17.541 167.8 21.9149 167.8 27.3105V37.2812ZM254.538 37.2812V27.3105C254.538 21.9149 250.169 17.541 244.779 17.541C240.84 17.3893 239.039 19.0577 238.63 19.9108C238.63 18.602 237.57 17.541 236.263 17.541H233.706C232.033 17.541 230.676 18.8991 230.676 20.5744V38.2064C230.676 39.8817 232.033 41.2398 233.706 41.2398H235.6C237.273 41.2398 238.63 39.8817 238.63 38.2064V28.7268C238.63 26.8421 240.156 25.3142 242.039 25.3142H243.175C245.058 25.3142 246.584 26.8421 246.584 28.7268V37.1902C246.584 37.9182 246.599 38.4642 246.63 38.8282C246.69 39.1923 246.842 39.6018 247.084 40.0568C247.539 40.8455 248.69 41.2398 250.539 41.2398C252.478 41.2398 253.644 40.8455 254.038 40.0568C254.281 39.6018 254.417 39.2074 254.447 38.8737C254.508 38.5097 254.538 37.9789 254.538 37.2812ZM74.6333 29.3638C74.6333 30.6379 75.0575 31.6389 75.906 32.367C76.7544 33.0647 77.6483 33.4135 78.5877 33.4135C79.5573 33.4135 80.4512 33.1405 81.2693 32.5945C82.1178 32.0181 82.7996 31.7299 83.3147 31.7299C84.2237 31.7299 85.3297 32.5338 86.6327 34.1415C87.3296 35.0212 87.6781 35.8099 87.6781 36.5076C87.6781 37.6603 86.7806 38.6576 85.1344 39.8141C83.4072 41.0275 81.3299 41.5583 78.8149 41.5583C75.9969 41.5583 73.2849 40.5421 70.679 38.5097C69.4366 37.539 68.4215 36.2498 67.6337 34.6421C66.8458 33.004 66.4519 31.2142 66.4519 29.2728C66.4519 27.3011 66.8458 25.5265 67.6337 23.9491C68.4215 22.3414 69.4366 21.0522 70.679 20.0815C73.194 18.0794 75.8757 17.0783 78.724 17.0783C79.8755 17.0783 81.5361 17.2883 82.9564 17.8215C84.3768 18.3548 85.7025 19.2435 86.3654 19.8122C87.0282 20.381 87.6781 21.1128 87.6781 21.9015C87.6781 22.6599 87.3599 23.5244 86.7236 24.4951C85.6327 26.1635 84.5873 26.9977 83.5874 26.9977C83.0117 26.9977 82.1917 26.9977 81.133 25.9967C80.5875 25.481 79.7997 25.2232 78.7695 25.2232C77.7695 25.2232 76.8302 25.5872 75.9514 26.3152C75.0727 27.0432 74.6333 28.0595 74.6333 29.3638ZM58.5575 25.3597H62.503C64.1765 25.3597 65.5331 24.0016 65.5331 22.3262V20.4758C65.5331 18.8005 64.1765 17.4424 62.503 17.4424H58.5575V12.1945C58.5575 10.5191 57.2009 9.16102 55.5274 9.16102H53.679C52.0055 9.16102 50.6488 10.5191 50.6488 12.1945V17.4424H49.2461C47.5726 17.4424 46.2159 18.8005 46.2159 20.4758V22.3262C46.2159 24.0016 47.5726 25.3597 49.2461 25.3597H50.6488V33.7472C50.6488 37.9355 54.0404 41.3308 58.2242 41.3308H61.2543C62.9278 41.3308 64.2845 39.9727 64.2845 38.2974V36.8565C64.2845 35.1812 62.9278 33.823 61.2543 33.823H60.4513C59.4054 33.823 58.5575 32.9742 58.5575 31.9271V25.3597ZM16.1886 28.4538V38.7524C16.1886 40.4277 14.8319 41.7858 13.1584 41.7858H11.1737C9.5002 41.7858 8.14355 40.4277 8.14355 38.7524V10.4654C8.14355 8.79006 9.5002 7.43194 11.1737 7.43194H13.1584C14.8319 7.43194 16.1886 8.79007 16.1886 10.4654V20.7185L25.3158 9.68824C26.3573 8.42964 28.2075 8.22327 29.5001 9.22153L30.5648 10.0438C31.9597 11.121 32.1461 13.1579 30.9698 14.4709L22.4482 23.9833L32.3021 34.2363C33.4898 35.4721 33.4189 37.447 32.1456 38.5942L30.8164 39.7918C29.5879 40.8987 27.6999 40.8158 26.5729 39.6055L16.1886 28.4538ZM35.9892 9.28994C35.9892 7.61461 37.3458 6.25649 39.0193 6.25649H40.9132C42.5867 6.25649 43.9433 7.61461 43.9433 9.28994V11.1859C43.9433 12.8612 42.5867 14.2193 40.9132 14.2193H39.0193C37.3458 14.2193 35.9892 12.8612 35.9892 11.1859V9.28994ZM39.0193 17.4424C37.3458 17.4424 35.9892 18.8005 35.9892 20.4758V38.2974C35.9892 39.9727 37.3458 41.3308 39.0193 41.3308H40.9132C42.5867 41.3308 43.9433 39.9727 43.9433 38.2974V20.4758C43.9433 18.8005 42.5867 17.4424 40.9132 17.4424H39.0193Z" fill="white"/>
</svg>
