<svg width="24" height="24" viewBox="0 0 24 24" fill="none" xmlns="http://www.w3.org/2000/svg">
<path fill-rule="evenodd" clip-rule="evenodd" d="M11.5 4.5C7.63401 4.5 4.5 7.63401 4.5 11.5C4.5 15.366 7.63401 18.5 11.5 18.5C13.3641 18.5 15.058 17.7714 16.3125 16.5833C16.3512 16.5333 16.3935 16.4852 16.4393 16.4393C16.4852 16.3935 16.5333 16.3512 16.5833 16.3125C17.7714 15.058 18.5 13.3641 18.5 11.5C18.5 7.63401 15.366 4.5 11.5 4.5ZM19.5522 17.4309C20.7764 15.7716 21.5 13.7203 21.5 11.5C21.5 5.97715 17.0228 1.5 11.5 1.5C5.97715 1.5 1.5 5.97715 1.5 11.5C1.5 17.0228 5.97715 21.5 11.5 21.5C13.7203 21.5 15.7716 20.7764 17.4309 19.5522L20.4393 22.5607C21.0251 23.1464 21.9749 23.1464 22.5607 22.5607C23.1464 21.9749 23.1464 21.0251 22.5607 20.4393L19.5522 17.4309Z" fill="black"/>
</svg>
