<svg width="315" height="190" viewBox="0 0 315 190" fill="none" xmlns="http://www.w3.org/2000/svg">
    <path fill-rule="evenodd" clip-rule="evenodd"
        d="M81.4128 29.2181C81.4275 29.2376 81.442 29.2572 81.4563 29.2769C81.4936 29.2474 81.5315 29.2182 81.5698 29.1894C84.0282 27.3424 87.5183 27.8381 89.3653 30.2964C90.4821 31.783 90.7424 33.6469 90.23 35.2965C91.3666 35.7264 92.3989 36.4733 93.1828 37.5168C95.385 40.4479 94.794 44.6092 91.8629 46.8113C90.8687 47.5583 89.733 47.9838 88.5802 48.1058C88.557 49.5966 87.8696 51.0614 86.5852 52.0263C84.379 53.6838 81.2468 53.239 79.5893 51.0328C78.5947 49.709 78.3571 48.0518 78.8027 46.5798C76.8121 46.5763 74.8469 45.6712 73.5591 43.957C71.3806 41.0574 71.9653 36.9409 74.8649 34.7624C74.9109 34.7278 74.9573 34.6939 75.004 34.6607C74.8895 34.5408 74.7809 34.413 74.6789 34.2772C73.2818 32.4177 73.6567 29.7777 75.5163 28.3807C77.3758 26.9836 80.0158 27.3585 81.4128 29.2181Z"
        fill="#7CAE4A" />
    <path fill-rule="evenodd" clip-rule="evenodd"
        d="M102.2 18.7969C102.214 18.8165 102.229 18.8361 102.243 18.8558C102.281 18.8262 102.318 18.797 102.357 18.7682C104.815 16.9213 108.305 17.4169 110.152 19.8753C111.269 21.3619 111.529 23.2257 111.017 24.8754C112.154 25.3053 113.186 26.0521 113.97 27.0956C116.172 30.0267 115.581 34.188 112.65 36.3902C111.656 37.1371 110.52 37.5627 109.367 37.6846C109.344 39.1755 108.656 40.6402 107.372 41.6052C105.166 43.2627 102.034 42.8179 100.376 40.6117C99.3816 39.2878 99.144 37.6306 99.5896 36.1587C97.599 36.1552 95.6338 35.25 94.346 33.5359C92.1675 30.6363 92.7521 26.5197 95.6517 24.3413C95.6978 24.3067 95.7442 24.2728 95.7909 24.2395C95.6764 24.1197 95.5678 23.9918 95.4658 23.8561C94.0687 21.9966 94.4436 19.3566 96.3032 17.9595C98.1627 16.5625 100.803 16.9374 102.2 18.7969Z"
        fill="#7CAE4A" />
    <path
        d="M110.883 24.6042C111.009 25.0213 111.148 25.422 111.297 25.8017C110.255 24.6815 109.221 24.1356 108.561 24.4841C107.485 25.052 107.809 27.7796 109.285 30.5762C110.047 32.0203 110.967 33.2004 111.827 33.926C112.262 34.4035 112.681 34.6759 113.026 34.6743C114.069 34.9601 116 34.6659 118.041 33.8317C118.141 33.7905 118.241 33.7486 118.339 33.706C118.594 33.6171 118.851 33.5197 119.111 33.4137C121.924 32.2637 123.882 30.5417 123.484 29.5676C123.126 28.6919 120.986 28.7187 118.513 29.5687C119.017 29.1248 119.533 28.6079 120.036 28.0328C120.339 27.6858 120.62 27.3368 120.877 26.9915C121.115 26.778 121.35 26.5409 121.576 26.2823C123.009 24.6409 123.54 22.7593 122.762 22.0795C122.158 21.5525 120.945 21.9028 119.762 22.852C120.069 20.0893 119.324 17.7757 118.002 17.565C116.593 17.3403 115.063 19.5914 114.584 22.5929C114.56 22.7458 114.539 22.8978 114.521 23.0485C114.467 23.0925 114.414 23.1394 114.361 23.1892C113.469 20.4526 112.032 18.5072 111.081 18.7948C110.092 19.0939 110.003 21.6949 110.883 24.6042Z"
        fill="#A9E6C1" />
    <path fill-rule="evenodd" clip-rule="evenodd"
        d="M79.9341 19.393C79.9582 22.5963 82.0703 25.2953 84.9694 26.2083C83.7474 27.3856 82.9923 29.0429 83.006 30.8736C83.027 33.6574 84.8193 36.0134 87.3056 36.8802C84.4576 38.1574 82.4836 41.0276 82.5086 44.3489C82.5422 48.8304 86.2025 52.436 90.6839 52.4023C91.8764 52.3934 93.0068 52.1277 94.0232 51.658C95.1785 53.413 97.1721 54.5649 99.4296 54.548C102.97 54.5214 105.818 51.6299 105.792 48.0897C105.765 44.5495 102.873 41.7012 99.3333 41.7278C98.9995 41.7303 98.6718 41.7583 98.3522 41.8099C98.3437 41.7834 98.3351 41.757 98.3264 41.7306C100.698 40.864 102.383 38.579 102.363 35.9093C102.344 33.3847 100.806 31.2271 98.6222 30.2973C99.913 29.1296 100.719 27.4371 100.705 25.5596C100.678 22.0679 97.8266 19.2586 94.3349 19.2848C94.305 15.3082 91.0571 12.1086 87.0804 12.1385C83.1037 12.1684 79.9042 15.4163 79.9341 19.393Z"
        fill="#98CD63" />
    <path fill-rule="evenodd" clip-rule="evenodd"
        d="M87.5544 17.8516C87.2687 17.9066 87.0817 18.1829 87.1368 18.4686C89.6183 31.3454 93.1192 37.7479 96.4268 42.898C96.868 43.585 97.3043 44.2477 97.7329 44.8989C100.504 49.108 102.959 52.8374 104.396 59.5348C104.457 59.8193 104.737 60.0005 105.021 59.9394C105.306 59.8784 105.487 59.5983 105.426 59.3138C103.946 52.414 101.386 48.5278 98.6068 44.309C98.1798 43.6607 97.7477 43.0047 97.3135 42.3286C94.0682 37.2756 90.6243 30.9972 88.1715 18.2692C88.1164 17.9835 87.8401 17.7965 87.5544 17.8516Z"
        fill="#7CAE4A" />
    <path
        d="M90.7617 31.4323C87.1544 29.6075 82.7759 31.0029 80.982 34.549L94.045 41.1572C95.8389 37.6111 94.3689 33.2571 90.7617 31.4323Z"
        fill="#FFAB9F" />
    <path
        d="M88.7365 37.3595C86.1693 42.4341 88.2021 48.629 93.2767 51.1961L92.1566 53.4102C85.8592 50.2245 83.3367 42.5369 86.5224 36.2395L88.7365 37.3595Z"
        fill="#FFE7E3" />
    <path
        d="M89.1936 34.532C87.2982 33.5732 85.0096 34.2828 84.0817 36.117L90.9453 39.5891C91.8732 37.7549 91.0889 35.4908 89.1936 34.532Z"
        fill="#FFE7E3" />
    <path
        d="M104.82 14.5236C100.78 14.3632 97.3778 17.4522 97.2201 21.4231L111.848 22.004C112.006 18.0331 108.859 14.684 104.82 14.5236Z"
        fill="#FFAB9F" />
    <path
        d="M105.441 20.7562C105.216 26.4387 109.639 31.2282 115.322 31.4539L115.223 33.9332C108.171 33.6531 102.682 27.7095 102.962 20.6577L105.441 20.7562Z"
        fill="#FFE7E3" />
    <path
        d="M104.682 17.9947C102.559 17.9104 100.773 19.5071 100.691 21.561L108.377 21.8662C108.459 19.8123 106.804 18.0789 104.682 17.9947Z"
        fill="#FFE7E3" />
    <path fill-rule="evenodd" clip-rule="evenodd"
        d="M116.404 32.6731C116.404 32.701 116.404 32.7288 116.404 32.7565C116.458 32.7551 116.513 32.7545 116.568 32.7545C120.102 32.7545 122.967 35.5962 122.967 39.1016C122.967 41.2213 121.919 43.0983 120.31 44.2511C121.057 45.4212 121.49 46.8088 121.49 48.2967C121.49 52.4763 118.075 55.8644 113.861 55.8644C112.432 55.8644 111.095 55.4746 109.952 54.7964C108.901 56.1393 107.258 57.0037 105.412 57.0037C102.241 57.0037 99.6702 54.4534 99.6702 51.3075C99.6702 49.4199 100.596 47.7467 102.021 46.7102C100.195 45.3439 99.014 43.1732 99.014 40.729C99.014 36.5944 102.393 33.2427 106.561 33.2427C106.627 33.2427 106.693 33.2435 106.759 33.2452C106.736 33.0576 106.725 32.8667 106.725 32.6731C106.725 30.0216 108.892 27.8721 111.565 27.8721C114.237 27.8721 116.404 30.0216 116.404 32.6731Z"
        fill="#7CAE4A" />
    <path fill-rule="evenodd" clip-rule="evenodd"
        d="M132.065 34.9497C132.065 34.972 132.065 34.9942 132.065 35.0164C132.108 35.0153 132.151 35.0148 132.194 35.0148C134.963 35.0148 137.209 37.2882 137.209 40.0925C137.209 41.7883 136.388 43.2899 135.126 44.2121C135.712 45.1482 136.051 46.2583 136.051 47.4486C136.051 50.7922 133.374 53.5028 130.072 53.5028C128.952 53.5028 127.904 53.1909 127.008 52.6483C126.184 53.7227 124.897 54.4142 123.45 54.4142C120.964 54.4142 118.949 52.374 118.949 49.8573C118.949 48.3471 119.675 47.0086 120.792 46.1794C119.36 45.0863 118.435 43.3498 118.435 41.3945C118.435 38.0868 121.083 35.4054 124.35 35.4054C124.402 35.4054 124.454 35.4061 124.505 35.4074C124.488 35.2573 124.479 35.1046 124.479 34.9497C124.479 32.8285 126.177 31.1089 128.272 31.1089C130.367 31.1089 132.065 32.8285 132.065 34.9497Z"
        fill="#7CAE4A" />
    <path
        d="M104.068 46.4399C104.202 46.8808 104.349 47.3044 104.506 47.7058C103.405 46.5216 102.311 45.9446 101.613 46.313C100.476 46.9133 100.819 49.7966 102.379 52.7529C103.185 54.2794 104.158 55.5269 105.067 56.2939C105.526 56.7987 105.969 57.0866 106.334 57.085C107.436 57.3871 109.477 57.0761 111.635 56.1942C111.741 56.1507 111.847 56.1064 111.951 56.0613C112.219 55.9675 112.492 55.8644 112.766 55.7524C115.74 54.5367 117.81 52.7165 117.389 51.6868C117.011 50.761 114.748 50.7894 112.134 51.6879C112.667 51.2187 113.213 50.6723 113.744 50.0643C114.064 49.6975 114.361 49.3285 114.633 48.9635C114.885 48.7379 115.133 48.4872 115.372 48.2139C116.887 46.4788 117.448 44.4897 116.626 43.7711C115.988 43.214 114.705 43.5844 113.454 44.5877C113.779 41.6672 112.991 39.2216 111.594 38.9988C110.105 38.7613 108.487 41.1409 107.981 44.3138C107.955 44.4755 107.933 44.6361 107.914 44.7955C107.857 44.8419 107.801 44.8915 107.745 44.9442C106.803 42.0513 105.283 39.9948 104.278 40.2989C103.232 40.6151 103.138 43.3645 104.068 46.4399Z"
        fill="#A9E6C1" />
    <path fill-rule="evenodd" clip-rule="evenodd"
        d="M138.813 36.855C138.809 36.8766 138.804 36.8982 138.8 36.9196C138.842 36.9265 138.885 36.9339 138.927 36.9419C141.649 37.4535 143.441 40.0747 142.929 42.7965C142.62 44.4424 141.539 45.7482 140.131 46.4102C140.536 47.427 140.667 48.5671 140.45 49.7224C139.84 52.9676 136.715 55.1039 133.469 54.4939C132.369 54.287 131.395 53.7907 130.614 53.0985C129.609 53.9892 128.217 54.4225 126.795 54.1552C124.353 53.696 122.745 51.3437 123.204 48.901C123.479 47.4353 124.436 46.2702 125.686 45.6718C124.478 44.3465 123.886 42.4901 124.242 40.5923C124.846 37.3819 127.937 35.2686 131.148 35.8721C131.199 35.8817 131.249 35.8919 131.3 35.9027C131.31 35.7538 131.329 35.6039 131.357 35.4535C131.744 33.3947 133.727 32.0395 135.786 32.4265C137.845 32.8134 139.2 34.7962 138.813 36.855Z"
        fill="#98CD63" />
    <path
        d="M134.819 39.3096C130.559 44.2006 126.011 51.5538 122.868 59.1414C122.588 59.8174 123.007 60.5734 123.727 60.7086C124.382 60.8319 125.009 60.3847 125.152 59.7327C125.966 56.0189 128.667 48.2902 134.819 39.3096Z"
        fill="#A9E6C1" />
    <path fill-rule="evenodd" clip-rule="evenodd"
        d="M129.476 26.5339C129.476 26.5562 129.476 26.5785 129.475 26.6007C129.518 26.5996 129.561 26.599 129.604 26.599C132.374 26.599 134.619 28.8724 134.619 31.6767C134.619 33.3725 133.798 34.8741 132.537 35.7963C133.123 36.7324 133.462 37.8425 133.462 39.0328C133.462 42.3765 130.785 45.087 127.483 45.087C126.363 45.087 125.314 44.7752 124.418 44.2325C123.595 45.3069 122.307 45.9984 120.86 45.9984C118.375 45.9984 116.36 43.9582 116.36 41.4415C116.36 39.9314 117.085 38.5928 118.203 37.7636C116.771 36.6706 115.846 34.9341 115.846 32.9787C115.846 29.671 118.494 26.9896 121.761 26.9896C121.812 26.9896 121.864 26.9903 121.916 26.9916C121.898 26.8416 121.889 26.6888 121.889 26.5339C121.889 24.4127 123.587 22.6931 125.682 22.6931C127.777 22.6931 129.476 24.4127 129.476 26.5339Z"
        fill="#98CD63" />
    <path
        d="M125.556 29.8142C122.403 35.9587 119.417 44.8306 117.808 53.659C117.675 54.3898 118.206 55.0616 118.906 55.0616C119.548 55.0616 120.062 54.4948 120.077 53.812C120.172 49.6926 121.331 40.7896 125.556 29.8142Z"
        fill="#A9E6C1" />
    <path
        d="M75.2514 53.843C81.4654 59.2272 90.8676 58.5546 96.2518 52.3406L73.749 32.8425C68.3648 39.0565 69.0374 48.4587 75.2514 53.843Z"
        fill="#FFD465" />
    <path
        d="M77.2012 51.5928C82.1724 55.9002 89.6942 55.3621 94.0016 50.3909L75.9993 34.7925C71.6919 39.7637 72.23 47.2854 77.2012 51.5928Z"
        fill="#FDFFA8" />
    <path
        d="M83.4728 45.1964C83.5523 45.1655 83.634 45.2362 83.6148 45.3194L83.213 47.0579C83.0347 47.8295 82.0994 48.1342 81.5009 47.6156C80.9024 47.0969 81.0708 46.1278 81.8091 45.8415L83.4728 45.1964Z"
        fill="#F3C365" />
    <path
        d="M81.5615 43.2204C81.6395 43.2548 81.6472 43.3626 81.5749 43.4077L80.0615 44.353C79.3898 44.7726 78.513 44.3266 78.4565 43.5367C78.4 42.7467 79.2043 42.1805 79.9289 42.5002L81.5615 43.2204Z"
        fill="#F3C365" />
    <path
        d="M85.7651 47.0385C85.7995 46.9604 85.9072 46.9527 85.9524 47.0251L86.8977 48.5385C87.3173 49.2102 86.8713 50.0869 86.0814 50.1435C85.2914 50.2 84.7252 49.3956 85.0449 48.671L85.7651 47.0385Z"
        fill="#F3C365" />
    <path
        d="M102.45 55.267L102.29 55.3502C98.2452 57.4501 93.2677 55.6977 91.431 51.5272C90.1475 48.6128 90.7165 45.1873 92.954 42.9213C96.7397 39.0874 100.256 36.1108 102.735 36.9932C105.223 37.8786 106.258 42.6837 106.662 47.9808C106.894 51.03 105.164 53.8578 102.45 55.267Z"
        fill="white" />
    <path
        d="M102.057 50.8749C101.302 52.9973 98.9689 54.1055 96.8465 53.3502C94.7241 52.5948 93.6158 50.262 94.3712 48.1396C95.1265 46.0172 97.4594 44.909 99.5818 45.6643C101.704 46.4196 102.812 48.7525 102.057 50.8749Z"
        fill="#FFB168" />
    <path
        d="M105.164 80.9564C121.074 80.9564 133.972 68.2036 133.972 52.4722H76.356C76.356 68.2036 89.2538 80.9564 105.164 80.9564Z"
        fill="#FFE7E3" />
    <path fill-rule="evenodd" clip-rule="evenodd"
        d="M129.881 67.1119C124.845 75.4061 115.66 80.9564 105.164 80.9564C94.6678 80.9564 85.4828 75.4061 80.4471 67.1119H129.881ZM131.871 63.1705H78.4569C78.1551 62.4345 77.8835 61.6832 77.6436 60.9182H132.684C132.444 61.6832 132.173 62.4345 131.871 63.1705ZM133.614 56.9767H76.7142C76.4785 55.5095 76.356 54.005 76.356 52.4722H133.972C133.972 54.005 133.849 55.5095 133.614 56.9767Z"
        fill="#FFAB9F" />
    <path
        d="M246.742 45.7211C246.742 63.2401 229.787 77.4421 208.871 77.4421C187.955 77.4421 171 63.2401 171 45.7211C171 28.202 187.955 14 208.871 14C229.787 14 246.742 28.202 246.742 45.7211Z"
        fill="#D7ECE3" />
    <path fill-rule="evenodd" clip-rule="evenodd"
        d="M192.971 29.2968C192.981 29.3123 192.991 29.3276 193.001 29.3428C192.971 29.3616 192.94 29.3808 192.91 29.4005C190.967 30.6617 190.414 33.2594 191.675 35.2026C192.438 36.3777 193.689 37.0444 194.989 37.109C194.999 38.0245 195.26 38.9482 195.795 39.773C197.299 42.09 200.396 42.7492 202.713 41.2455C203.499 40.7355 204.094 40.0421 204.479 39.258C205.54 39.6276 206.754 39.5205 207.769 38.8616C209.513 37.7297 210.01 35.3985 208.878 33.6545C208.199 32.6081 207.088 32.0109 205.931 31.9451C206.444 30.5358 206.312 28.911 205.433 27.5561C203.945 25.264 200.881 24.6119 198.589 26.0994C198.553 26.1231 198.517 26.1471 198.481 26.1715C198.426 26.0595 198.364 25.9495 198.294 25.8422C197.34 24.3723 195.375 23.9541 193.905 24.908C192.435 25.862 192.017 27.8269 192.971 29.2968Z"
        fill="#98CD63" />
    <path fill-rule="evenodd" clip-rule="evenodd"
        d="M196.168 40.299C196.186 40.2969 196.205 40.2946 196.223 40.2921C196.226 40.3279 196.23 40.3637 196.234 40.3995C196.505 42.7003 198.589 44.3461 200.89 44.0754C202.281 43.9118 203.433 43.0848 204.066 41.9479C204.892 42.3443 205.836 42.519 206.812 42.4041C209.555 42.0814 211.518 39.596 211.195 36.8528C211.086 35.9223 210.727 35.0817 210.195 34.3896C210.996 33.602 211.437 32.4657 211.296 31.2637C211.053 29.1989 209.182 27.722 207.117 27.9648C205.878 28.1106 204.851 28.8424 204.28 29.8506C203.243 28.7668 201.728 28.1656 200.124 28.3543C197.41 28.6735 195.469 31.1322 195.788 33.8459C195.793 33.889 195.799 33.932 195.805 33.9747C195.68 33.9746 195.554 33.9818 195.427 33.9967C193.686 34.2014 192.442 35.7782 192.646 37.5185C192.851 39.2589 194.428 40.5037 196.168 40.299Z"
        fill="#98CD63" />
    <path
        d="M198.446 37.1071C202.772 33.8328 209.17 30.4601 215.682 28.2728C216.262 28.0779 216.869 28.4713 216.941 29.0792C217.006 29.6337 216.597 30.1312 216.045 30.213C212.899 30.6788 206.294 32.4889 198.446 37.1071Z"
        fill="#A9E6C1" />
    <path
        d="M211.277 31.9716C210.983 32.1364 210.69 32.2852 210.403 32.417C211.586 32.352 212.456 32.6034 212.637 33.1526C212.932 34.0476 211.285 35.3946 208.959 36.1611C207.758 36.557 206.611 36.7207 205.741 36.6632C205.242 36.6958 204.862 36.6229 204.67 36.4363C203.935 36.0354 203.016 34.8336 202.326 33.2716C202.292 33.1945 202.259 33.1176 202.227 33.0409C202.133 32.8547 202.042 32.6619 201.954 32.4634C201.003 30.3101 200.836 28.2975 201.582 27.9682C202.252 27.6721 203.431 28.8373 204.354 30.6403C204.311 30.1215 204.301 29.5559 204.33 28.9653C204.347 28.6089 204.378 28.263 204.42 27.9322C204.402 27.6852 204.399 27.4268 204.412 27.1613C204.494 25.4755 205.209 24.1407 206.009 24.1799C206.629 24.2102 207.117 25.0578 207.267 26.2229C208.58 24.5168 210.239 23.6271 211.089 24.2197C211.996 24.8516 211.64 26.9295 210.294 28.8607C210.225 28.9592 210.155 29.0553 210.084 29.1491C210.091 29.2024 210.095 29.2573 210.098 29.3135C212.066 28.2661 213.913 27.9535 214.289 28.625C214.68 29.3234 213.331 30.8217 211.277 31.9716Z"
        fill="#A9E6C1" />
    <path
        d="M210.764 42.2936C210.562 42.0234 210.376 41.7524 210.207 41.4852C210.427 42.6494 210.292 43.5451 209.771 43.7967C208.923 44.2065 207.371 42.7508 206.306 40.5454C205.756 39.4066 205.443 38.2906 205.386 37.421C205.288 36.9304 205.311 36.5445 205.471 36.3297C205.771 35.5484 206.842 34.4797 208.3 33.5907C208.372 33.5468 208.444 33.504 208.516 33.4622C208.688 33.3445 208.867 33.2287 209.053 33.1157C211.063 31.8901 213.036 31.4608 213.46 32.1566C213.842 32.7822 212.841 34.1043 211.175 35.2555C211.684 35.1447 212.243 35.0606 212.832 35.0118C213.188 34.9824 213.535 34.9674 213.868 34.9658C214.111 34.9153 214.367 34.878 214.631 34.8561C216.313 34.7167 217.731 35.2504 217.797 36.048C217.848 36.6665 217.072 37.2621 215.936 37.5634C217.8 38.6414 218.9 40.1694 218.424 41.0901C217.916 42.0718 215.81 41.9913 213.719 40.9104C213.612 40.8553 213.508 40.7987 213.405 40.7407C213.353 40.7539 213.299 40.7656 213.244 40.7757C214.541 42.5889 215.093 44.3791 214.477 44.8399C213.835 45.3191 212.173 44.1791 210.764 42.2936Z"
        fill="#A9E6C1" />
    <path
        d="M192.427 34.2783C190.603 34.6212 189.397 36.3529 189.734 38.1462L196.34 36.9044C196.003 35.1111 194.251 33.9354 192.427 34.2783Z"
        fill="#FFAB9F" />
    <path
        d="M193.345 37.0039C193.827 39.5701 196.298 41.2594 198.865 40.777L199.075 41.8967C195.891 42.4953 192.824 40.3989 192.225 37.2144L193.345 37.0039Z"
        fill="#FCC8BF" />
    <path
        d="M192.721 35.8459C191.763 36.0261 191.127 36.924 191.302 37.8516L194.772 37.1991C194.598 36.2716 193.68 35.6657 192.721 35.8459Z"
        fill="#FCC8BF" />
    <path
        d="M196.258 28.3707C197.583 27.1363 199.641 27.1919 200.854 28.4947L196.055 32.9645C194.842 31.6617 194.933 29.605 196.258 28.3707Z"
        fill="#FFAB9F" />
    <path
        d="M197.867 30.6692C199.603 32.5336 199.5 35.4526 197.635 37.189L198.393 38.0024C200.707 35.8476 200.835 32.2252 198.681 29.9116L197.867 30.6692Z"
        fill="#FCC8BF" />
    <path
        d="M197.318 29.5095C198.015 28.8609 199.088 28.8815 199.716 29.5553L197.194 31.9039C196.566 31.23 196.622 30.158 197.318 29.5095Z"
        fill="#FCC8BF" />
    <path fill-rule="evenodd" clip-rule="evenodd"
        d="M183.813 45.2998C183.319 43.0804 184.717 40.8802 186.936 40.3856C189.155 39.891 191.356 41.2891 191.85 43.5085C191.87 43.5985 191.887 43.6885 191.901 43.7783L200.215 41.9254C201.842 41.5627 203.456 42.588 203.819 44.2156C204.181 45.8431 203.156 47.4566 201.528 47.8193L193.215 49.6722C193.544 51.7974 192.17 53.842 190.041 54.3166C187.821 54.8112 185.621 53.413 185.127 51.1936C184.867 50.0293 185.129 48.8702 185.756 47.9599C184.802 47.4024 184.073 46.4641 183.813 45.2998Z"
        fill="white" />
    <path
        d="M194.786 44.0652C194.228 41.5611 195.163 38.9595 197.187 37.3832L209.722 27.6213C219.279 20.1782 233.332 25.227 235.967 37.0506C238.602 48.8743 228.024 59.4126 216.21 56.7326L200.716 53.2176C198.214 52.65 196.263 50.6916 195.705 48.1874L194.786 44.0652Z"
        fill="#E19147" />
    <path
        d="M194.786 44.0651C194.136 41.1496 200.005 43.269 202.908 43.9752L205.187 44.5297C216.042 47.1711 227.567 45.8317 232.489 35.8015C233.977 32.7687 234.794 31.7866 235.967 37.0505C238.602 48.8742 228.024 59.4124 216.21 56.7324L200.716 53.2174C198.214 52.6498 196.263 50.6914 195.705 48.1873L194.786 44.0651Z"
        fill="#D58B48" />
    <path
        d="M221.444 34.0271C221.11 33.8969 220.734 34.0621 220.604 34.396C220.474 34.7299 220.639 35.1062 220.973 35.2364C221.307 35.3666 221.683 35.2015 221.813 34.8675C221.943 34.5336 221.778 34.1573 221.444 34.0271Z"
        fill="#FADDB1" />
    <path
        d="M225.05 30.1392C224.649 29.983 224.198 30.1812 224.042 30.5819C223.885 30.9826 224.083 31.4341 224.484 31.5904C224.885 31.7466 225.336 31.5484 225.493 31.1477C225.649 30.747 225.451 30.2955 225.05 30.1392Z"
        fill="#FADDB1" />
    <path
        d="M219.284 29.5629C218.817 29.3806 218.29 29.6118 218.108 30.0793C217.925 30.5468 218.157 31.0736 218.624 31.2559C219.092 31.4382 219.618 31.207 219.801 30.7394C219.983 30.2719 219.752 29.7452 219.284 29.5629Z"
        fill="#FADDB1" />
    <path
        d="M217.775 33.4326C217.174 33.1982 216.497 33.4955 216.263 34.0966C216.028 34.6977 216.326 35.3749 216.927 35.6093C217.528 35.8437 218.205 35.5464 218.439 34.9453C218.674 34.3443 218.376 33.667 217.775 33.4326Z"
        fill="#FADDB1" />
    <path
        d="M226.351 32.8757C225.75 32.6414 225.073 32.9386 224.839 33.5397C224.604 34.1408 224.901 34.8181 225.503 35.0524C226.104 35.2868 226.781 34.9895 227.015 34.3885C227.25 33.7874 226.952 33.1101 226.351 32.8757Z"
        fill="#FADDB1" />
    <path fill-rule="evenodd" clip-rule="evenodd"
        d="M188.004 50.8221C188.011 50.8389 188.018 50.8555 188.026 50.8721C187.993 50.8851 187.96 50.8986 187.927 50.9126C185.818 51.8069 184.834 54.2413 185.728 56.35C186.269 57.6251 187.373 58.4891 188.628 58.7751C188.48 59.6683 188.576 60.6125 188.955 61.5075C190.022 64.0217 192.924 65.1954 195.439 64.129C196.291 63.7673 196.99 63.1944 197.499 62.497C198.469 63.039 199.669 63.1431 200.771 62.6759C202.663 61.8732 203.547 59.6885 202.744 57.7961C202.263 56.6606 201.283 55.8884 200.168 55.6257C200.91 54.3416 201.06 52.737 200.437 51.2667C199.382 48.7796 196.51 47.6185 194.023 48.6734C193.984 48.6902 193.945 48.7074 193.906 48.7251C193.871 48.6065 193.83 48.4887 193.78 48.3723C193.104 46.7773 191.262 46.0327 189.667 46.7092C188.072 47.3857 187.328 49.2271 188.004 50.8221Z"
        fill="#98CD63" />
    <path fill-rule="evenodd" clip-rule="evenodd"
        d="M185.203 62.3781C185.221 62.3792 185.239 62.3801 185.257 62.3808C185.254 62.4162 185.252 62.4517 185.25 62.4873C185.118 64.774 186.865 66.7343 189.152 66.8659C190.535 66.9454 191.798 66.3379 192.61 65.3397C193.346 65.8673 194.235 66.1995 195.205 66.2553C197.932 66.4121 200.269 64.329 200.426 61.6025C200.479 60.6778 200.275 59.7978 199.875 59.0325C200.79 58.4031 201.415 57.3725 201.483 56.1778C201.601 54.1257 200.033 52.3664 197.981 52.2484C196.75 52.1776 195.624 52.7138 194.895 53.5973C194.072 52.3641 192.7 51.5186 191.105 51.4269C188.408 51.2718 186.096 53.3325 185.941 56.0296C185.938 56.0725 185.936 56.1152 185.935 56.1579C185.813 56.1363 185.689 56.1217 185.563 56.1144C183.833 56.015 182.35 57.3365 182.251 59.0662C182.152 60.7958 183.473 62.2787 185.203 62.3781Z"
        fill="#98CD63" />
    <path
        d="M207.003 55.2702C206.688 55.3801 206.377 55.4746 206.075 55.5537C207.238 55.6935 208.042 56.0877 208.124 56.6536C208.258 57.5756 206.423 58.6044 204.026 58.9515C202.789 59.1307 201.644 59.093 200.807 58.8878C200.315 58.8338 199.958 58.6977 199.803 58.4831C199.156 57.9665 198.468 56.6385 198.064 54.9992C198.044 54.9182 198.025 54.8377 198.007 54.7575C197.948 54.5601 197.892 54.3567 197.841 54.1484C197.284 51.8884 197.467 49.9001 198.25 49.7075C198.953 49.5343 199.902 50.8713 200.49 52.7852C200.537 52.2727 200.625 51.7203 200.754 51.1502C200.833 50.8062 200.922 50.4747 201.02 50.1598C201.044 49.9161 201.085 49.664 201.144 49.4077C201.514 47.7804 202.439 46.6035 203.211 46.7789C203.809 46.9149 204.139 47.824 204.085 48.9842C205.656 47.5485 207.425 46.967 208.151 47.6901C208.925 48.461 208.221 50.423 206.579 52.0723C206.496 52.1564 206.411 52.238 206.326 52.3171C206.323 52.3702 206.318 52.4243 206.311 52.4795C208.407 51.7975 210.259 51.8103 210.51 52.5287C210.77 53.2758 209.2 54.5032 207.003 55.2702Z"
        fill="#A9E6C1" />
    <path fill-rule="evenodd" clip-rule="evenodd"
        d="M199.882 64.9508C200.141 66.411 201.057 67.7367 202.48 68.4615C204.888 69.6875 207.833 68.7298 209.059 66.3225C209.078 66.2848 209.097 66.2471 209.115 66.2092C210.963 66.9264 213.09 66.1413 214.008 64.3373C214.915 62.5565 214.327 60.4071 212.708 59.3206C212.919 57.6357 212.074 55.9243 210.474 55.1093C209.24 54.4807 207.839 54.5291 206.694 55.1169C206.232 54.3381 205.552 53.6766 204.686 53.2354C202.252 51.9961 199.275 52.9641 198.035 55.3977C197.615 56.2231 197.448 57.1111 197.507 57.9726C196.416 58.1811 195.43 58.8736 194.887 59.94C193.954 61.7716 194.682 64.0127 196.514 64.9456C197.613 65.5053 198.86 65.4669 199.882 64.9508Z"
        fill="#98CD63" />
    <path
        d="M214.821 64.5582C214.854 64.3244 214.895 64.0982 214.943 63.8825C214.479 64.5691 213.97 64.9476 213.588 64.816C212.964 64.6015 212.911 63.1138 213.468 61.4932C213.756 60.6564 214.151 59.9478 214.551 59.4876C214.744 59.1957 214.945 59.015 215.13 58.987C215.665 58.7471 216.723 58.7438 217.886 59.0206C217.943 59.0342 218 59.0484 218.056 59.063C218.2 59.0894 218.346 59.1201 218.494 59.1553C220.096 59.5368 221.288 60.2958 221.156 60.8506C221.037 61.3494 219.889 61.5133 218.494 61.2642C218.801 61.4598 219.12 61.6936 219.437 61.9598C219.628 62.1204 219.808 62.2839 219.975 62.4474C220.12 62.5418 220.265 62.6493 220.408 62.7689C221.312 63.5285 221.753 64.4919 221.393 64.9208C221.114 65.2533 220.435 65.1667 219.722 64.757C220.117 66.2109 219.91 67.5119 219.22 67.7348C218.484 67.9725 217.477 66.8945 216.971 65.327C216.945 65.2471 216.921 65.1675 216.899 65.0883C216.867 65.0692 216.834 65.0485 216.802 65.0263C216.552 66.566 215.945 67.7275 215.411 67.6527C214.857 67.5749 214.593 66.1895 214.821 64.5582Z"
        fill="#A9E6C1" />
    <path fill-rule="evenodd" clip-rule="evenodd"
        d="M221.732 57.4898C221.721 57.4837 221.709 57.4778 221.697 57.472C221.709 57.449 221.721 57.4259 221.733 57.4025C222.496 55.905 221.9 54.0729 220.403 53.3102C219.497 52.849 218.469 52.8846 217.629 53.3159C217.291 52.7444 216.791 52.2591 216.156 51.9354C214.37 51.0261 212.186 51.7363 211.277 53.5218C210.968 54.1274 210.846 54.7789 210.889 55.411C210.089 55.564 209.365 56.0721 208.966 56.8545C208.282 58.1983 208.817 59.8426 210.16 60.527C210.967 60.9377 211.881 60.9095 212.632 60.5309C212.821 61.6022 213.494 62.5749 214.538 63.1067C216.304 64.0062 218.465 63.3036 219.365 61.5373C219.379 61.5092 219.393 61.4811 219.406 61.4528C219.482 61.5031 219.561 61.5496 219.643 61.5917C220.776 62.1686 222.162 61.718 222.739 60.5852C223.316 59.4525 222.865 58.0666 221.732 57.4898Z"
        fill="#98CD63" />
    <path
        d="M201.057 66.8265C200.907 66.5286 200.772 66.2329 200.654 65.9438C200.668 67.1151 200.383 67.9641 199.833 68.1196C198.936 68.373 197.675 66.6892 197.017 64.3589C196.677 63.1557 196.564 62.0153 196.657 61.1588C196.646 60.6643 196.734 60.2924 196.927 60.1108C197.354 59.4016 198.58 58.5449 200.152 57.9296C200.23 57.8993 200.307 57.8699 200.385 57.8415C200.572 57.7565 200.767 57.6745 200.967 57.5963C203.134 56.7481 205.129 56.6688 205.423 57.4192C205.687 58.0939 204.486 59.2094 202.666 60.0442C203.18 60.0237 203.739 60.0378 204.321 60.0915C204.673 60.1238 205.013 60.1688 205.338 60.2245C205.583 60.217 205.838 60.2246 206.1 60.2487C207.761 60.4018 209.05 61.1648 208.977 61.9528C208.921 62.5637 208.063 63.0104 206.906 63.1088C208.535 64.4785 209.344 66.155 208.722 66.9698C208.059 67.8385 206.022 67.3985 204.171 65.987C204.077 65.915 203.985 65.842 203.896 65.7679C203.843 65.7719 203.788 65.774 203.733 65.7743C204.684 67.7625 204.914 69.6003 204.235 69.9432C203.528 70.2997 202.106 68.9043 201.057 66.8265Z"
        fill="#A9E6C1" />
    <path
        d="M192.99 63.2118L193.112 63.25C196.217 64.2146 199.49 62.3571 200.254 59.1977C200.788 56.9898 199.957 54.6566 198.1 53.3477C194.959 51.1331 192.116 49.4864 190.486 50.4183C188.851 51.3534 188.73 54.8574 189.114 58.6271C189.336 60.7972 190.907 62.5645 192.99 63.2118Z"
        fill="white" />
    <path
        d="M192.712 60.0786C193.509 61.4735 195.287 61.9576 196.682 61.1598C198.077 60.3621 198.561 58.5846 197.763 57.1897C196.965 55.7948 195.188 55.3108 193.793 56.1085C192.398 56.9063 191.914 58.6838 192.712 60.0786Z"
        fill="#FFB168" />
    <path
        d="M198.088 61.8846L198.178 61.9765C200.452 64.2989 204.215 64.2176 206.387 61.7993C207.905 60.1094 208.281 57.6612 207.268 55.628C205.554 52.188 203.833 49.389 201.956 49.4359C200.073 49.4829 198.304 52.5094 196.853 56.0099C196.017 58.025 196.561 60.3262 198.088 61.8846Z"
        fill="white" />
    <path
        d="M199.33 58.9951C199.37 60.6015 200.705 61.8712 202.311 61.8311C203.918 61.791 205.188 60.4562 205.147 58.8498C205.107 57.2434 203.772 55.9737 202.166 56.0138C200.56 56.0539 199.29 57.3887 199.33 58.9951Z"
        fill="#FFB168" />
    <path
        d="M216.566 54.5188C218.187 55.1827 218.971 57.0122 218.318 58.605L212.451 56.2007C213.103 54.6079 214.946 53.8549 216.566 54.5188Z"
        fill="#FFAB9F" />
    <path
        d="M215.199 56.8625C214.265 59.1419 211.661 60.2325 209.381 59.2985L208.974 60.293C211.802 61.4521 215.035 60.0986 216.194 57.27L215.199 56.8625Z"
        fill="#FCC8BF" />
    <path
        d="M215.996 55.9111C216.847 56.2599 217.264 57.2106 216.926 58.0345L213.843 56.7712C214.181 55.9474 215.144 55.5623 215.996 55.9111Z"
        fill="#FCC8BF" />
    <path
        d="M218.506 60.6653C219.336 62.2072 218.78 64.1185 217.264 64.9344L214.258 59.351C215.774 58.5351 217.676 59.1235 218.506 60.6653Z"
        fill="#FFAB9F" />
    <path
        d="M215.961 61.6076C213.792 62.7752 211.088 61.9635 209.92 59.7945L208.974 60.3039C210.423 62.9955 213.779 64.0029 216.471 62.554L215.961 61.6076Z"
        fill="#FCC8BF" />
    <path
        d="M217.181 61.3784C217.617 62.1885 217.335 63.1873 216.551 63.6094L214.972 60.6757C215.756 60.2537 216.745 60.5683 217.181 61.3784Z"
        fill="#FCC8BF" />
    <path fill-rule="evenodd" clip-rule="evenodd"
        d="M293.769 114.955C293.754 114.974 293.74 114.994 293.726 115.014C293.688 114.984 293.65 114.955 293.612 114.926C291.154 113.079 287.664 113.575 285.817 116.033C284.7 117.52 284.44 119.384 284.952 121.033C283.815 121.463 282.783 122.21 281.999 123.254C279.797 126.185 280.388 130.346 283.319 132.548C284.313 133.295 285.449 133.721 286.602 133.843C286.625 135.333 287.312 136.798 288.597 137.763C290.803 139.421 293.935 138.976 295.593 136.77C296.587 135.446 296.825 133.789 296.379 132.317C298.37 132.313 300.335 131.408 301.623 129.694C303.801 126.794 303.217 122.678 300.317 120.499C300.271 120.465 300.225 120.431 300.178 120.397C300.292 120.278 300.401 120.15 300.503 120.014C301.9 118.155 301.525 115.515 299.666 114.117C297.806 112.72 295.166 113.095 293.769 114.955Z"
        fill="#7CAE4A" />
    <path fill-rule="evenodd" clip-rule="evenodd"
        d="M270.368 102.797C270.354 102.816 270.339 102.836 270.325 102.856C270.288 102.826 270.25 102.797 270.211 102.768C267.753 100.921 264.263 101.417 262.416 103.875C261.299 105.362 261.039 107.226 261.551 108.875C260.415 109.305 259.382 110.052 258.598 111.096C256.396 114.027 256.987 118.188 259.918 120.39C260.913 121.137 262.048 121.563 263.201 121.685C263.224 123.175 263.912 124.64 265.196 125.605C267.402 127.263 270.534 126.818 272.192 124.612C273.187 123.288 273.424 121.631 272.979 120.159C274.969 120.155 276.934 119.25 278.222 117.536C280.401 114.636 279.816 110.52 276.916 108.341C276.87 108.307 276.824 108.273 276.777 108.24C276.892 108.12 277 107.992 277.102 107.856C278.499 105.997 278.125 103.357 276.265 101.96C274.405 100.562 271.765 100.937 270.368 102.797Z"
        fill="#7CAE4A" />
    <path
        d="M261.685 108.604C261.559 109.021 261.42 109.422 261.271 109.802C262.313 108.681 263.347 108.136 264.008 108.484C265.084 109.052 264.759 111.78 263.283 114.576C262.521 116.02 261.601 117.2 260.741 117.926C260.306 118.404 259.888 118.676 259.542 118.674C258.499 118.96 256.568 118.666 254.528 117.832C254.427 117.791 254.327 117.749 254.229 117.706C253.974 117.617 253.717 117.52 253.457 117.414C250.644 116.264 248.686 114.542 249.084 113.568C249.442 112.692 251.583 112.719 254.055 113.569C253.551 113.125 253.035 112.608 252.533 112.033C252.23 111.686 251.948 111.337 251.691 110.991C251.453 110.778 251.218 110.541 250.992 110.282C249.559 108.641 249.028 106.759 249.806 106.08C250.41 105.552 251.623 105.903 252.806 106.852C252.499 104.089 253.245 101.776 254.566 101.565C255.975 101.34 257.505 103.591 257.984 106.593C258.008 106.746 258.03 106.898 258.048 107.049C258.101 107.092 258.155 107.139 258.207 107.189C259.099 104.453 260.536 102.507 261.487 102.795C262.476 103.094 262.565 105.695 261.685 108.604Z"
        fill="#A9E6C1" />
    <path
        d="M290.912 122.584C291.245 123.564 290.836 124.589 289.999 124.873C289.162 125.157 288.214 124.593 287.881 123.613C287.548 122.633 287.957 121.608 288.794 121.324C289.631 121.039 290.58 121.604 290.912 122.584Z"
        fill="#FFE5A0" />
    <path fill-rule="evenodd" clip-rule="evenodd"
        d="M292.634 103.393C292.61 106.597 290.497 109.296 287.598 110.209C288.82 111.386 289.575 113.043 289.562 114.874C289.541 117.658 287.748 120.014 285.262 120.881C288.11 122.158 290.084 125.028 290.059 128.349C290.025 132.831 286.365 136.436 281.884 136.403C280.691 136.394 279.561 136.128 278.544 135.658C277.389 137.413 275.396 138.565 273.138 138.548C269.598 138.522 266.75 135.63 266.776 132.09C266.803 128.55 269.694 125.702 273.234 125.728C273.568 125.731 273.896 125.759 274.215 125.81C274.224 125.784 274.233 125.757 274.241 125.731C271.87 124.864 270.185 122.579 270.205 119.91C270.224 117.385 271.762 115.228 273.945 114.298C272.655 113.13 271.849 111.438 271.863 109.56C271.889 106.068 274.741 103.259 278.233 103.285C278.263 99.3086 281.511 96.1091 285.487 96.139C289.464 96.1689 292.663 99.4168 292.634 103.393Z"
        fill="#98CD63" />
    <path fill-rule="evenodd" clip-rule="evenodd"
        d="M285.013 101.852C285.299 101.907 285.486 102.183 285.431 102.469C282.949 115.346 279.449 121.748 276.141 126.899C275.7 127.585 275.263 128.248 274.835 128.899C272.064 133.109 269.609 136.838 268.172 143.535C268.111 143.82 267.831 144.001 267.547 143.94C267.262 143.879 267.081 143.599 267.142 143.314C268.622 136.414 271.182 132.528 273.961 128.309C274.388 127.661 274.82 127.005 275.254 126.329C278.5 121.276 281.943 114.998 284.396 102.27C284.451 101.984 284.728 101.797 285.013 101.852Z"
        fill="#7CAE4A" />
    <path fill-rule="evenodd" clip-rule="evenodd"
        d="M256.111 116.696C256.111 116.723 256.111 116.751 256.112 116.779C256.057 116.778 256.002 116.777 255.947 116.777C252.413 116.777 249.549 119.619 249.549 123.124C249.549 125.244 250.596 127.121 252.206 128.274C251.458 129.444 251.025 130.831 251.025 132.319C251.025 136.499 254.441 139.887 258.654 139.887C260.083 139.887 261.42 139.497 262.564 138.819C263.614 140.162 265.257 141.026 267.103 141.026C270.274 141.026 272.845 138.476 272.845 135.33C272.845 133.442 271.919 131.769 270.494 130.733C272.32 129.366 273.501 127.196 273.501 124.751C273.501 120.617 270.123 117.265 265.955 117.265C265.888 117.265 265.822 117.266 265.756 117.268C265.779 117.08 265.79 116.889 265.79 116.696C265.79 114.044 263.624 111.895 260.951 111.895C258.278 111.895 256.111 114.044 256.111 116.696Z"
        fill="#7CAE4A" />
    <path fill-rule="evenodd" clip-rule="evenodd"
        d="M240.45 118.972C240.45 118.994 240.45 119.017 240.451 119.039C240.408 119.038 240.365 119.037 240.321 119.037C237.552 119.037 235.306 121.311 235.306 124.115C235.306 125.811 236.127 127.312 237.389 128.235C236.803 129.171 236.464 130.281 236.464 131.471C236.464 134.815 239.141 137.525 242.443 137.525C243.563 137.525 244.611 137.213 245.507 136.671C246.331 137.745 247.618 138.437 249.065 138.437C251.551 138.437 253.566 136.396 253.566 133.88C253.566 132.37 252.84 131.031 251.723 130.202C253.155 129.109 254.08 127.372 254.08 125.417C254.08 122.109 251.432 119.428 248.165 119.428C248.113 119.428 248.062 119.429 248.01 119.43C248.028 119.28 248.037 119.127 248.037 118.972C248.037 116.851 246.338 115.131 244.243 115.131C242.148 115.131 240.45 116.851 240.45 118.972Z"
        fill="#7CAE4A" />
    <path fill-rule="evenodd" clip-rule="evenodd"
        d="M233.755 120.855C233.759 120.876 233.764 120.898 233.768 120.92C233.726 120.926 233.683 120.934 233.641 120.942C230.919 121.453 229.127 124.075 229.639 126.796C229.948 128.442 231.029 129.748 232.437 130.41C232.032 131.427 231.901 132.567 232.118 133.722C232.728 136.968 235.854 139.104 239.099 138.494C240.026 138.32 240.862 137.94 241.57 137.412C242.724 138.994 244.723 139.862 246.776 139.476C249.622 138.941 251.495 136.201 250.96 133.356C250.578 131.328 249.077 129.793 247.215 129.273C248.196 127.987 248.648 126.307 248.326 124.592C247.722 121.382 244.631 119.269 241.42 119.872C241.369 119.882 241.319 119.892 241.268 119.903C241.258 119.754 241.239 119.604 241.211 119.453C240.824 117.395 238.841 116.039 236.782 116.426C234.724 116.813 233.368 118.796 233.755 120.855Z"
        fill="#98CD63" />
    <path
        d="M237.749 123.31C242.009 128.201 246.557 135.554 249.7 143.141C249.98 143.817 249.561 144.573 248.842 144.709C248.186 144.832 247.559 144.385 247.416 143.733C246.602 140.019 243.901 132.29 237.749 123.31Z"
        fill="#A9E6C1" />
    <path fill-rule="evenodd" clip-rule="evenodd"
        d="M241.922 112.027C241.922 112.687 242.043 113.319 242.265 113.902C240.534 114.101 239.191 115.563 239.191 117.338C239.191 119.248 240.747 120.796 242.667 120.796C242.894 120.796 243.117 120.774 243.332 120.733C244.326 123.505 246.988 125.489 250.116 125.489C254.093 125.489 257.317 122.282 257.317 118.326C257.317 115.231 255.344 112.594 252.582 111.593C252.36 108.863 250.062 106.716 247.261 106.716C244.312 106.716 241.922 109.093 241.922 112.027Z"
        fill="#98CD63" />
    <path
        d="M263.804 126.268C263.587 126.985 263.348 127.674 263.092 128.327C264.883 126.401 266.662 125.462 267.797 126.062C269.647 127.038 269.09 131.728 266.552 136.536C265.241 139.019 263.659 141.048 262.181 142.295C261.433 143.116 260.714 143.585 260.119 143.582C258.327 144.073 255.007 143.567 251.498 142.133C251.324 142.062 251.153 141.99 250.984 141.917C250.547 141.764 250.104 141.597 249.658 141.415C244.821 139.437 241.454 136.477 242.139 134.802C242.754 133.296 246.434 133.342 250.686 134.804C249.818 134.041 248.931 133.152 248.068 132.163C247.547 131.566 247.063 130.966 246.621 130.373C246.211 130.006 245.808 129.598 245.42 129.153C242.955 126.331 242.042 123.096 243.38 121.927C244.418 121.021 246.505 121.624 248.538 123.255C248.01 118.505 249.292 114.528 251.564 114.165C253.986 113.779 256.618 117.649 257.44 122.81C257.482 123.073 257.519 123.334 257.55 123.593C257.642 123.669 257.734 123.75 257.825 123.835C259.357 119.13 261.828 115.785 263.464 116.28C265.164 116.794 265.317 121.266 263.804 126.268Z"
        fill="#A9E6C1" />
    <path
        d="M247.566 127.944C247.926 129.005 247.484 130.115 246.577 130.422C245.671 130.73 244.644 130.119 244.284 129.058C243.924 127.997 244.367 126.888 245.273 126.58C246.179 126.272 247.206 126.883 247.566 127.944Z"
        fill="#FFE5A0" />
    <path fill-rule="evenodd" clip-rule="evenodd"
        d="M242.382 109.474C240.799 108.062 238.221 103.72 240.573 97.6523C242.307 98.9907 245.096 103.229 242.382 109.474ZM245.661 116.724C244.756 114.642 244.983 105.794 248.148 105.459C249.618 105.459 251.179 111.192 245.661 116.724ZM253.414 128.437C252.665 126.441 253.64 120.621 258.652 116.383C259.572 118.385 258.837 124.213 253.414 128.437ZM252.819 128.7C251.843 130.598 242.608 136.13 238.877 132.449C239.741 130.423 245.993 127.644 252.819 128.7ZM245.435 117.393C243.343 118.327 233.767 118.31 233.365 115.195C233.335 113.745 239.895 112.932 245.435 117.393ZM248.704 121.415C248.431 119.166 251.46 109.808 254.593 110.367C256.003 110.775 254.028 117.728 248.704 121.415ZM248.365 122.294C246.961 124.087 239.015 128.197 237.178 125.632C236.463 124.365 240.781 120.231 248.365 122.294ZM257.184 133.447C256.515 135.572 248.968 140.368 247.131 137.803C246.416 136.536 251.314 132.895 257.184 133.447ZM268.491 141.82C267.276 139.945 270.19 129.391 273.362 129.661C275.623 129.854 272.705 137.752 268.491 141.82ZM262.734 138.026C262.065 140.151 253.439 145.499 251.602 142.934C250.887 141.667 256.864 137.474 262.734 138.026Z"
        fill="#297BA9" />
    <path fill-rule="evenodd" clip-rule="evenodd"
        d="M242.161 106.72C242.405 106.685 242.63 106.855 242.665 107.1C243.537 113.207 247.702 120.898 253.586 128.024C259.462 135.14 267.002 141.629 274.547 145.353C274.767 145.462 274.859 145.73 274.751 145.953C274.643 146.176 274.377 146.268 274.156 146.159C266.472 142.366 258.837 135.786 252.902 128.598C246.975 121.42 242.691 113.574 241.785 107.228C241.75 106.983 241.918 106.755 242.161 106.72Z"
        fill="#19468A" />
    <path
        d="M277.088 120.106C279.341 122.6 279.146 126.448 276.652 128.701C274.158 130.954 270.31 130.759 268.056 128.265C265.803 125.771 265.999 121.923 268.492 119.67C270.986 117.417 274.835 117.612 277.088 120.106Z"
        fill="#FFE7E3" />
    <path
        d="M272.314 117.763C272.296 117.471 272.247 117.15 272.166 116.819C271.877 115.647 271.284 114.785 270.842 114.894C270.399 115.003 270.275 116.041 270.564 117.214C270.629 117.481 270.711 117.733 270.803 117.96C270.483 117.939 270.134 117.941 269.77 117.969C268.265 118.084 267.078 118.602 267.118 119.126C267.158 119.649 268.41 119.98 269.915 119.865C270.124 119.849 270.326 119.825 270.519 119.795C270.449 120.107 270.397 120.448 270.369 120.805C270.244 122.388 270.627 123.709 271.224 123.757C271.821 123.804 272.407 122.559 272.532 120.976C272.56 120.616 272.563 120.269 272.542 119.947C272.82 120.219 273.156 120.491 273.535 120.744C274.855 121.626 276.195 121.936 276.528 121.438C276.861 120.94 276.06 119.821 274.74 118.94C274.418 118.725 274.096 118.544 273.787 118.401C273.81 118.377 273.834 118.353 273.857 118.328C274.897 117.234 275.492 116.112 275.186 115.821C274.88 115.53 273.789 116.18 272.749 117.274C272.593 117.437 272.448 117.601 272.314 117.763Z"
        fill="#C54635" />
    <path
        d="M269.961 137.826C270.376 138.344 270.856 138.827 271.4 139.262C272.939 140.559 274.968 141.663 277.306 142.372C281.96 143.784 286.465 143.216 288.751 141.194C291.105 139.408 292.389 136.512 291.831 133.564C291.025 129.312 286.69 126.563 282.148 127.423C281.846 127.481 281.551 127.552 281.264 127.638C281.111 127.506 280.953 127.379 280.79 127.256C277.094 124.464 272.04 124.925 269.504 128.285C268.089 130.158 267.756 132.538 268.38 134.76C268.595 135.796 269.143 136.841 269.961 137.826Z"
        fill="#FFB168" />
    <path
        d="M283.491 127.831C283.797 127.439 284.096 126.918 284.339 126.32C284.936 124.854 284.971 123.484 284.418 123.258C283.865 123.033 282.933 124.039 282.336 125.505C282.075 126.148 281.921 126.773 281.878 127.29C281.847 126.842 281.752 126.331 281.59 125.802C281.126 124.289 280.287 123.205 279.716 123.38C279.146 123.555 279.059 124.923 279.523 126.436C279.627 126.775 279.75 127.093 279.884 127.38C279.54 127.19 279.158 127.01 278.749 126.849C276.908 126.125 275.212 126.057 274.96 126.697C274.708 127.337 275.996 128.443 277.837 129.167C278.411 129.393 278.971 129.555 279.477 129.652C279.411 129.756 279.346 129.862 279.282 129.971C278.23 131.765 277.926 133.542 278.603 133.939C279.281 134.336 280.683 133.203 281.735 131.408C281.975 131 282.175 130.592 282.335 130.201C282.508 130.68 282.749 131.193 283.051 131.708C284.104 133.502 285.506 134.634 286.183 134.237C286.861 133.839 286.556 132.063 285.503 130.268C285.484 130.237 285.465 130.205 285.447 130.174C287.335 130.699 288.979 130.698 289.128 130.169C289.278 129.636 287.856 128.77 285.952 128.234C285.026 127.974 284.157 127.839 283.491 127.831Z"
        fill="#C54635" />
    <path
        d="M268.388 130.586C270.908 133.376 270.689 137.68 267.9 140.2C265.111 142.72 260.807 142.502 258.287 139.712C255.767 136.923 255.985 132.619 258.774 130.099C261.564 127.579 265.868 127.797 268.388 130.586Z"
        fill="#FFE7E3" />
    <path
        d="M262.946 128.202C262.925 127.86 262.868 127.484 262.773 127.095C262.434 125.719 261.738 124.708 261.219 124.836C260.7 124.964 260.554 126.182 260.893 127.558C260.97 127.872 261.066 128.167 261.174 128.433C260.798 128.409 260.389 128.411 259.962 128.444C258.196 128.579 256.803 129.187 256.85 129.801C256.897 130.415 258.367 130.803 260.132 130.668C260.377 130.649 260.614 130.621 260.841 130.586C260.759 130.952 260.698 131.352 260.665 131.772C260.518 133.628 260.967 135.179 261.667 135.234C262.368 135.29 263.055 133.829 263.202 131.972C263.235 131.549 263.238 131.142 263.214 130.765C263.541 131.084 263.935 131.403 264.379 131.7C265.928 132.734 267.5 133.099 267.89 132.514C268.281 131.93 267.341 130.617 265.792 129.583C265.415 129.331 265.037 129.119 264.675 128.951C264.702 128.922 264.729 128.894 264.757 128.865C265.977 127.582 266.675 126.265 266.316 125.923C265.957 125.582 264.677 126.345 263.456 127.628C263.274 127.82 263.103 128.012 262.946 128.202Z"
        fill="#C54635" />
    <path
        d="M272.937 109.614C273.334 110.782 272.846 112.003 271.849 112.341C270.852 112.68 269.722 112.008 269.325 110.84C268.929 109.673 269.416 108.452 270.413 108.113C271.411 107.774 272.541 108.446 272.937 109.614Z"
        fill="#FFE5A0" />
    <path
        d="M267.076 107.287C267.299 107.944 267.025 108.631 266.463 108.822C265.902 109.012 265.266 108.634 265.043 107.977C264.82 107.32 265.094 106.633 265.655 106.442C266.217 106.252 266.853 106.63 267.076 107.287Z"
        fill="#FFE5A0" />
    <path
        d="M267.276 113.698C267.499 114.355 267.225 115.042 266.664 115.233C266.102 115.423 265.467 115.045 265.243 114.388C265.02 113.731 265.294 113.044 265.856 112.853C266.417 112.663 267.053 113.041 267.276 113.698Z"
        fill="#FFE5A0" />
    <path
        d="M238.624 128.205C238.848 128.862 238.573 129.549 238.012 129.74C237.451 129.931 236.815 129.552 236.592 128.895C236.369 128.238 236.643 127.551 237.204 127.361C237.766 127.17 238.401 127.548 238.624 128.205Z"
        fill="#FFE5A0" />
    <path
        d="M267.675 164.979C251.943 164.979 239.191 152.226 239.191 136.495H296.159C296.159 152.226 283.406 164.979 267.675 164.979Z"
        fill="#97C7E2" />
    <path fill-rule="evenodd" clip-rule="evenodd"
        d="M243.236 151.134C248.215 159.429 257.297 164.979 267.675 164.979C278.053 164.979 287.135 159.429 292.114 151.134H243.236ZM241.268 147.193H294.082C294.38 146.457 294.649 145.706 294.886 144.941H240.464C240.701 145.706 240.969 146.457 241.268 147.193ZM239.545 140.999H295.805C296.038 139.532 296.159 138.027 296.159 136.495H239.191C239.191 138.027 239.312 139.532 239.545 140.999Z"
        fill="#BDDDEF" />
    <ellipse cx="48.5474" cy="127.381" rx="37.5474" ry="31.3808" fill="#FFE9B1" />
    <circle cx="67.0077" cy="114.791" r="3.96013" transform="rotate(-24.2957 67.0077 114.791)"
        fill="#D94314" />
    <path
        d="M68.1255 110.76C68.1725 110.576 68.2062 110.368 68.2215 110.146C68.2758 109.362 68.08 108.71 67.7842 108.69C67.4884 108.669 67.2046 109.288 67.1503 110.072C67.1379 110.251 67.1385 110.423 67.1504 110.582C66.9558 110.506 66.7393 110.437 66.5085 110.382C65.5531 110.154 64.7143 110.239 64.6351 110.571C64.5558 110.903 65.266 111.357 66.2213 111.585C66.3535 111.617 66.4835 111.643 66.6096 111.662C66.5039 111.842 66.4041 112.043 66.3153 112.259C65.9229 113.214 65.8971 114.109 66.2578 114.257C66.6184 114.405 67.2289 113.751 67.6213 112.795C67.7107 112.577 67.7811 112.363 67.8322 112.159C67.9508 112.383 68.1047 112.618 68.289 112.85C68.9316 113.659 69.7001 114.118 70.0053 113.876C70.3106 113.633 70.037 112.781 69.3944 111.972C69.238 111.775 69.0741 111.599 68.9114 111.449C68.9306 111.439 68.9499 111.428 68.9693 111.418C69.8313 110.947 70.4233 110.37 70.2916 110.128C70.1599 109.887 69.3542 110.073 68.4922 110.544C68.3634 110.614 68.2407 110.687 68.1255 110.76Z"
        fill="#872202" />
    <path
        d="M26.9763 113.049C29.0331 111.072 31.9237 110.22 34.7243 110.765L58.9893 115.486C64.0223 116.466 68.7463 118.64 72.7634 121.826L73.0897 122.085L73.1218 122.784C73.4144 129.149 71.1212 135.362 66.7633 140.01C64.2068 142.737 60.2854 143.7 56.7592 142.46C51.4133 140.58 43.8534 137.913 40.759 136.781C37.8628 135.721 32.5628 132.991 28.5955 130.87C25.6334 129.287 24.1245 125.687 24.2262 122.33C24.2751 120.717 24.3825 119.24 24.4939 118.048C24.6729 116.133 25.5897 114.382 26.9763 113.049Z"
        fill="#EE996F" />
    <path
        d="M30.8393 128.453C23.4914 125.74 24.2 121.6 24.2 119.2C24.2 116.8 25.4 115.2 25.4 115.2C25.4 116 21.5272 121.672 29.1248 124.657C32.5538 126.004 38.1872 124.657 49.0866 130.535C58.1537 135.425 64.0273 138.495 67.3338 134.699C69.9089 131.742 71.7834 124.412 72.8447 121.473C74.1918 126.494 71.0232 133.696 67.3338 137.271C65.0583 139.475 62.4809 143.51 51.6583 136.413C44.188 131.515 36.3502 130.488 30.8393 128.453Z"
        fill="#FCC1A5" />
    <path
        d="M27.1856 110.351C30.458 106.554 35.7478 105.534 40.7026 106.293C44.4644 106.869 49.3345 107.939 54.6322 109.924C61.3424 112.439 66.5395 115.938 69.7794 118.494C72.3692 120.537 73.9392 123.707 72.831 126.814C72.5416 127.626 72.1495 128.506 71.6201 129.433C68.259 135.315 60.0385 134.519 54.3244 130.88C51.8492 129.304 49.0791 127.791 46.2698 126.739C42.2244 125.223 37.1449 123.616 32.8097 122.315C27.5086 120.723 23.4175 114.95 26.9218 110.665C27.0086 110.559 27.0966 110.455 27.1856 110.351Z"
        fill="#C78050" />
    <path
        d="M51.2847 117.193C51.1664 117.277 51.0547 117.365 50.9507 117.453C51.1926 117.003 51.2538 116.617 51.0724 116.446C50.7769 116.167 49.9496 116.563 49.2244 117.331C48.85 117.728 48.4939 118.326 48.1264 118.381C47.643 118.417 46.9885 118.064 47.9063 118.961C48.217 119.232 48.655 119.895 49.1387 120.45C49.1626 120.477 49.1866 120.504 49.2106 120.531C49.2661 120.602 49.3247 120.673 49.3862 120.743C50.0529 121.509 50.8083 121.942 51.0733 121.711C51.3116 121.504 51.0725 120.83 50.5373 120.14C50.732 120.252 50.951 120.359 51.187 120.456C51.3293 120.514 51.47 120.566 51.6069 120.61C51.7 120.662 51.8003 120.711 51.9064 120.754C52.5798 121.03 53.2319 120.996 53.3629 120.676C53.4645 120.429 53.223 120.083 52.7954 119.811C53.702 119.61 54.3531 119.125 54.2773 118.685C54.1965 118.215 53.3199 117.974 52.3194 118.146C52.2684 118.155 52.2181 118.165 52.1685 118.175C52.1488 118.163 52.1282 118.151 52.1068 118.14C52.8759 117.563 53.3361 116.899 53.1427 116.629C52.9415 116.349 52.1097 116.601 51.2847 117.193Z"
        fill="#297BA9" />
    <path
        d="M51.8239 108.479C51.8073 108.665 51.7984 108.847 51.7968 109.022C51.562 108.409 51.2382 108.027 50.9198 108.06C50.401 108.113 50.0932 109.249 50.2322 110.598C50.304 111.294 50.4808 111.911 50.7066 112.337C50.803 112.596 50.9257 112.771 51.0633 112.826C51.4321 113.107 52.247 113.299 53.192 113.294C53.2387 113.294 53.285 113.293 53.331 113.292C53.4463 113.298 53.5643 113.3 53.6844 113.299C54.9872 113.293 56.0414 112.922 56.0391 112.471C56.037 112.065 55.1817 111.733 54.0624 111.675C54.3342 111.579 54.6221 111.456 54.9139 111.308C55.0899 111.219 55.2577 111.125 55.4152 111.029C55.5441 110.982 55.6754 110.925 55.8066 110.859C56.6393 110.436 57.1518 109.773 56.9512 109.378C56.7956 109.072 56.257 109.017 55.6347 109.204C56.1993 108.155 56.2734 107.116 55.7817 106.821C55.2575 106.506 54.2886 107.156 53.6176 108.272C53.5834 108.329 53.5507 108.386 53.5193 108.443C53.491 108.452 53.4623 108.462 53.4333 108.474C53.5172 107.243 53.2572 106.239 52.833 106.201C52.3918 106.162 51.94 107.182 51.8239 108.479Z"
        fill="#297BA9" />
    <path fill-rule="evenodd" clip-rule="evenodd"
        d="M54.2089 109.316C54.1267 109.237 53.9959 109.239 53.9168 109.322C52.4687 110.827 48.4747 115.93 46.6105 119.284C46.5551 119.383 46.591 119.509 46.6908 119.565C46.7905 119.62 46.9163 119.584 46.9718 119.485C48.8098 116.178 52.7746 111.105 54.2146 109.608C54.2938 109.526 54.2912 109.395 54.2089 109.316Z"
        fill="#446598" />
    <path
        d="M42.7707 111.828C42.9065 111.963 43.0439 112.088 43.1806 112.204C42.5448 111.989 42.0319 111.995 41.85 112.267C41.5538 112.711 42.2489 113.695 43.4026 114.465C43.9983 114.863 44.5998 115.125 45.0831 115.226C45.3506 115.319 45.5688 115.336 45.7018 115.264C46.1636 115.156 46.8467 114.639 47.4594 113.891C47.4896 113.854 47.5193 113.817 47.5483 113.78C47.6278 113.692 47.7068 113.601 47.7846 113.506C48.6292 112.474 49.0244 111.401 48.6673 111.109C48.3462 110.846 47.5264 111.303 46.7504 112.148C46.8523 111.871 46.9433 111.564 47.0167 111.238C47.0611 111.04 47.0966 110.847 47.1236 110.66C47.1708 110.528 47.2118 110.388 47.2448 110.241C47.4545 109.308 47.266 108.472 46.8238 108.372C46.4809 108.295 46.0862 108.684 45.8284 109.297C45.3695 108.167 44.5985 107.431 44.0448 107.626C43.4545 107.834 43.3349 109.022 43.7776 110.279C43.8002 110.343 43.8238 110.406 43.8483 110.468C43.8368 110.496 43.8261 110.526 43.8161 110.556C42.9005 109.687 41.9396 109.237 41.6329 109.547C41.314 109.869 41.8234 110.89 42.7707 111.828Z"
        fill="#297BA9" />
    <path fill-rule="evenodd" clip-rule="evenodd"
        d="M44.9861 110.494C44.8701 110.507 44.7868 110.612 44.8 110.728C45.0424 112.852 45.8828 118.017 47.3105 121.674C47.353 121.783 47.4756 121.836 47.5844 121.794C47.6932 121.751 47.7469 121.629 47.7045 121.52C46.2967 117.914 45.4613 112.792 45.2202 110.68C45.207 110.564 45.1022 110.48 44.9861 110.494Z"
        fill="#446598" />
    <path fill-rule="evenodd" clip-rule="evenodd"
        d="M55.6613 145.027C56.8553 145.528 60.9746 147.22 63.7494 144.346C62.7911 143.431 58.4425 141.907 55.6613 145.027ZM54.6832 144.879C56.0755 144.833 60.7292 141.291 60.1014 139.465C59.7234 138.657 55.1248 139.673 54.6832 144.879ZM54.8552 145.18C54.8731 146.573 57.3447 151.831 59.1836 151.24C59.9987 150.878 58.765 147.062 54.8552 145.18Z"
        fill="#297BA9" />
    <path fill-rule="evenodd" clip-rule="evenodd"
        d="M57.5673 144.575C57.5233 144.43 57.3701 144.348 57.2251 144.392C53.6154 145.487 48.2666 145.153 42.7816 143.712C37.3037 142.272 31.7381 139.74 27.7024 136.489C27.5844 136.394 27.4117 136.412 27.3166 136.53C27.2215 136.648 27.2401 136.821 27.3581 136.916C31.4684 140.228 37.1095 142.789 42.6421 144.243C48.1675 145.695 53.633 146.055 57.3845 144.917C57.5295 144.873 57.6113 144.72 57.5673 144.575Z"
        fill="#19468A" />
    <path fill-rule="evenodd" clip-rule="evenodd"
        d="M44.3767 144.785C44.912 145.964 46.7845 150.005 50.7732 149.781C50.6917 148.459 48.5367 144.386 44.3767 144.785ZM43.7596 144.012C44.8122 144.924 50.633 145.488 51.4136 143.721C51.685 142.872 47.6205 140.493 43.7596 144.012ZM43.6807 144.35C42.7474 145.384 40.9885 150.921 42.7394 151.737C43.5832 152.025 45.2711 148.387 43.6807 144.35Z"
        fill="#297BA9" />
    <path fill-rule="evenodd" clip-rule="evenodd"
        d="M34.7804 135.072C35.3158 136.252 37.1883 140.292 41.177 140.069C41.0955 138.747 38.9405 134.673 34.7804 135.072ZM34.1634 134.299C35.216 135.212 41.0368 135.775 41.8174 134.008C42.0888 133.159 38.0243 130.78 34.1634 134.299ZM34.0845 134.637C33.1512 135.672 31.3923 141.208 33.1432 142.024C33.987 142.313 35.6749 138.674 34.0845 134.637ZM36.6195 141.958C36.3881 142.755 36.8854 146.181 38.0363 146.163C38.5637 146.098 38.5223 143.708 36.6195 141.958Z"
        fill="#297BA9" />
    <circle cx="35.5848" cy="132.702" r="3.41135" transform="rotate(-33.2069 35.5848 132.702)"
        fill="#D94314" />
    <path
        d="M35.998 129.122C36.0135 128.959 36.0143 128.777 35.9978 128.587C35.9394 127.913 35.6858 127.384 35.4313 127.406C35.1768 127.428 35.0178 127.992 35.0763 128.667C35.0896 128.821 35.1131 128.967 35.1444 129.101C34.9686 129.062 34.7752 129.032 34.5714 129.016C33.728 128.95 33.0255 129.134 33.0023 129.427C32.9792 129.72 33.6442 130.012 34.4876 130.079C34.6044 130.088 34.7184 130.092 34.8283 130.092C34.7624 130.259 34.7041 130.443 34.6575 130.639C34.451 131.505 34.5485 132.27 34.8752 132.347C35.2018 132.425 35.634 131.787 35.8404 130.921C35.8875 130.724 35.9187 130.532 35.9351 130.352C36.0659 130.527 36.2283 130.706 36.416 130.879C37.0709 131.482 37.7861 131.77 38.0135 131.523C38.241 131.276 37.8944 130.587 37.2396 129.984C37.0802 129.838 36.9173 129.71 36.7587 129.603C36.7737 129.592 36.7888 129.581 36.8038 129.569C37.4746 129.053 37.9014 128.483 37.7571 128.296C37.6128 128.108 36.952 128.374 36.2812 128.889C36.181 128.966 36.0862 129.044 35.998 129.122Z"
        fill="#872202" />
    <circle cx="22.9411" cy="131.443" r="3.71257" transform="rotate(-42.0961 22.9411 131.443)"
        fill="#D94314" />
    <path
        d="M22.7837 127.525C22.7729 127.347 22.7432 127.151 22.6934 126.949C22.5172 126.234 22.1556 125.708 21.8856 125.774C21.6157 125.841 21.5397 126.474 21.7159 127.19C21.7562 127.353 21.806 127.506 21.8622 127.645C21.6666 127.632 21.4538 127.634 21.2319 127.651C20.3138 127.721 19.5894 128.037 19.6139 128.356C19.6383 128.675 20.4024 128.877 21.3205 128.807C21.4475 128.797 21.5709 128.783 21.689 128.764C21.6462 128.955 21.6146 129.162 21.5973 129.381C21.5209 130.346 21.7544 131.152 22.1187 131.181C22.4831 131.21 22.8404 130.451 22.9167 129.485C22.9341 129.265 22.9355 129.054 22.9228 128.857C23.0928 129.023 23.2977 129.189 23.5286 129.343C24.3341 129.881 25.1516 130.071 25.3545 129.767C25.5575 129.463 25.0691 128.781 24.2636 128.243C24.0676 128.112 23.8709 128.002 23.6825 127.914C23.6967 127.899 23.711 127.884 23.7252 127.87C24.3598 127.202 24.7228 126.517 24.5361 126.34C24.3493 126.162 23.6835 126.559 23.049 127.226C22.9542 127.326 22.8654 127.426 22.7837 127.525Z"
        fill="#872202" />
    <circle cx="28.4442" cy="137.877" r="4.50882" transform="rotate(-24.2957 28.4442 137.877)"
        fill="#D94314" />
    <path
        d="M29.3766 132.872C29.4365 132.638 29.4793 132.372 29.4988 132.091C29.5679 131.093 29.3188 130.263 28.9423 130.237C28.5659 130.211 28.2047 130.999 28.1357 131.996C28.1199 132.224 28.1207 132.443 28.1358 132.645C27.8882 132.548 27.6127 132.461 27.3189 132.391C26.1032 132.101 25.0359 132.208 24.935 132.631C24.8341 133.054 25.7379 133.632 26.9536 133.922C27.1218 133.962 27.2872 133.995 27.4476 134.02C27.3132 134.248 27.1861 134.504 27.0732 134.779C26.5738 135.995 26.541 137.133 26.9999 137.322C27.4589 137.51 28.2357 136.677 28.735 135.461C28.8488 135.184 28.9384 134.911 29.0034 134.652C29.1543 134.937 29.3502 135.237 29.5847 135.532C30.4025 136.561 31.3803 137.145 31.7687 136.837C32.1572 136.528 31.8091 135.443 30.9913 134.414C30.7923 134.164 30.5838 133.939 30.3766 133.748C30.4012 133.735 30.4257 133.722 30.4503 133.708C31.5473 133.109 32.3007 132.375 32.133 132.068C31.9654 131.761 30.9402 131.998 29.8433 132.597C29.6794 132.686 29.5232 132.779 29.3766 132.872Z"
        fill="#872202" />
    <path
        d="M28.6 112.8C29.0701 110.748 31.2255 110.019 32.7076 109.6C34.4177 109.6 30.0855 113.057 33.0496 114.314C36.0138 115.572 36.64 118.4 34.6457 118.4C33.2776 118.4 31.8 118 30.6 117.2C29.4884 116.459 28.1441 114.791 28.6 112.8Z"
        fill="#DE9969" />
    <path
        d="M71.1949 126.067C69.737 128.037 68.0055 131.365 66.3541 131.147C64.684 130.382 69.9258 125.371 67.0888 123.31C64.2236 121.228 64.667 117.823 66.6147 118.715C67.9507 119.327 70.3492 120.561 71.2587 121.516C72.259 122.567 72.6092 124.155 71.1949 126.067Z"
        fill="#DE9969" />
    <mask id="mask0_1435_9238" style="mask-type:alpha" maskUnits="userSpaceOnUse" x="106" y="82"
        width="103" height="103">
        <circle cx="157.5" cy="133.5" r="50.8" fill="#D1D0D0" />
    </mask>
    <g mask="url(#mask0_1435_9238)">
        <circle cx="157.5" cy="133.5" r="50.8" fill="#D1D0D0" />
        <path fill-rule="evenodd" clip-rule="evenodd"
            d="M203.554 165.799C202.449 163.699 201.201 161.686 199.823 159.773L199.834 159.777C199.65 159.52 199.455 159.262 199.255 159.001C199.078 158.764 198.898 158.529 198.717 158.295C197.706 156.955 196.687 155.433 196.324 153.254H196.321C196.053 132.7 179.322 116.121 158.723 116.121C138.124 116.121 121.394 132.7 121.125 153.254H121.122C120.759 155.433 119.74 156.955 118.729 158.295C118.548 158.529 118.368 158.764 118.191 159.001C117.991 159.262 117.796 159.52 117.613 159.777L117.623 159.773C116.245 161.686 114.997 163.699 113.892 165.799H203.554Z"
            fill="#297BA9" />
        <circle cx="159.1" cy="184.7" r="48.4" fill="#297BA9" />
        <path
            d="M141.154 135.119C141.154 136.458 142.239 137.543 143.577 137.543C144.916 137.543 146.001 136.458 146.001 135.119C146.001 133.781 144.916 132.696 143.577 132.696C142.239 132.696 141.154 133.781 141.154 135.119Z"
            fill="white" />
        <path
            d="M157.512 135.119C157.512 136.458 158.596 137.543 159.935 137.543C161.273 137.543 162.358 136.458 162.358 135.119C162.358 133.781 161.273 132.696 159.935 132.696C158.596 132.696 157.512 133.781 157.512 135.119Z"
            fill="white" />
        <path fill-rule="evenodd" clip-rule="evenodd"
            d="M138.125 145.418C138.125 143.745 139.486 142.389 141.165 142.389H162.953C164.632 142.389 165.993 143.745 165.993 145.418C165.993 147.091 164.632 148.447 162.953 148.447H141.165C139.486 148.447 138.125 147.091 138.125 145.418Z"
            fill="white" />
        <path fill-rule="evenodd" clip-rule="evenodd"
            d="M187.063 110.722C188.721 110.31 190.162 109.127 190.833 107.415C191.932 104.608 190.549 101.442 187.742 100.343C186.759 99.9574 185.731 99.877 184.764 100.056C184.084 98.9043 183.029 97.963 181.687 97.4374C180.436 96.9473 179.122 96.8914 177.912 97.197C177.345 96.5249 176.608 95.9803 175.732 95.6371C172.926 94.5376 169.759 95.9213 168.66 98.7276C167.979 100.466 168.25 102.343 169.223 103.78L165.146 117.22C164.571 119.117 165.55 121.137 167.396 121.86L176.103 125.272C177.948 125.995 180.039 125.177 180.905 123.395L187.063 110.722Z"
            fill="white" />
    </g>
</svg>
