<svg width="24" height="24" viewBox="0 0 24 24" fill="none" xmlns="http://www.w3.org/2000/svg">
<path fill-rule="evenodd" clip-rule="evenodd" d="M1.5 12C1.5 11.1716 2.17157 10.5 3 10.5H21C21.8284 10.5 22.5 11.1716 22.5 12C22.5 12.8284 21.8284 13.5 21 13.5H3C2.17157 13.5 1.5 12.8284 1.5 12Z" fill="black"/>
<path fill-rule="evenodd" clip-rule="evenodd" d="M13.0607 1.93934C13.6464 2.52513 13.6464 3.47487 13.0607 4.06066L5.12132 12L13.0607 19.9393C13.6464 20.5251 13.6464 21.4749 13.0607 22.0607C12.4749 22.6464 11.5251 22.6464 10.9393 22.0607L1.93934 13.0607C1.35355 12.4749 1.35355 11.5251 1.93934 10.9393L10.9393 1.93934C11.5251 1.35355 12.4749 1.35355 13.0607 1.93934Z" fill="black"/>
</svg>
