<svg width="24" height="24" viewBox="0 0 24 24" fill="none" xmlns="http://www.w3.org/2000/svg">
<rect width="24" height="24" rx="12" fill="black" fill-opacity="0.6"/>
<path fill-rule="evenodd" clip-rule="evenodd" d="M16.2803 7.71967C16.5732 8.01256 16.5732 8.48744 16.2803 8.78033L8.78033 16.2803C8.48744 16.5732 8.01256 16.5732 7.71967 16.2803C7.42678 15.9874 7.42678 15.5126 7.71967 15.2197L15.2197 7.71967C15.5126 7.42678 15.9874 7.42678 16.2803 7.71967Z" fill="white"/>
<path fill-rule="evenodd" clip-rule="evenodd" d="M7.71967 7.71967C8.01256 7.42678 8.48744 7.42678 8.78033 7.71967L16.2803 15.2197C16.5732 15.5126 16.5732 15.9874 16.2803 16.2803C15.9874 16.5732 15.5126 16.5732 15.2197 16.2803L7.71967 8.78033C7.42678 8.48744 7.42678 8.01256 7.71967 7.71967Z" fill="white"/>
</svg>
