<svg width="24" height="24" viewBox="0 0 24 24" fill="none" xmlns="http://www.w3.org/2000/svg">
<path fill-rule="evenodd" clip-rule="evenodd" d="M17.323 4.34883V4.27295C17.323 2.6161 15.9798 1.27295 14.323 1.27295H9.67664C8.01978 1.27295 6.67664 2.61609 6.67664 4.27295V4.34883H3.35352C2.80123 4.34883 2.35352 4.79654 2.35352 5.34883C2.35352 5.90111 2.80123 6.34883 3.35352 6.34883H3.97472L3.97472 19.7272C3.97472 21.3841 5.31786 22.7272 6.97472 22.7272L17.025 22.7272C18.6819 22.7272 20.025 21.3841 20.025 19.7272V6.34883H20.6462C21.1985 6.34883 21.6462 5.90111 21.6462 5.34883C21.6462 4.79654 21.1985 4.34883 20.6462 4.34883H17.323ZM15.323 4.34883V4.27295C15.323 3.72067 14.8753 3.27295 14.323 3.27295L9.67664 3.27295C9.12435 3.27295 8.67664 3.72066 8.67664 4.27295V4.34883L15.323 4.34883ZM18.025 6.34883L5.97472 6.34883L5.97472 19.7272C5.97472 20.2795 6.42243 20.7272 6.97472 20.7272L17.025 20.7272C17.5773 20.7272 18.025 20.2795 18.025 19.7272L18.025 6.34883ZM14.1615 9.80904C14.7138 9.80904 15.1615 10.2568 15.1615 10.809V15.3526C15.1615 15.9049 14.7138 16.3526 14.1615 16.3526C13.6092 16.3526 13.1615 15.9049 13.1615 15.3526V10.809C13.1615 10.2568 13.6092 9.80904 14.1615 9.80904ZM10.8383 10.809C10.8383 10.2568 10.3906 9.80904 9.83827 9.80904C9.28599 9.80904 8.83827 10.2568 8.83827 10.809V15.3526C8.83827 15.9049 9.28599 16.3526 9.83827 16.3526C10.3906 16.3526 10.8383 15.9049 10.8383 15.3526V10.809Z" fill="black"/>
</svg>
