<svg width="24" height="24" viewBox="0 0 24 24" fill="none" xmlns="http://www.w3.org/2000/svg">
<path fill-rule="evenodd" clip-rule="evenodd" d="M22 12C22 17.5228 17.5228 22 12 22C6.47715 22 2 17.5228 2 12C2 6.47715 6.47715 2 12 2C17.5228 2 22 6.47715 22 12ZM15.9238 8.70869C16.0541 8.31781 15.6822 7.94594 15.2913 8.07624L10.1172 9.80095C9.96786 9.85072 9.8507 9.96788 9.80094 10.1172L8.07622 15.2913C7.94593 15.6822 8.3178 16.0541 8.70868 15.9238L13.8828 14.1991C14.0321 14.1493 14.1493 14.0321 14.1991 13.8828L15.9238 8.70869Z" fill="black"/>
</svg>
