<svg width="24" height="24" viewBox="0 0 24 24" fill="none" xmlns="http://www.w3.org/2000/svg">
<path fill-rule="evenodd" clip-rule="evenodd" d="M20 12C20 16.4183 16.4183 20 12 20C7.58172 20 4 16.4183 4 12C4 7.58172 7.58172 4 12 4C16.4183 4 20 7.58172 20 12ZM22 12C22 17.5228 17.5228 22 12 22C6.47715 22 2 17.5228 2 12C2 6.47715 6.47715 2 12 2C17.5228 2 22 6.47715 22 12ZM15.2914 8.07621C15.6823 7.94591 16.0542 8.31778 15.9239 8.70866L14.1992 13.8828C14.1494 14.0321 14.0322 14.1493 13.8829 14.199L8.70878 15.9237C8.3179 16.054 7.94603 15.6822 8.07633 15.2913L9.80104 10.1171C9.85081 9.96785 9.96797 9.85069 10.1173 9.80092L15.2914 8.07621Z" fill="black"/>
</svg>
