<svg width="24" height="24" viewBox="0 0 24 24" fill="none" xmlns="http://www.w3.org/2000/svg">
<path fill-rule="evenodd" clip-rule="evenodd" d="M11.9999 21.9721C12.5506 21.9734 13.1017 21.7639 13.5218 21.3437L13.5168 21.3388L21.5991 13.2565C22.8327 12.023 23.5257 10.3499 23.5257 8.60547C23.5257 6.86101 22.8327 5.18799 21.5991 3.95446C20.3656 2.72094 18.6926 2.02795 16.9481 2.02795C15.2037 2.02795 13.5306 2.72094 12.2971 3.95446L11.9999 4.2517L11.7026 3.95446C10.4691 2.72094 8.79611 2.02795 7.05164 2.02795C5.30717 2.02795 3.63416 2.72094 2.40063 3.95446C1.16711 5.18799 0.474121 6.86101 0.474121 8.60547C0.474121 10.3499 1.16711 12.023 2.40063 13.2565L10.4829 21.3388L10.478 21.3437C10.8981 21.7639 11.4492 21.9734 11.9999 21.9721Z" fill="black"/>
</svg>
