<svg width="24" height="24" viewBox="0 0 24 24" fill="none" xmlns="http://www.w3.org/2000/svg">
<path fill-rule="evenodd" clip-rule="evenodd" d="M10.8766 21.2135C10.774 21.1437 10.6765 21.0633 10.5855 20.9724L2.59172 12.9786C1.38873 11.7756 0.712891 10.144 0.712891 8.44268C0.712891 6.74139 1.38873 5.10978 2.59172 3.90678C3.79472 2.70379 5.42633 2.02795 7.12762 2.02795C8.82891 2.02795 10.4605 2.70379 11.6635 3.90678L11.6761 3.91941L11.6767 3.91586L12.0018 4.24096L12.3358 3.90695L12.3387 3.92598L12.3489 3.9157C13.5519 2.7127 15.1835 2.03687 16.8848 2.03687C18.5861 2.03687 20.2177 2.7127 21.4207 3.9157C22.6237 5.11869 23.2996 6.7503 23.2996 8.45159C23.2996 10.1529 22.6237 11.7845 21.4207 12.9875L13.4269 20.9813C12.733 21.6752 11.656 21.7526 10.8766 21.2135ZM12.0107 19.5691L20.0065 11.5733C20.8344 10.7454 21.2996 9.62245 21.2996 8.45159C21.2996 7.28073 20.8344 6.15783 20.0065 5.32991C19.1786 4.50199 18.0557 4.03687 16.8848 4.03687C15.714 4.03687 14.5911 4.50199 13.7632 5.32991L12.7198 6.37323C12.3719 6.72114 11.8314 6.7591 11.4415 6.48713C11.389 6.45172 11.3391 6.41078 11.2926 6.36432L10.2493 5.321C9.42138 4.49308 8.29848 4.02795 7.12762 4.02795C5.95676 4.02795 4.83386 4.49308 4.00593 5.321C3.17801 6.14892 2.71289 7.27182 2.71289 8.44268C2.71289 9.61354 3.17801 10.7364 4.00593 11.5644L12.0107 19.5691Z" fill="black"/>
</svg>
