<svg width="24" height="24" viewBox="0 0 24 24" fill="none" xmlns="http://www.w3.org/2000/svg">
<path fill-rule="evenodd" clip-rule="evenodd" d="M18.125 2C18.6886 2 19.2291 2.23413 19.6276 2.65087C20.0261 3.06762 20.25 3.63285 20.25 4.22222V19.7778C20.25 20.3671 20.0261 20.9324 19.6276 21.3491C19.2291 21.7659 18.6886 22 18.125 22H5.375C4.81141 22 4.27091 21.7659 3.8724 21.3491C3.47388 20.9324 3.25 20.3671 3.25 19.7778V4.22222C3.25 3.63285 3.47388 3.06762 3.8724 2.65087C4.27091 2.23413 4.81141 2 5.375 2H18.125ZM6.25 9C6.25 8.44772 6.69772 8 7.25 8H16.25C16.8023 8 17.25 8.44772 17.25 9C17.25 9.55228 16.8023 10 16.25 10H7.25C6.69772 10 6.25 9.55228 6.25 9ZM7.25 13C6.69772 13 6.25 13.4477 6.25 14C6.25 14.5523 6.69772 15 7.25 15H12.25C12.8023 15 13.25 14.5523 13.25 14C13.25 13.4477 12.8023 13 12.25 13H7.25Z" fill="black"/>
</svg>
