<svg width="21" height="20" viewBox="0 0 21 20" fill="none" xmlns="http://www.w3.org/2000/svg">
<g clip-path="url(#clip0_1540_8508)">
<path fill-rule="evenodd" clip-rule="evenodd" d="M5.25 1.66669C3.86929 1.66669 2.75 2.78598 2.75 4.16669V15.8334C2.75 17.2141 3.86929 18.3334 5.25 18.3334H13.5833V17.5H12.75C11.3693 17.5 10.25 16.3807 10.25 15C10.25 13.6193 11.3693 12.5 12.75 12.5H13.5833V11.6667C13.5833 10.286 14.7026 9.16669 16.0833 9.16669C16.3755 9.16669 16.656 9.21681 16.9167 9.30894V4.16669C16.9167 2.78598 15.7974 1.66669 14.4167 1.66669H5.25ZM6.91667 10.8334C6.45643 10.8334 6.08333 11.2064 6.08333 11.6667C6.08333 12.1269 6.45643 12.5 6.91667 12.5H8.58333C9.04357 12.5 9.41667 12.1269 9.41667 11.6667C9.41667 11.2064 9.04357 10.8334 8.58333 10.8334H6.91667ZM6.08333 7.50002C6.08333 7.03978 6.45643 6.66669 6.91667 6.66669H11.0833C11.5436 6.66669 11.9167 7.03978 11.9167 7.50002C11.9167 7.96026 11.5436 8.33335 11.0833 8.33335H6.91667C6.45643 8.33335 6.08333 7.96026 6.08333 7.50002Z" fill="#EC5E4C"/>
<path d="M16.0833 19.1667C15.6231 19.1667 15.25 18.7936 15.25 18.3334V15.8334H12.75C12.2898 15.8334 11.9167 15.4603 11.9167 15C11.9167 14.5398 12.2898 14.1667 12.75 14.1667H15.25V11.6667C15.25 11.2064 15.6231 10.8334 16.0833 10.8334C16.5436 10.8334 16.9167 11.2064 16.9167 11.6667V14.1667H19.4167C19.8769 14.1667 20.25 14.5398 20.25 15C20.25 15.4603 19.8769 15.8334 19.4167 15.8334H16.9167V18.3334C16.9167 18.7936 16.5436 19.1667 16.0833 19.1667Z" fill="#EC5E4C"/>
</g>
<defs>
<clipPath id="clip0_1540_8508">
<rect width="20" height="20" fill="white" transform="translate(0.25)"/>
</clipPath>
</defs>
</svg>
