<svg width="25" height="24" viewBox="0 0 25 24" fill="none" xmlns="http://www.w3.org/2000/svg">
<path fill-rule="evenodd" clip-rule="evenodd" d="M3.25 5C3.25 3.34315 4.59315 2 6.25 2H17.25C18.9069 2 20.25 3.34315 20.25 5V19C20.25 20.6569 18.9069 22 17.25 22H6.25C4.59315 22 3.25 20.6569 3.25 19V5ZM6.25 4C5.69772 4 5.25 4.44772 5.25 5V19C5.25 19.5523 5.69772 20 6.25 20H17.25C17.8023 20 18.25 19.5523 18.25 19V5C18.25 4.44772 17.8023 4 17.25 4H6.25ZM7.25 9C7.25 8.44772 7.69772 8 8.25 8H13.25C13.8023 8 14.25 8.44772 14.25 9C14.25 9.55228 13.8023 10 13.25 10H8.25C7.69772 10 7.25 9.55228 7.25 9ZM8.25 13C7.69772 13 7.25 13.4477 7.25 14C7.25 14.5523 7.69772 15 8.25 15H10.25C10.8023 15 11.25 14.5523 11.25 14C11.25 13.4477 10.8023 13 10.25 13H8.25Z" fill="black"/>
</svg>
