<svg width="24" height="24" viewBox="0 0 24 24" fill="none" xmlns="http://www.w3.org/2000/svg">
<path fill-rule="evenodd" clip-rule="evenodd" d="M4 11.5C4 7.35786 7.35786 4 11.5 4C15.6421 4 19 7.35786 19 11.5C19 13.5129 18.207 15.3407 16.9163 16.6878C16.8731 16.719 16.8318 16.754 16.7929 16.7929C16.754 16.8318 16.719 16.8731 16.6878 16.9163C15.3407 18.207 13.5129 19 11.5 19C7.35786 19 4 15.6421 4 11.5ZM17.4733 18.8875C15.8415 20.2086 13.7631 21 11.5 21C6.25329 21 2 16.7467 2 11.5C2 6.25329 6.25329 2 11.5 2C16.7467 2 21 6.25329 21 11.5C21 13.7631 20.2086 15.8415 18.8875 17.4733L22.2071 20.7929C22.5976 21.1834 22.5976 21.8166 22.2071 22.2071C21.8166 22.5976 21.1834 22.5976 20.7929 22.2071L17.4733 18.8875Z" fill="black"/>
</svg>
