<svg width="22" height="22" viewBox="0 0 22 22" fill="none" xmlns="http://www.w3.org/2000/svg">
<path fill-rule="evenodd" clip-rule="evenodd" d="M9.16606 3.66675C9.16606 3.16049 9.57646 2.75008 10.0827 2.75008H11.916C12.4222 2.75008 12.8326 3.16049 12.8326 3.66675V4.81726L13.4054 5.04908C13.9622 5.27447 14.4807 5.57602 14.9477 5.94111L15.4349 6.32204L16.4342 5.74509C16.8727 5.49196 17.4333 5.64218 17.6864 6.08062L18.6031 7.66825C18.8562 8.10669 18.706 8.66731 18.2675 8.92044L17.2698 9.49646L17.3547 10.1078C17.3952 10.3988 17.4161 10.6965 17.4161 10.9996C17.4161 11.3028 17.3951 11.6007 17.3547 11.8918L17.2698 12.5032L18.2663 13.0785C18.7047 13.3316 18.855 13.8923 18.6018 14.3307L17.6852 15.9183C17.4321 16.3568 16.8715 16.507 16.433 16.2539L15.4347 15.6775L14.9474 16.0583C14.4805 16.4234 13.9621 16.7248 13.4054 16.9502L12.8326 17.182V18.3331C12.8326 18.8394 12.4222 19.2498 11.916 19.2498H10.0827C9.57646 19.2498 9.16606 18.8394 9.16606 18.3331V17.1819L8.59336 16.95C8.0367 16.7247 7.51843 16.4232 7.05154 16.0582L6.56427 15.6773L5.56609 16.2536C5.12765 16.5068 4.56703 16.3565 4.3139 15.9181L3.39728 14.3305C3.14415 13.892 3.29436 13.3314 3.7328 13.0783L4.7293 12.5029L4.64439 11.8916C4.60397 11.6005 4.58301 11.3028 4.58301 10.9996C4.58301 10.6966 4.60395 10.399 4.64435 10.108L4.72922 9.49667L3.73158 8.92068C3.29314 8.66755 3.14292 8.10693 3.39606 7.66849L4.31268 6.08085C4.56581 5.64242 5.12643 5.4922 5.56487 5.74533L6.56401 6.32218L7.05128 5.94123C7.51824 5.57616 8.0366 5.27462 8.59336 5.04923L9.16606 4.81739V3.66675ZM10.0827 0.916748C8.5838 0.916748 7.36497 2.11597 7.33335 3.60732C7.02076 3.76261 6.7195 3.9371 6.43112 4.1292C5.12355 3.40984 3.47469 3.86563 2.72497 5.16419L1.80834 6.75182C1.05847 8.05063 1.48849 9.70688 2.76584 10.4794C2.75511 10.6515 2.74967 10.825 2.74967 10.9996C2.74967 11.1744 2.75512 11.348 2.76587 11.5203C1.48945 12.2931 1.05993 13.9487 1.80956 15.2471L2.72619 16.8348C3.47573 18.133 5.124 18.5889 6.43142 17.8703C6.71971 18.0623 7.02086 18.2367 7.33334 18.3919C7.36464 19.8836 8.58359 21.0831 10.0827 21.0831H11.916C13.415 21.0831 14.6339 19.8837 14.6653 18.3921C14.9779 18.2369 15.2791 18.0624 15.5675 17.8704C16.8749 18.5892 18.5233 18.1333 19.2729 16.835L20.1895 15.2474C20.9392 13.949 20.5097 12.2933 19.2332 11.5205C19.244 11.3482 19.2494 11.1745 19.2494 10.9996C19.2494 10.8249 19.244 10.6514 19.2333 10.4792C20.5106 9.70666 20.9406 8.0504 20.1908 6.75159L19.2741 5.16395C18.5244 3.86533 16.8754 3.40956 15.5678 4.12907C15.2793 3.93693 14.978 3.76242 14.6653 3.60711C14.6336 2.11587 13.4148 0.916748 11.916 0.916748H10.0827ZM9.05531 11C9.05531 9.92582 9.92608 9.05505 11.0002 9.05505C12.0744 9.05505 12.9451 9.92582 12.9451 11C12.9451 12.0741 12.0744 12.9449 11.0002 12.9449C9.92608 12.9449 9.05531 12.0741 9.05531 11ZM11.0002 7.22172C8.91355 7.22172 7.22197 8.9133 7.22197 11C7.22197 13.0866 8.91355 14.7782 11.0002 14.7782C13.0869 14.7782 14.7785 13.0866 14.7785 11C14.7785 8.9133 13.0869 7.22172 11.0002 7.22172Z" fill="black"/>
</svg>
