<svg width="24" height="24" viewBox="0 0 24 24" fill="none" xmlns="http://www.w3.org/2000/svg">
<path fill-rule="evenodd" clip-rule="evenodd" d="M5.4 2.8C5.77771 2.29639 6.37049 2 7 2H17C17.6295 2 18.2223 2.29639 18.6 2.8L20.6 5.46667C20.8596 5.81286 21 6.23393 21 6.66667V20C21 20.5304 20.7893 21.0391 20.4142 21.4142C20.0391 21.7893 19.5304 22 19 22H5C4.46957 22 3.96086 21.7893 3.58579 21.4142C3.21071 21.0391 3 20.5304 3 20V6.66667C3 6.23393 3.14036 5.81286 3.4 5.46667L5.4 2.8ZM9.00237 10C9.00237 9.44772 8.55357 9 7.99994 9C7.44631 9 6.99751 9.44772 6.99751 10C6.99751 11.3253 7.52396 12.5968 8.46182 13.5347C9.39978 14.4726 10.6724 15 11.9999 15C13.3275 15 14.6001 14.4726 15.5381 13.5347C16.4759 12.5968 17.0024 11.3253 17.0024 10C17.0024 9.44772 16.5536 9 15.9999 9C15.4463 9 14.9975 9.44772 14.9975 10C14.9975 10.7964 14.6811 11.5598 14.1187 12.1222C13.5563 12.6845 12.7942 13 11.9999 13C11.2057 13 10.4435 12.6845 9.8812 12.1222C9.31878 11.5598 9.00237 10.7964 9.00237 10Z" fill="black"/>
</svg>
