<svg width="20" height="20" viewBox="0 0 20 20" fill="none" xmlns="http://www.w3.org/2000/svg">
<path fill-rule="evenodd" clip-rule="evenodd" d="M5.83335 0.833252C5.04646 0.833252 4.30549 1.20374 3.83335 1.83325L2.16669 4.05547C1.84213 4.48821 1.66669 5.01455 1.66669 5.55547V16.6666C1.66669 17.3296 1.93008 17.9655 2.39892 18.4344C2.86776 18.9032 3.50365 19.1666 4.16669 19.1666H15.8334C16.4964 19.1666 17.1323 18.9032 17.6011 18.4344C18.07 17.9655 18.3334 17.3296 18.3334 16.6666V5.55547C18.3334 5.01455 18.1579 4.48821 17.8334 4.05547L16.1667 1.83325C15.6946 1.20374 14.9536 0.833252 14.1667 0.833252H5.83335ZM5.16669 2.83325C5.32407 2.62341 5.57106 2.49992 5.83335 2.49992H14.1667C14.429 2.49992 14.676 2.62341 14.8334 2.83325L16.5 5.05547C16.6082 5.19972 16.6667 5.37517 16.6667 5.55547V16.6666C16.6667 16.8876 16.5789 17.0996 16.4226 17.2558C16.2663 17.4121 16.0544 17.4999 15.8334 17.4999H4.16669C3.94567 17.4999 3.73371 17.4121 3.57743 17.2558C3.42115 17.0996 3.33335 16.8876 3.33335 16.6666V5.55547C3.33335 5.37516 3.39184 5.19972 3.50002 5.05547L5.16669 2.83325ZM6.66668 7.49992C7.12804 7.49992 7.50204 7.87301 7.50204 8.33325C7.50204 8.99695 7.76571 9.63305 8.2344 10.1017C8.70302 10.5704 9.33817 10.8333 10 10.8333C10.6619 10.8333 11.297 10.5704 11.7656 10.1017C12.2343 9.63305 12.498 8.99695 12.498 8.33325C12.498 7.87301 12.872 7.49992 13.3333 7.49992C13.7947 7.49992 14.1687 7.87301 14.1687 8.33325C14.1687 9.43767 13.73 10.4973 12.9484 11.2788C12.1668 12.0604 11.1063 12.4999 10 12.4999C8.89375 12.4999 7.83321 12.0604 7.05158 11.2788C6.27003 10.4973 5.83132 9.43767 5.83132 8.33325C5.83132 7.87301 6.20532 7.49992 6.66668 7.49992Z" fill="black"/>
</svg>
