<svg width="24" height="24" viewBox="0 0 24 24" fill="none" xmlns="http://www.w3.org/2000/svg">
<path fill-rule="evenodd" clip-rule="evenodd" d="M0.5 6.62585C0.5 4.969 1.84315 3.62585 3.5 3.62585H15.3019C16.9588 3.62585 18.3019 4.969 18.3019 6.62585V7.32463L21.6262 6.12895C22.5384 5.80082 23.5 6.47684 23.5 7.44632V16.5627C23.5 17.5283 22.5455 18.204 21.6348 17.8831L18.3019 16.7088V17.3743C18.3019 19.0312 16.9588 20.3743 15.3019 20.3743H3.5C1.84314 20.3743 0.5 19.0312 0.5 17.3743V6.62585ZM3.5 5.62585C2.94772 5.62585 2.5 6.07357 2.5 6.62585V17.3743C2.5 17.9266 2.94771 18.3743 3.5 18.3743H15.3019C15.8542 18.3743 16.3019 17.9266 16.3019 17.3743V15.2962C16.3019 14.9718 16.4593 14.6675 16.7241 14.48C16.9889 14.2926 17.3282 14.2452 17.6342 14.3531L21.5 15.7151V8.29977L17.6404 9.68801C17.334 9.79821 16.9931 9.75236 16.7268 9.5651C16.4604 9.37784 16.3019 9.07263 16.3019 8.74703V6.62585C16.3019 6.07357 15.8542 5.62585 15.3019 5.62585H3.5Z" fill="black"/>
</svg>
